<?xml version="1.0" encoding="UTF-8" standalone="no"?>
<!-- Created with Inkscape (http://www.inkscape.org/) -->

<svg
   width="168.60661mm"
   height="152.68843mm"
   viewBox="0 0 168.60661 152.68843"
   version="1.1"
   id="svg541"
   xml:space="preserve"
   inkscape:version="1.2 (dc2aedaf03, 2022-05-15)"
   sodipodi:docname="appeltaart_imperium2.svg"
   xmlns:inkscape="http://www.inkscape.org/namespaces/inkscape"
   xmlns:sodipodi="http://sodipodi.sourceforge.net/DTD/sodipodi-0.dtd"
   xmlns="http://www.w3.org/2000/svg"
   xmlns:svg="http://www.w3.org/2000/svg"><sodipodi:namedview
     id="namedview543"
     pagecolor="#ffffff"
     bordercolor="#666666"
     borderopacity="1.0"
     inkscape:showpageshadow="2"
     inkscape:pageopacity="0.0"
     inkscape:pagecheckerboard="0"
     inkscape:deskcolor="#d1d1d1"
     inkscape:document-units="mm"
     showgrid="false"
     inkscape:zoom="0.72515432"
     inkscape:cx="177.89317"
     inkscape:cy="478.51883"
     inkscape:window-width="1920"
     inkscape:window-height="1017"
     inkscape:window-x="-8"
     inkscape:window-y="-8"
     inkscape:window-maximized="1"
     inkscape:current-layer="layer1" /><defs
     id="defs538"><clipPath
       clipPathUnits="userSpaceOnUse"
       id="clipPath3715"><path
         d="M 0,595.28 H 841.89 V 0 H 0 Z"
         id="path3713" /></clipPath></defs><g
     inkscape:label="Laag 1"
     inkscape:groupmode="layer"
     id="layer1"
     transform="translate(-57.993994,-21.804432)"><g
       id="g3711"
       clip-path="url(#clipPath3715)"
       transform="matrix(0.35277777,0,0,-0.35277777,-5.2498531,203.82111)"><g
         id="g3717"
         transform="translate(219.6309,110.9861)"><path
           d="M 0,0 C 0.346,0.04 0.744,0.081 1.192,0.122 1.641,0.163 2.038,0.183 2.385,0.183 3.159,0.183 3.975,0.122 4.831,0 L 9.63,-17.334 14.491,0 c 0.407,0.061 0.799,0.102 1.176,0.122 0.378,0.021 0.76,0.03 1.147,0.03 0.367,0 0.739,-0.009 1.116,-0.03 C 18.307,0.102 18.699,0.061 19.107,0 l -7.092,-21.981 c -0.429,-0.062 -0.841,-0.107 -1.239,-0.138 -0.397,-0.029 -0.82,-0.046 -1.268,-0.046 -0.408,0 -0.805,0.017 -1.193,0.046 -0.387,0.031 -0.815,0.076 -1.284,0.138 z"
           style="fill:#91268f;fill-opacity:1;fill-rule:nonzero;stroke:none"
           id="path3719" /></g><g
         id="g3721"
         transform="translate(249.1631,98.6042)"><path
           d="m 0,0 c -0.041,0.979 -0.311,1.769 -0.81,2.369 -0.5,0.602 -1.197,0.902 -2.094,0.902 -1.019,0 -1.794,-0.286 -2.324,-0.855 C -5.758,1.845 -6.074,1.039 -6.175,0 Z m -6.207,-3.026 c 0.082,-1.223 0.51,-2.11 1.285,-2.66 0.774,-0.55 1.793,-0.825 3.057,-0.825 0.693,0 1.401,0.066 2.125,0.199 0.723,0.131 1.411,0.32 2.063,0.565 0.224,-0.407 0.418,-0.898 0.581,-1.468 0.163,-0.57 0.255,-1.181 0.275,-1.834 -1.59,-0.612 -3.383,-0.917 -5.38,-0.917 -1.468,0 -2.726,0.204 -3.776,0.611 -1.049,0.409 -1.906,0.973 -2.567,1.697 -0.664,0.722 -1.153,1.585 -1.468,2.584 -0.317,0.998 -0.474,2.088 -0.474,3.27 0,1.162 0.163,2.252 0.489,3.272 0.326,1.018 0.81,1.905 1.453,2.66 0.641,0.753 1.436,1.349 2.384,1.788 0.948,0.438 2.053,0.657 3.317,0.657 1.1,0 2.079,-0.193 2.935,-0.581 C 0.948,5.605 1.676,5.075 2.278,4.402 2.878,3.73 3.332,2.93 3.638,2.003 3.944,1.075 4.096,0.081 4.096,-0.979 4.096,-1.365 4.082,-1.748 4.051,-2.124 4.02,-2.501 3.984,-2.803 3.944,-3.026 Z"
           style="fill:#91268f;fill-opacity:1;fill-rule:nonzero;stroke:none"
           id="path3723" /></g><g
         id="g3725"
         transform="translate(256.6831,104.8103)"><path
           d="M 0,0 C 0.306,0.062 0.596,0.107 0.871,0.138 1.146,0.169 1.447,0.184 1.773,0.184 2.079,0.184 2.379,0.162 2.675,0.123 2.97,0.081 3.261,0.03 3.546,-0.03 3.607,-0.132 3.664,-0.28 3.715,-0.474 3.765,-0.667 3.811,-0.871 3.852,-1.086 3.893,-1.299 3.929,-1.514 3.959,-1.727 3.99,-1.941 4.015,-2.12 4.035,-2.262 c 0.448,0.631 0.999,1.198 1.651,1.697 0.652,0.5 1.468,0.749 2.446,0.749 0.203,0 0.438,-0.01 0.703,-0.032 0.265,-0.019 0.458,-0.049 0.582,-0.09 0.04,-0.204 0.07,-0.44 0.09,-0.704 0.021,-0.265 0.032,-0.54 0.032,-0.825 0,-0.347 -0.016,-0.723 -0.046,-1.132 C 9.462,-3.006 9.406,-3.394 9.324,-3.761 9.1,-3.72 8.851,-3.699 8.575,-3.699 H 8.071 C 7.724,-3.699 7.337,-3.734 6.909,-3.807 6.481,-3.878 6.073,-4.065 5.686,-4.371 5.299,-4.677 4.978,-5.136 4.724,-5.747 4.468,-6.359 4.341,-7.215 4.341,-8.315 v -7.521 c -0.367,-0.06 -0.734,-0.102 -1.101,-0.122 -0.366,-0.02 -0.723,-0.031 -1.07,-0.031 -0.346,0 -0.697,0.011 -1.054,0.031 -0.357,0.02 -0.729,0.062 -1.116,0.122 z"
           style="fill:#91268f;fill-opacity:1;fill-rule:nonzero;stroke:none"
           id="path3727" /></g><g
         id="g3729"
         transform="translate(271.6938,95.8835)"><path
           d="m 0,0 c -1.142,0.325 -2.033,0.81 -2.675,1.452 -0.642,0.642 -0.963,1.606 -0.963,2.889 0,1.549 0.555,2.762 1.666,3.638 1.11,0.875 2.624,1.315 4.54,1.315 0.794,0 1.579,-0.071 2.354,-0.215 C 5.696,8.937 6.481,8.723 7.276,8.438 7.234,7.908 7.133,7.357 6.97,6.787 6.807,6.216 6.614,5.718 6.389,5.289 5.9,5.493 5.36,5.671 4.769,5.823 4.178,5.977 3.556,6.053 2.904,6.053 2.211,6.053 1.671,5.947 1.284,5.732 0.896,5.519 0.703,5.177 0.703,4.709 0.703,4.26 0.84,3.944 1.115,3.76 1.391,3.576 1.783,3.403 2.292,3.241 L 4.035,2.721 C 4.606,2.558 5.121,2.359 5.579,2.125 6.038,1.891 6.43,1.6 6.756,1.254 7.082,0.906 7.337,0.479 7.521,-0.031 7.704,-0.54 7.796,-1.162 7.796,-1.896 7.796,-2.649 7.637,-3.353 7.321,-4.005 7.006,-4.657 6.547,-5.224 5.946,-5.702 5.345,-6.181 4.616,-6.558 3.76,-6.833 2.904,-7.107 1.936,-7.245 0.856,-7.245 c -0.489,0 -0.938,0.016 -1.345,0.046 -0.408,0.031 -0.801,0.081 -1.178,0.153 -0.377,0.071 -0.749,0.157 -1.116,0.259 -0.366,0.102 -0.763,0.234 -1.192,0.398 0.041,0.55 0.138,1.105 0.291,1.666 0.153,0.56 0.351,1.106 0.596,1.636 0.672,-0.266 1.31,-0.464 1.911,-0.598 0.601,-0.131 1.227,-0.198 1.88,-0.198 0.285,0 0.596,0.027 0.932,0.076 0.337,0.051 0.647,0.144 0.933,0.276 0.285,0.133 0.524,0.305 0.718,0.52 0.193,0.213 0.291,0.493 0.291,0.84 0,0.489 -0.148,0.841 -0.444,1.056 -0.295,0.214 -0.708,0.402 -1.237,0.564 z"
           style="fill:#91268f;fill-opacity:1;fill-rule:nonzero;stroke:none"
           id="path3731" /></g><g
         id="g3733"
         transform="translate(290.4023,112.7282)"><path
           d="M 0,0 C 0.693,0.123 1.386,0.184 2.079,0.184 2.771,0.184 3.475,0.123 4.188,0 v -28.858 c -0.713,-0.124 -1.406,-0.185 -2.079,-0.185 -0.713,0 -1.416,0.061 -2.109,0.185 z"
           style="fill:#91268f;fill-opacity:1;fill-rule:nonzero;stroke:none"
           id="path3735" /></g><g
         id="g3737"
         transform="translate(316.5713,97.1071)"><path
           d="M 0,0 -2.538,9.232 -5.197,0 Z m -4.892,13.879 c 0.429,0.06 0.835,0.106 1.224,0.138 0.386,0.03 0.814,0.045 1.283,0.045 0.407,0 0.805,-0.015 1.192,-0.045 0.387,-0.032 0.816,-0.078 1.284,-0.138 L 6.97,-8.103 C 6.134,-8.225 5.319,-8.286 4.524,-8.286 c -0.775,0 -1.528,0.061 -2.262,0.183 L 1.039,-3.7 H -6.237 L -7.49,-8.103 c -0.734,-0.122 -1.438,-0.183 -2.11,-0.183 -0.754,0 -1.498,0.061 -2.232,0.183 z"
           style="fill:#91268f;fill-opacity:1;fill-rule:nonzero;stroke:none"
           id="path3739" /></g><g
         id="g3741"
         transform="translate(326.0171,104.8103)"><path
           d="M 0,0 C 0.285,0.062 0.571,0.107 0.856,0.138 1.141,0.169 1.457,0.184 1.804,0.184 2.15,0.184 2.456,0.169 2.721,0.138 2.986,0.107 3.261,0.062 3.547,0 3.607,-0.103 3.663,-0.249 3.715,-0.443 3.766,-0.637 3.811,-0.84 3.852,-1.055 3.893,-1.269 3.928,-1.478 3.959,-1.682 3.99,-1.885 4.016,-2.059 4.036,-2.2 c 0.162,0.305 0.377,0.61 0.642,0.916 0.264,0.305 0.581,0.581 0.947,0.826 0.368,0.244 0.78,0.443 1.238,0.596 0.459,0.153 0.973,0.229 1.545,0.229 2.465,0 4.045,-0.937 4.738,-2.813 0.407,0.754 0.983,1.411 1.727,1.972 0.745,0.56 1.687,0.841 2.828,0.841 1.793,0 3.112,-0.494 3.959,-1.482 0.846,-0.989 1.269,-2.533 1.269,-4.632 v -10.059 c -0.734,-0.122 -1.458,-0.183 -2.171,-0.183 -0.713,0 -1.437,0.061 -2.171,0.183 v 8.927 c 0,1.101 -0.136,1.946 -0.412,2.537 -0.276,0.592 -0.831,0.887 -1.666,0.887 -0.347,0 -0.688,-0.05 -1.025,-0.152 -0.335,-0.103 -0.641,-0.29 -0.916,-0.566 -0.275,-0.274 -0.501,-0.662 -0.673,-1.161 -0.173,-0.5 -0.259,-1.147 -0.259,-1.941 v -8.531 c -0.734,-0.122 -1.458,-0.183 -2.171,-0.183 -0.714,0 -1.437,0.061 -2.171,0.183 v 8.927 c 0,1.101 -0.138,1.946 -0.413,2.537 -0.275,0.592 -0.83,0.887 -1.666,0.887 -0.346,0 -0.693,-0.05 -1.04,-0.152 C 5.829,-3.71 5.518,-3.908 5.243,-4.203 4.968,-4.499 4.749,-4.911 4.585,-5.441 4.423,-5.972 4.341,-6.664 4.341,-7.52 v -8.286 c -0.734,-0.122 -1.457,-0.183 -2.17,-0.183 -0.714,0 -1.437,0.061 -2.171,0.183 z"
           style="fill:#91268f;fill-opacity:1;fill-rule:nonzero;stroke:none"
           id="path3743" /></g><g
         id="g3745"
         transform="translate(357.1401,92.4284)"><path
           d="m 0,0 c 0.244,-0.081 0.504,-0.132 0.779,-0.152 0.275,-0.021 0.555,-0.031 0.84,-0.031 1.325,0 2.364,0.387 3.119,1.162 C 5.492,1.753 5.869,2.967 5.869,4.616 5.869,6.084 5.635,7.2 5.166,7.964 4.696,8.729 3.902,9.11 2.781,9.11 1.966,9.11 1.298,8.841 0.779,8.301 0.259,7.761 0,6.909 0,5.748 Z m -4.311,18.925 c 0.733,0.122 1.447,0.183 2.14,0.183 0.713,0 1.437,-0.061 2.171,-0.183 v -8.071 c 0.306,0.549 0.814,1.003 1.528,1.36 0.713,0.356 1.528,0.535 2.446,0.535 0.917,0 1.768,-0.164 2.552,-0.489 C 7.311,11.934 7.988,11.439 8.559,10.777 9.13,10.114 9.578,9.283 9.905,8.286 10.23,7.287 10.394,6.104 10.394,4.738 10.394,3.414 10.189,2.228 9.783,1.178 9.375,0.127 8.784,-0.763 8.009,-1.497 7.234,-2.23 6.286,-2.797 5.166,-3.194 4.045,-3.591 2.781,-3.79 1.375,-3.79 c -0.449,0 -0.922,0.02 -1.422,0.061 -0.499,0.041 -1.004,0.097 -1.514,0.167 -0.509,0.073 -0.997,0.165 -1.466,0.277 -0.47,0.111 -0.898,0.239 -1.284,0.381 z"
           style="fill:#91268f;fill-opacity:1;fill-rule:nonzero;stroke:none"
           id="path3747" /></g><g
         id="g3749"
         transform="translate(378.8145,96.2507)"><path
           d="m 0,0 c -0.244,0.041 -0.509,0.076 -0.794,0.106 -0.287,0.031 -0.54,0.047 -0.765,0.047 -0.999,0 -1.788,-0.178 -2.369,-0.535 -0.581,-0.356 -0.871,-0.932 -0.871,-1.728 0,-0.531 0.111,-0.938 0.336,-1.222 0.224,-0.286 0.494,-0.495 0.81,-0.627 0.316,-0.133 0.652,-0.215 1.008,-0.245 0.357,-0.03 0.668,-0.046 0.933,-0.046 0.306,0 0.612,0.026 0.918,0.076 0.306,0.051 0.569,0.097 0.794,0.139 z m 0,3.148 c 0,0.489 -0.082,0.887 -0.244,1.194 -0.163,0.304 -0.387,0.545 -0.673,0.718 -0.286,0.171 -0.637,0.291 -1.054,0.351 -0.418,0.062 -0.882,0.092 -1.391,0.092 -1.101,0 -2.273,-0.215 -3.516,-0.643 -0.285,0.531 -0.5,1.03 -0.642,1.499 -0.143,0.469 -0.214,1.029 -0.214,1.681 0.896,0.306 1.793,0.529 2.69,0.672 0.896,0.143 1.732,0.215 2.507,0.215 2.12,0 3.775,-0.509 4.968,-1.53 C 3.624,6.379 4.219,4.748 4.219,2.506 V -6.665 C 3.506,-6.89 2.639,-7.104 1.621,-7.308 0.602,-7.511 -0.55,-7.612 -1.834,-7.612 c -1.04,0 -1.992,0.091 -2.859,0.275 -0.866,0.183 -1.609,0.488 -2.231,0.916 -0.621,0.429 -1.1,0.979 -1.437,1.651 -0.336,0.673 -0.504,1.499 -0.504,2.477 0,0.979 0.208,1.799 0.626,2.461 0.418,0.662 0.959,1.192 1.621,1.59 0.662,0.396 1.401,0.682 2.216,0.855 0.816,0.173 1.631,0.261 2.446,0.261 0.591,0 1.243,-0.031 1.956,-0.093 z"
           style="fill:#91268f;fill-opacity:1;fill-rule:nonzero;stroke:none"
           id="path3751" /></g><g
         id="g3753"
         transform="translate(397.4941,92.7351)"><path
           d="m 0,0 c 0.244,-0.409 0.448,-0.882 0.61,-1.423 0.163,-0.54 0.246,-1.176 0.246,-1.91 -0.816,-0.325 -1.58,-0.535 -2.293,-0.626 -0.714,-0.092 -1.458,-0.138 -2.232,-0.138 -1.325,0 -2.477,0.209 -3.455,0.627 -0.978,0.417 -1.788,0.993 -2.431,1.727 -0.641,0.733 -1.126,1.605 -1.451,2.614 -0.327,1.009 -0.49,2.105 -0.49,3.286 0,1.161 0.158,2.242 0.475,3.241 0.316,0.998 0.794,1.874 1.437,2.629 0.641,0.754 1.44,1.345 2.399,1.773 0.958,0.428 2.068,0.642 3.332,0.642 0.449,0 0.861,-0.01 1.238,-0.03 0.378,-0.021 0.739,-0.062 1.086,-0.123 0.346,-0.061 0.693,-0.143 1.039,-0.244 0.347,-0.102 0.734,-0.235 1.162,-0.398 0,-0.468 -0.062,-0.993 -0.184,-1.574 C 0.366,9.492 0.173,8.937 -0.092,8.407 -0.704,8.61 -1.238,8.747 -1.697,8.819 -2.156,8.891 -2.681,8.927 -3.272,8.927 -4.536,8.927 -5.488,8.515 -6.129,7.688 -6.772,6.863 -7.093,5.687 -7.093,4.157 c 0,-1.65 0.347,-2.854 1.04,-3.607 0.692,-0.754 1.629,-1.131 2.812,-1.131 0.306,0 0.586,0.005 0.841,0.016 0.254,0.009 0.504,0.034 0.749,0.076 0.244,0.04 0.493,0.101 0.748,0.182 C -0.647,-0.225 -0.348,-0.123 0,0"
           style="fill:#91268f;fill-opacity:1;fill-rule:nonzero;stroke:none"
           id="path3755" /></g><g
         id="g3757"
         transform="translate(401.3457,111.3532)"><path
           d="m 0,0 c 0.346,0.062 0.703,0.101 1.069,0.122 0.368,0.02 0.724,0.03 1.071,0.03 0.346,0 0.703,-0.01 1.069,-0.03 C 3.577,0.101 3.943,0.062 4.311,0 v -8.408 c 0.142,0.183 0.33,0.402 0.564,0.657 0.235,0.256 0.526,0.5 0.873,0.734 0.346,0.235 0.763,0.433 1.252,0.597 0.49,0.163 1.05,0.244 1.682,0.244 1.752,0 3.083,-0.489 3.989,-1.468 0.907,-0.977 1.361,-2.516 1.361,-4.616 v -10.119 c -0.366,-0.06 -0.734,-0.101 -1.1,-0.122 -0.368,-0.02 -0.724,-0.031 -1.071,-0.031 -0.346,0 -0.703,0.011 -1.069,0.031 -0.368,0.021 -0.734,0.062 -1.102,0.122 v 8.957 c 0,1.101 -0.172,1.946 -0.519,2.537 -0.346,0.592 -0.937,0.887 -1.774,0.887 -0.346,0 -0.702,-0.05 -1.069,-0.152 -0.367,-0.103 -0.699,-0.301 -0.994,-0.596 -0.296,-0.296 -0.54,-0.708 -0.733,-1.238 -0.194,-0.531 -0.29,-1.223 -0.29,-2.079 v -8.316 c -0.368,-0.06 -0.734,-0.101 -1.102,-0.122 -0.366,-0.02 -0.723,-0.031 -1.069,-0.031 -0.347,0 -0.7,0.011 -1.055,0.031 -0.357,0.021 -0.719,0.062 -1.085,0.122 z"
           style="fill:#91268f;fill-opacity:1;fill-rule:nonzero;stroke:none"
           id="path3759" /></g><g
         id="g3761"
         transform="translate(419.749,101.5085)"><path
           d="M 0,0 H -1.987 L -2.139,0.611 3.576,7.918 H 4.279 V 3.302 h 3.7 C 8.04,2.996 8.08,2.721 8.102,2.477 8.121,2.232 8.132,1.977 8.132,1.712 8.132,1.427 8.121,1.151 8.102,0.887 8.08,0.621 8.04,0.325 7.979,0 h -3.7 v -6.206 c 0,-0.632 0.052,-1.141 0.154,-1.528 0.102,-0.387 0.25,-0.694 0.443,-0.917 0.194,-0.225 0.434,-0.378 0.718,-0.459 0.286,-0.082 0.622,-0.122 1.009,-0.122 0.306,0 0.607,0.025 0.903,0.076 0.295,0.051 0.555,0.097 0.779,0.137 0.142,-0.386 0.244,-0.79 0.306,-1.207 0.06,-0.418 0.092,-0.79 0.092,-1.116 0,-0.224 -0.005,-0.413 -0.015,-0.566 -0.012,-0.153 -0.026,-0.301 -0.047,-0.443 -0.937,-0.224 -1.906,-0.337 -2.903,-0.337 -1.856,0 -3.273,0.434 -4.251,1.3 C 0.489,-10.521 0,-9.11 0,-7.153 Z"
           style="fill:#91268f;fill-opacity:1;fill-rule:nonzero;stroke:none"
           id="path3763" /></g><g
         id="g3765"
         transform="translate(440.6904,98.6042)"><path
           d="M 0,0 C -0.041,0.979 -0.311,1.769 -0.811,2.369 -1.31,2.971 -2.008,3.271 -2.904,3.271 -3.923,3.271 -4.697,2.985 -5.228,2.416 -5.758,1.845 -6.074,1.039 -6.175,0 Z m -6.206,-3.026 c 0.081,-1.223 0.51,-2.11 1.284,-2.66 0.775,-0.55 1.793,-0.825 3.058,-0.825 0.692,0 1.4,0.066 2.125,0.199 0.722,0.131 1.41,0.32 2.062,0.565 0.225,-0.407 0.419,-0.898 0.581,-1.468 0.163,-0.57 0.254,-1.181 0.276,-1.834 -1.59,-0.612 -3.383,-0.917 -5.381,-0.917 -1.467,0 -2.726,0.204 -3.776,0.611 -1.049,0.409 -1.905,0.973 -2.567,1.697 -0.663,0.722 -1.152,1.585 -1.468,2.584 -0.316,0.998 -0.473,2.088 -0.473,3.27 0,1.162 0.163,2.252 0.488,3.272 0.327,1.018 0.81,1.905 1.453,2.66 0.641,0.753 1.437,1.349 2.384,1.788 0.948,0.438 2.054,0.657 3.317,0.657 1.101,0 2.078,-0.193 2.935,-0.581 C 0.948,5.605 1.676,5.075 2.278,4.402 2.879,3.73 3.333,2.93 3.639,2.003 3.944,1.075 4.098,0.081 4.098,-0.979 4.098,-1.365 4.081,-1.748 4.052,-2.124 4.021,-2.501 3.985,-2.803 3.944,-3.026 Z"
           style="fill:#91268f;fill-opacity:1;fill-rule:nonzero;stroke:none"
           id="path3767" /></g><g
         id="g3769"
         transform="translate(448.0889,111.3532)"><path
           d="M 0,0 C 0.734,0.122 1.457,0.184 2.171,0.184 2.864,0.184 3.577,0.122 4.311,0 v -16.051 c 0,-0.632 0.036,-1.14 0.107,-1.528 0.071,-0.387 0.184,-0.689 0.337,-0.901 0.151,-0.215 0.351,-0.363 0.596,-0.445 0.244,-0.081 0.549,-0.122 0.918,-0.122 0.162,0 0.339,0.01 0.533,0.031 0.194,0.02 0.383,0.051 0.566,0.091 0.225,-0.836 0.337,-1.649 0.337,-2.445 v -0.442 c 0,-0.134 -0.021,-0.282 -0.061,-0.445 -0.328,-0.101 -0.72,-0.173 -1.177,-0.214 -0.459,-0.04 -0.882,-0.061 -1.27,-0.061 -1.569,0 -2.828,0.433 -3.774,1.3 C 0.474,-20.366 0,-18.955 0,-16.998 Z"
           style="fill:#91268f;fill-opacity:1;fill-rule:nonzero;stroke:none"
           id="path3771" /></g><g
         id="g3773"
         transform="translate(458.3311,107.4704)"><path
           d="m 0,0 c -0.122,0.693 -0.184,1.375 -0.184,2.049 0,0.65 0.062,1.334 0.184,2.047 0.345,0.061 0.718,0.107 1.114,0.137 0.399,0.032 0.76,0.046 1.086,0.046 0.347,0 0.724,-0.014 1.132,-0.046 C 3.739,4.203 4.116,4.157 4.463,4.096 4.523,3.749 4.564,3.409 4.585,3.072 4.604,2.735 4.616,2.394 4.616,2.049 4.616,1.722 4.604,1.385 4.585,1.04 4.564,0.693 4.523,0.347 4.463,0 4.116,-0.062 3.744,-0.103 3.347,-0.122 2.95,-0.144 2.577,-0.153 2.23,-0.153 1.905,-0.153 1.538,-0.144 1.131,-0.122 0.723,-0.103 0.345,-0.062 0,0 m 0.641,-5.962 h -2.048 c -0.061,0.265 -0.107,0.545 -0.137,0.841 -0.031,0.295 -0.046,0.576 -0.046,0.842 0,0.55 0.061,1.089 0.183,1.619 h 6.298 v -15.806 c -0.734,-0.122 -1.448,-0.183 -2.14,-0.183 -0.673,0 -1.376,0.061 -2.11,0.183 z"
           style="fill:#91268f;fill-opacity:1;fill-rule:nonzero;stroke:none"
           id="path3775" /></g><g
         id="g3777"
         transform="translate(467.7168,107.5612)"><path
           d="m 0,0 c -0.083,0.429 -0.134,0.785 -0.153,1.071 -0.022,0.284 -0.032,0.58 -0.032,0.887 0,0.325 0.01,0.631 0.032,0.916 0.019,0.286 0.07,0.632 0.153,1.04 0.386,0.102 0.779,0.172 1.176,0.214 0.397,0.041 0.749,0.06 1.054,0.06 0.286,0 0.632,-0.019 1.041,-0.06 C 3.678,4.086 4.064,4.016 4.432,3.914 4.514,3.506 4.564,3.16 4.585,2.874 4.604,2.589 4.616,2.283 4.616,1.958 4.616,1.651 4.604,1.355 4.585,1.071 4.564,0.785 4.514,0.429 4.432,0 4.064,-0.103 3.678,-0.167 3.271,-0.198 2.862,-0.229 2.516,-0.244 2.23,-0.244 1.925,-0.244 1.573,-0.229 1.176,-0.198 0.779,-0.167 0.386,-0.103 0,0 m 0.672,-6.053 h -2.079 c -0.061,0.265 -0.107,0.545 -0.138,0.841 -0.03,0.295 -0.045,0.576 -0.045,0.842 0,0.55 0.06,1.089 0.183,1.619 h 6.298 v -16.142 c 0,-1.956 -0.49,-3.367 -1.468,-4.234 -0.978,-0.866 -2.395,-1.299 -4.25,-1.299 -0.509,0 -1.028,0.031 -1.559,0.092 -0.529,0.062 -1.018,0.143 -1.468,0.244 0,0.592 0.042,1.147 0.124,1.666 0.082,0.521 0.224,1.015 0.428,1.484 0.203,-0.04 0.448,-0.081 0.733,-0.123 0.286,-0.041 0.571,-0.061 0.857,-0.061 0.325,0 0.636,0.041 0.932,0.122 0.295,0.081 0.551,0.23 0.763,0.442 0.215,0.215 0.383,0.516 0.505,0.904 0.122,0.386 0.184,0.896 0.184,1.528 z"
           style="fill:#91268f;fill-opacity:1;fill-rule:nonzero;stroke:none"
           id="path3779" /></g><g
         id="g3781"
         transform="translate(481.5342,97.2907)"><path
           d="m 0,0 3.913,7.52 c 0.795,0.123 1.6,0.183 2.415,0.183 0.775,0 1.528,-0.06 2.262,-0.183 L 4.555,0.213 9.264,-8.286 C 8.428,-8.408 7.622,-8.47 6.848,-8.47 c -0.713,0 -1.467,0.062 -2.262,0.184 z m -4.922,14.063 c 0.693,0.122 1.406,0.183 2.14,0.183 0.734,0 1.458,-0.061 2.171,-0.183 V -8.286 c -0.713,-0.122 -1.437,-0.184 -2.171,-0.184 -0.734,0 -1.447,0.062 -2.14,0.184 z"
           style="fill:#91268f;fill-opacity:1;fill-rule:nonzero;stroke:none"
           id="path3783" /></g><g
         id="g3785"
         transform="translate(500.9453,112.7282)"><path
           d="M 0,0 C 0.693,0.123 1.387,0.184 2.08,0.184 2.772,0.184 3.476,0.123 4.188,0 v -28.858 c -0.712,-0.124 -1.406,-0.185 -2.078,-0.185 -0.714,0 -1.417,0.061 -2.11,0.185 z"
           style="fill:#91268f;fill-opacity:1;fill-rule:nonzero;stroke:none"
           id="path3787" /></g><g
         id="g3789"
         transform="translate(521.1211,99.1853)"><path
           d="m 0,0 c -0.692,0.265 -1.314,0.555 -1.864,0.871 -0.55,0.316 -1.019,0.692 -1.407,1.132 -0.386,0.437 -0.688,0.963 -0.901,1.574 -0.215,0.61 -0.32,1.345 -0.32,2.2 0,1.04 0.177,1.958 0.533,2.752 0.356,0.796 0.861,1.463 1.514,2.003 0.652,0.539 1.436,0.947 2.354,1.222 0.918,0.275 1.946,0.414 3.088,0.414 1.039,0 2.012,-0.092 2.92,-0.275 0.906,-0.184 1.859,-0.45 2.858,-0.796 C 8.652,9.915 8.326,8.754 7.796,7.613 7.49,7.735 7.18,7.857 6.864,7.979 6.548,8.102 6.211,8.204 5.855,8.285 5.499,8.366 5.096,8.433 4.647,8.483 4.198,8.534 3.689,8.56 3.119,8.56 2.772,8.56 2.42,8.529 2.065,8.469 1.707,8.407 1.387,8.295 1.102,8.132 0.815,7.97 0.581,7.729 0.398,7.413 0.215,7.098 0.124,6.685 0.124,6.176 0.124,5.768 0.194,5.426 0.337,5.151 0.479,4.876 0.674,4.642 0.918,4.448 1.162,4.255 1.437,4.092 1.743,3.959 2.049,3.826 2.354,3.699 2.661,3.577 L 4.495,2.873 C 5.27,2.568 5.972,2.252 6.604,1.926 7.236,1.6 7.771,1.197 8.209,0.719 c 0.438,-0.48 0.78,-1.061 1.024,-1.743 0.246,-0.683 0.368,-1.525 0.368,-2.522 0,-1.04 -0.189,-1.987 -0.567,-2.843 -0.377,-0.856 -0.922,-1.59 -1.635,-2.202 -0.714,-0.611 -1.594,-1.09 -2.644,-1.436 -1.05,-0.347 -2.258,-0.52 -3.622,-0.52 -0.674,0 -1.275,0.021 -1.805,0.061 -0.53,0.041 -1.034,0.107 -1.513,0.199 -0.478,0.092 -0.954,0.208 -1.422,0.35 -0.469,0.144 -0.958,0.317 -1.466,0.521 0.06,0.591 0.173,1.208 0.335,1.85 0.163,0.642 0.356,1.288 0.581,1.94 0.856,-0.346 1.661,-0.605 2.415,-0.779 0.755,-0.173 1.56,-0.259 2.416,-0.259 1.284,0 2.293,0.239 3.026,0.718 0.735,0.478 1.101,1.207 1.101,2.185 0,0.49 -0.087,0.897 -0.261,1.224 -0.173,0.325 -0.396,0.6 -0.672,0.825 -0.275,0.224 -0.586,0.413 -0.932,0.566 -0.347,0.153 -0.704,0.299 -1.071,0.443 z"
           style="fill:#91268f;fill-opacity:1;fill-rule:nonzero;stroke:none"
           id="path3791" /></g><g
         id="g3793"
         transform="translate(540.626,91.9402)"><path
           d="M 0,0 C 1.142,0 1.962,0.422 2.461,1.268 2.961,2.114 3.21,3.333 3.21,4.921 3.21,6.511 2.961,7.729 2.461,8.575 1.962,9.42 1.142,9.844 0,9.844 -1.12,9.844 -1.931,9.42 -2.431,8.575 -2.93,7.729 -3.179,6.511 -3.179,4.921 -3.179,3.333 -2.93,2.114 -2.431,1.268 -1.931,0.422 -1.12,0 0,0 m 0,-3.302 c -1.283,0 -2.399,0.209 -3.348,0.627 -0.947,0.417 -1.731,0.998 -2.353,1.742 -0.623,0.745 -1.09,1.616 -1.406,2.615 -0.317,0.997 -0.475,2.079 -0.475,3.239 0,1.162 0.158,2.252 0.475,3.272 0.316,1.019 0.783,1.901 1.406,2.644 0.622,0.744 1.406,1.33 2.353,1.758 0.949,0.427 2.065,0.642 3.348,0.642 1.284,0 2.404,-0.215 3.362,-0.642 C 4.321,12.167 5.115,11.581 5.748,10.837 6.379,10.094 6.848,9.212 7.153,8.193 7.46,7.173 7.612,6.083 7.612,4.921 7.612,3.761 7.46,2.679 7.153,1.682 6.848,0.683 6.379,-0.188 5.748,-0.933 5.115,-1.677 4.321,-2.258 3.362,-2.675 2.404,-3.093 1.284,-3.302 0,-3.302"
           style="fill:#91268f;fill-opacity:1;fill-rule:nonzero;stroke:none"
           id="path3795" /></g><g
         id="g3797"
         transform="translate(562.2715,92.7351)"><path
           d="m 0,0 c 0.244,-0.409 0.447,-0.882 0.61,-1.423 0.163,-0.54 0.245,-1.176 0.245,-1.91 -0.816,-0.325 -1.58,-0.535 -2.292,-0.626 -0.714,-0.092 -1.458,-0.138 -2.232,-0.138 -1.325,0 -2.477,0.209 -3.455,0.627 -0.978,0.417 -1.788,0.993 -2.431,1.727 -0.641,0.733 -1.126,1.605 -1.452,2.614 -0.326,1.009 -0.489,2.105 -0.489,3.286 0,1.161 0.158,2.242 0.475,3.241 0.316,0.998 0.794,1.874 1.437,2.629 0.641,0.754 1.44,1.345 2.398,1.773 0.958,0.428 2.069,0.642 3.332,0.642 0.45,0 0.862,-0.01 1.239,-0.03 0.378,-0.021 0.739,-0.062 1.086,-0.123 0.346,-0.061 0.692,-0.143 1.039,-0.244 0.346,-0.102 0.734,-0.235 1.162,-0.398 0,-0.468 -0.062,-0.993 -0.184,-1.574 C 0.366,9.492 0.173,8.937 -0.093,8.407 -0.704,8.61 -1.238,8.747 -1.697,8.819 -2.156,8.891 -2.682,8.927 -3.272,8.927 -4.536,8.927 -5.488,8.515 -6.13,7.688 -6.772,6.863 -7.093,5.687 -7.093,4.157 c 0,-1.65 0.347,-2.854 1.039,-3.607 0.693,-0.754 1.63,-1.131 2.813,-1.131 0.305,0 0.586,0.005 0.841,0.016 0.254,0.009 0.504,0.034 0.749,0.076 0.244,0.04 0.493,0.101 0.748,0.182 C -0.647,-0.225 -0.348,-0.123 0,0"
           style="fill:#91268f;fill-opacity:1;fill-rule:nonzero;stroke:none"
           id="path3799" /></g><g
         id="g3801"
         transform="translate(566.3975,107.4704)"><path
           d="m 0,0 c -0.122,0.693 -0.184,1.375 -0.184,2.049 0,0.65 0.062,1.334 0.184,2.047 0.346,0.061 0.718,0.107 1.115,0.137 0.399,0.032 0.76,0.046 1.086,0.046 0.346,0 0.724,-0.014 1.132,-0.046 C 3.74,4.203 4.117,4.157 4.464,4.096 4.524,3.749 4.565,3.409 4.586,3.072 4.605,2.735 4.617,2.394 4.617,2.049 4.617,1.722 4.605,1.385 4.586,1.04 4.565,0.693 4.524,0.347 4.464,0 4.117,-0.062 3.745,-0.103 3.348,-0.122 2.95,-0.144 2.578,-0.153 2.231,-0.153 1.906,-0.153 1.538,-0.144 1.132,-0.122 0.724,-0.103 0.346,-0.062 0,0 m 0.642,-5.962 h -2.049 c -0.06,0.265 -0.106,0.545 -0.137,0.841 -0.03,0.295 -0.045,0.576 -0.045,0.842 0,0.55 0.06,1.089 0.182,1.619 h 6.299 v -15.806 c -0.734,-0.122 -1.448,-0.183 -2.14,-0.183 -0.674,0 -1.376,0.061 -2.11,0.183 z"
           style="fill:#91268f;fill-opacity:1;fill-rule:nonzero;stroke:none"
           id="path3803" /></g><g
         id="g3805"
         transform="translate(583.4561,96.2507)"><path
           d="m 0,0 c -0.244,0.041 -0.51,0.076 -0.794,0.106 -0.286,0.031 -0.541,0.047 -0.765,0.047 -0.999,0 -1.789,-0.178 -2.37,-0.535 -0.58,-0.356 -0.87,-0.932 -0.87,-1.728 0,-0.531 0.112,-0.938 0.335,-1.222 0.225,-0.286 0.495,-0.495 0.811,-0.627 0.315,-0.133 0.652,-0.215 1.008,-0.245 0.357,-0.03 0.667,-0.046 0.933,-0.046 0.306,0 0.611,0.026 0.918,0.076 0.306,0.051 0.569,0.097 0.794,0.139 z m 0,3.148 c 0,0.489 -0.081,0.887 -0.244,1.194 -0.163,0.304 -0.388,0.545 -0.672,0.718 -0.286,0.171 -0.638,0.291 -1.055,0.351 -0.418,0.062 -0.882,0.092 -1.391,0.092 -1.102,0 -2.273,-0.215 -3.516,-0.643 -0.285,0.531 -0.5,1.03 -0.642,1.499 -0.143,0.469 -0.214,1.029 -0.214,1.681 0.896,0.306 1.793,0.529 2.69,0.672 0.897,0.143 1.732,0.215 2.507,0.215 2.12,0 3.775,-0.509 4.968,-1.53 C 3.623,6.379 4.219,4.748 4.219,2.506 V -6.665 C 3.506,-6.89 2.64,-7.104 1.62,-7.308 0.602,-7.511 -0.55,-7.612 -1.834,-7.612 c -1.04,0 -1.992,0.091 -2.859,0.275 -0.866,0.183 -1.61,0.488 -2.231,0.916 -0.622,0.429 -1.1,0.979 -1.436,1.651 -0.337,0.673 -0.505,1.499 -0.505,2.477 0,0.979 0.208,1.799 0.627,2.461 0.418,0.662 0.958,1.192 1.62,1.59 0.662,0.396 1.401,0.682 2.217,0.855 0.814,0.173 1.63,0.261 2.445,0.261 0.591,0 1.243,-0.031 1.956,-0.093 z"
           style="fill:#91268f;fill-opacity:1;fill-rule:nonzero;stroke:none"
           id="path3807" /></g><g
         id="g3809"
         transform="translate(599.4141,96.2507)"><path
           d="m 0,0 c -0.244,0.041 -0.51,0.076 -0.795,0.106 -0.286,0.031 -0.54,0.047 -0.765,0.047 -0.998,0 -1.788,-0.178 -2.369,-0.535 -0.58,-0.356 -0.87,-0.932 -0.87,-1.728 0,-0.531 0.111,-0.938 0.335,-1.222 0.225,-0.286 0.495,-0.495 0.811,-0.627 0.315,-0.133 0.652,-0.215 1.008,-0.245 0.357,-0.03 0.667,-0.046 0.933,-0.046 0.306,0 0.611,0.026 0.917,0.076 0.307,0.051 0.57,0.097 0.795,0.139 z m 0,3.148 c 0,0.489 -0.082,0.887 -0.244,1.194 -0.163,0.304 -0.388,0.545 -0.673,0.718 -0.286,0.171 -0.637,0.291 -1.054,0.351 -0.418,0.062 -0.882,0.092 -1.391,0.092 -1.102,0 -2.273,-0.215 -3.516,-0.643 -0.285,0.531 -0.5,1.03 -0.642,1.499 -0.143,0.469 -0.214,1.029 -0.214,1.681 0.896,0.306 1.793,0.529 2.689,0.672 0.898,0.143 1.733,0.215 2.508,0.215 2.12,0 3.775,-0.509 4.968,-1.53 C 3.623,6.379 4.219,4.748 4.219,2.506 V -6.665 C 3.506,-6.89 2.639,-7.104 1.62,-7.308 0.602,-7.511 -0.55,-7.612 -1.834,-7.612 c -1.04,0 -1.992,0.091 -2.859,0.275 -0.866,0.183 -1.61,0.488 -2.231,0.916 -0.622,0.429 -1.1,0.979 -1.437,1.651 -0.336,0.673 -0.504,1.499 -0.504,2.477 0,0.979 0.208,1.799 0.627,2.461 0.418,0.662 0.958,1.192 1.62,1.59 0.662,0.396 1.401,0.682 2.216,0.855 0.815,0.173 1.631,0.261 2.446,0.261 0.591,0 1.243,-0.031 1.956,-0.093 z"
           style="fill:#91268f;fill-opacity:1;fill-rule:nonzero;stroke:none"
           id="path3811" /></g><g
         id="g3813"
         transform="translate(607.3623,111.3532)"><path
           d="M 0,0 C 0.734,0.122 1.457,0.184 2.171,0.184 2.864,0.184 3.577,0.122 4.311,0 v -16.051 c 0,-0.632 0.036,-1.14 0.107,-1.528 0.071,-0.387 0.184,-0.689 0.337,-0.901 0.151,-0.215 0.351,-0.363 0.596,-0.445 0.244,-0.081 0.549,-0.122 0.917,-0.122 0.163,0 0.34,0.01 0.534,0.031 0.194,0.02 0.383,0.051 0.566,0.091 0.225,-0.836 0.337,-1.649 0.337,-2.445 v -0.442 c 0,-0.134 -0.021,-0.282 -0.061,-0.445 -0.328,-0.101 -0.72,-0.173 -1.177,-0.214 -0.459,-0.04 -0.882,-0.061 -1.27,-0.061 -1.569,0 -2.828,0.433 -3.775,1.3 C 0.474,-20.366 0,-18.955 0,-16.998 Z"
           style="fill:#91268f;fill-opacity:1;fill-rule:nonzero;stroke:none"
           id="path3815" /></g><g
         id="g3817"
         transform="translate(179.2739,303.7395)"><path
           d="m 0,0 c 0,0 62.266,14.714 96.336,11.035 l 2.097,-77.797 c 0,0 -72.017,-10.165 -96.651,-15.421 l 19.604,45.924 z"
           style="fill:#5d9b35;fill-opacity:1;fill-rule:nonzero;stroke:none"
           id="path3819" /></g><g
         id="g3821"
         transform="translate(277.707,316.8518)"><path
           d="M 0,0 -33.085,-50.948 -50.317,-60.957 0,-79.875 Z"
           style="fill:#79ad36;fill-opacity:1;fill-rule:nonzero;stroke:none"
           id="path3823" /></g><g
         id="g3825"
         transform="translate(657.2139,303.5915)"><path
           d="m 0,0 c 0,0 -62.525,14.774 -96.736,11.08 l -2.104,-78.119 c 0,0 72.315,-10.208 97.051,-15.485 l -19.685,46.115 z"
           style="fill:#5d9b35;fill-opacity:1;fill-rule:nonzero;stroke:none"
           id="path3827" /></g><g
         id="g3829"
         transform="translate(558.374,316.758)"><path
           d="M 0,0 33.223,-51.159 50.527,-61.209 0,-80.206 Z"
           style="fill:#79ad36;fill-opacity:1;fill-rule:nonzero;stroke:none"
           id="path3831" /></g><g
         id="g3833"
         transform="translate(600.8652,333.3288)"><path
           d="m 0,0 c 0,-11.788 -13.283,-22.118 -15.487,-33.257 -2.27,-11.477 6.008,-26.088 1.628,-36.649 -4.455,-10.746 -20.686,-15.206 -27.08,-24.757 -6.443,-9.625 -4.392,-26.312 -12.552,-34.474 -8.16,-8.157 -24.849,-6.109 -34.474,-12.55 -9.551,-6.396 -14.008,-22.624 -24.755,-27.08 -10.558,-4.378 -25.171,3.898 -36.648,1.626 -11.14,-2.202 -21.47,-15.483 -33.257,-15.483 -11.786,0 -22.116,13.281 -33.255,15.483 -11.48,2.272 -26.09,-6.004 -36.651,-1.626 -10.747,4.456 -15.204,20.684 -24.755,27.08 -9.625,6.443 -26.314,4.393 -34.473,12.554 -8.16,8.158 -6.11,24.85 -12.553,34.472 -6.394,9.551 -22.622,14.011 -27.078,24.755 -4.38,10.561 3.898,25.172 1.628,36.649 -2.203,11.141 -15.487,21.469 -15.487,33.257 0,11.787 13.284,22.117 15.487,33.256 2.27,11.479 -6.008,26.09 -1.628,36.651 4.456,10.745 20.686,15.205 27.081,24.756 6.442,9.623 4.392,26.312 12.552,34.472 8.16,8.16 24.848,6.11 34.471,12.552 9.551,6.395 14.01,22.622 24.755,27.078 10.561,4.379 25.173,-3.896 36.651,-1.626 11.139,2.203 21.469,15.485 33.255,15.485 11.787,0 22.117,-13.282 33.257,-15.486 11.479,-2.269 26.09,6.005 36.65,1.627 10.747,-4.455 15.206,-20.684 24.755,-27.078 9.625,-6.444 26.314,-4.393 34.474,-12.553 8.16,-8.159 6.109,-24.849 12.551,-34.473 6.395,-9.551 22.624,-14.011 27.079,-24.756 4.38,-10.562 -3.898,-25.171 -1.628,-36.65 C -13.283,22.115 0,11.787 0,0"
           style="fill:#91268f;fill-opacity:1;fill-rule:nonzero;stroke:none"
           id="path3835" /></g><g
         id="g3837"
         transform="translate(573.3184,333.3293)"><path
           d="m 0,0 c 0,-85.647 -69.431,-155.078 -155.078,-155.078 -85.647,0 -155.077,69.431 -155.077,155.078 0,85.647 69.43,155.078 155.077,155.078 C -69.431,155.078 0,85.647 0,0"
           style="fill:#ffffff;fill-opacity:1;fill-rule:nonzero;stroke:none"
           id="path3839" /></g><g
         id="g3841"
         transform="translate(321.5806,393.3884)"><path
           d="m 0,0 c 5.439,47.145 62.518,19.946 62.518,19.946 0,0 58.245,38.441 62.233,-10.88 2.587,-31.975 -6.782,-79.185 -34.088,-85.184 C 42.792,-86.634 -5.44,-47.145 0,0"
           style="fill:#91268f;fill-opacity:1;fill-rule:nonzero;stroke:none"
           id="path3843" /></g><g
         id="g3845"
         transform="translate(377.999,385.511)"><path
           d="m 0,0 c 0,0 0.312,1.388 0.773,3.794 0.449,2.411 1.04,5.841 1.545,9.938 0.246,2.051 0.437,4.272 0.625,6.606 0.158,2.338 0.227,4.8 0.222,7.33 0.027,2.534 -0.148,5.132 -0.334,7.758 -0.297,2.613 -0.582,5.267 -1.164,7.856 -0.471,2.616 -1.239,5.149 -2.009,7.636 -0.453,1.221 -0.902,2.431 -1.346,3.627 -0.534,1.157 -0.993,2.338 -1.549,3.449 -1.105,2.227 -2.271,4.345 -3.512,6.287 -0.652,0.954 -1.286,1.883 -1.899,2.781 -0.661,0.873 -1.3,1.717 -1.913,2.527 -0.601,0.83 -1.308,1.507 -1.896,2.239 -0.608,0.712 -1.157,1.427 -1.761,2.007 -1.194,1.171 -2.142,2.336 -3.051,3.146 -1.777,1.672 -2.778,2.706 -2.778,2.706 0,0 1.283,-0.579 3.503,-1.727 1.123,-0.555 2.375,-1.401 3.849,-2.345 1.457,-0.964 3.029,-2.176 4.67,-3.592 0.8,-0.739 1.633,-1.508 2.495,-2.304 0.821,-0.841 1.602,-1.775 2.445,-2.707 1.61,-1.923 3.211,-4.057 4.621,-6.431 1.412,-2.37 2.664,-4.947 3.711,-7.654 0.999,-2.72 1.86,-5.55 2.418,-8.433 C 8.27,41.617 8.569,38.698 8.746,35.832 8.846,32.964 8.837,30.141 8.573,27.438 8.375,24.73 7.927,22.146 7.454,19.724 6.99,17.297 6.374,15.045 5.739,12.997 4.495,8.89 3.025,5.628 1.92,3.404 0.801,1.179 0,0 0,0"
           style="fill:#91268f;fill-opacity:1;fill-rule:nonzero;stroke:none"
           id="path3847" /></g><g
         id="g3849"
         transform="translate(384.7148,431.6106)"><path
           d="M 0,0 C 0,0 -8.479,32.962 37.521,33.587 37.521,33.587 31.119,0.675 0,0"
           style="fill:#91268f;fill-opacity:1;fill-rule:nonzero;stroke:none"
           id="path3851" /></g><g
         id="g3853"
         transform="translate(380.0562,429.073)"><path
           d="m 0,0 c 0,0 -7.605,33.175 -48.755,12.605 0,0 20.801,-26.296 48.755,-12.605"
           style="fill:#91268f;fill-opacity:1;fill-rule:nonzero;stroke:none"
           id="path3855" /></g><g
         id="g3857"
         transform="translate(488.0039,302.0139)"><path
           d="m 0,0 c -1.221,0 -2.458,0.077 -3.678,0.227 -21.327,2.63 -40.354,15.803 -50.899,35.238 -9.682,17.844 -10.475,37.834 -2.177,54.846 5.452,11.175 13.317,16.841 23.379,16.841 15.871,0 31.854,-14.327 35.181,-17.483 1.362,0.129 4.275,0.354 8.051,0.354 21.584,0 31.273,-6.696 35.599,-12.315 C 50.209,71.537 51.263,63.274 48.589,53.15 45.038,39.71 38.492,26.553 30.629,17.053 21.396,5.897 10.804,0 0,0"
           style="fill:#b0d235;fill-opacity:1;fill-rule:nonzero;stroke:none"
           id="path3859" /></g><g
         id="g3861"
         transform="translate(454.6318,410.9157)"><path
           d="M 0,0 V -3.5 0 h -0.003 c -13.436,-0.001 -20.984,-9.693 -24.951,-17.824 -8.549,-17.526 -7.744,-38.1 2.211,-56.447 10.813,-19.931 30.336,-33.441 52.223,-36.141 1.291,-0.159 2.601,-0.239 3.892,-0.239 11.343,0 22.4,6.116 31.978,17.687 8.136,9.83 14.636,22.887 18.302,36.766 2.821,10.676 1.664,19.448 -3.437,26.073 -4.567,5.929 -14.69,12.997 -36.986,12.997 -3.221,0 -5.838,-0.162 -7.427,-0.293 C 31.363,-13.326 15.712,0 0,0 m -0.003,-3.5 c 16.934,0.002 34.551,-17.558 34.551,-17.558 0,0 3.543,0.43 8.681,0.43 15.407,0 45.182,-3.853 37.04,-34.677 -6.697,-25.345 -24.647,-51.846 -46.897,-51.846 -1.143,0 -2.298,0.069 -3.464,0.213 -41.793,5.155 -69.593,50.933 -51.717,87.58 5.781,11.848 13.716,15.857 21.806,15.858"
           style="fill:#ffffff;fill-opacity:1;fill-rule:nonzero;stroke:none"
           id="path3863" /></g><g
         id="g3865"
         transform="translate(476.2881,369.0559)"><path
           d="m 0,0 c 0,0 0.599,1.057 1.645,2.906 1.012,1.853 2.417,4.495 3.947,7.688 0.76,1.6 1.52,3.353 2.318,5.191 0.774,1.851 1.506,3.827 2.206,5.872 0.727,2.039 1.309,4.184 1.897,6.351 0.493,2.188 1.014,4.403 1.277,6.647 0.365,2.234 0.466,4.485 0.563,6.699 -0.013,1.108 -0.026,2.207 -0.039,3.292 -0.094,1.081 -0.123,2.16 -0.246,3.211 -0.241,2.103 -0.552,4.141 -0.978,6.062 -0.242,0.957 -0.479,1.888 -0.706,2.788 -0.272,0.897 -0.533,1.764 -0.784,2.596 -0.237,0.845 -0.605,1.596 -0.857,2.362 -0.274,0.754 -0.5,1.495 -0.811,2.143 -0.609,1.298 -1.017,2.527 -1.502,3.455 -0.921,1.887 -1.407,3.034 -1.407,3.034 0,0 0.905,-0.812 2.416,-2.352 0.772,-0.759 1.572,-1.788 2.521,-2.966 0.932,-1.187 1.89,-2.609 2.841,-4.225 0.451,-0.826 0.921,-1.687 1.407,-2.578 0.439,-0.917 0.815,-1.9 1.245,-2.9 0.78,-2.025 1.497,-4.223 1.978,-6.567 0.485,-2.339 0.779,-4.805 0.86,-7.319 0.043,-2.511 -0.069,-5.071 -0.44,-7.587 -0.338,-2.524 -0.935,-4.992 -1.624,-7.379 -0.75,-2.366 -1.581,-4.662 -2.587,-6.782 -0.952,-2.145 -2.081,-4.11 -3.179,-5.936 C 10.871,11.873 9.699,10.232 8.573,8.763 6.344,5.807 4.166,3.616 2.596,2.157 1.015,0.702 0,0 0,0"
           style="fill:#b0d235;fill-opacity:1;fill-rule:nonzero;stroke:none"
           id="path3867" /></g><g
         id="g3869"
         transform="translate(494.9014,404.4909)"><path
           d="M 0,0 C 0,0 2.547,29.131 39.999,16.496 39.999,16.496 25.408,-8.343 0,0"
           style="fill:#8cc63f;fill-opacity:1;fill-rule:nonzero;stroke:none"
           id="path3871" /></g><g
         id="g3873"
         transform="translate(490.4014,403.7663)"><path
           d="m 0,0 c 0,0 3.315,29.054 -35.904,24.143 0,0 9.342,-27.25 35.904,-24.143"
           style="fill:#8cc63f;fill-opacity:1;fill-rule:nonzero;stroke:none"
           id="path3875" /></g><g
         id="g3877"
         transform="translate(418.1758,353.1179)"><path
           d="m 0,0 c -124.464,0 -191.816,-11.873 -191.816,-11.873 v -86.751 c 0,0 46.004,14.581 191.816,14.581 145.813,0 191.817,-14.581 191.817,-14.581 v 85.493 C 191.817,-13.131 124.466,0 0,0"
           style="fill:#8cc63f;fill-opacity:1;fill-rule:nonzero;stroke:none"
           id="path3879" /></g><g
         id="g3881"
         transform="translate(296.5547,337.7683)"><path
           d="m 0,0 c -4.138,-2.501 -8.329,-9.35 -11.877,-17.517 2.87,-0.416 5.966,-1.032 8.796,-2.02 z m -7.635,-48.767 4.083,26.071 c -3.709,1.438 -6.513,1.929 -9.653,2.045 -4.704,-11.861 -7.884,-25.563 -7.487,-32.948 0.122,-2.273 0.747,-3.308 1.207,-3.923 -3.834,-0.207 -9.523,-0.371 -9.92,7.015 -0.343,6.391 3.292,18.267 8.886,29.463 -4.388,-0.521 -7.317,-1.675 -8.11,-4.14 0.356,0.02 0.988,-1.156 1.042,-2.15 0.091,-1.705 -1.627,-2.865 -3.829,-2.984 -2.414,-0.129 -4.475,1.113 -4.623,3.883 -0.26,4.828 5.637,9.062 14.017,9.512 0.994,0.053 2.205,0.047 3.704,-0.014 C -11.756,-5.19 -3.04,4.893 5.268,5.339 6.902,5.426 9.189,5.265 10.932,4.646 L 2.591,-48.218 Z"
           style="fill:#ffffff;fill-opacity:1;fill-rule:nonzero;stroke:none"
           id="path3883" /></g><g
         id="g3885"
         transform="translate(329.0459,315.9763)"><path
           d="M 0,0 C -0.268,5.47 -2.562,5.785 -3.84,5.722 -5.403,5.645 -7.333,4.34 -8.571,2 l -3.214,-20.094 c 0.323,-0.767 1.146,-1.581 2.78,-1.501 C -1.547,-19.229 0.328,-6.677 0,0 M -6.76,12.983 -7.635,7.6 c 1.972,1.877 4.609,3.288 8.16,3.463 C 5.355,11.3 9.328,8.719 9.742,0.266 10.213,-9.324 7.28,-24.99 -6.5,-25.666 c -3.551,-0.176 -5.315,0.948 -6.164,2.261 l -2.842,-17.514 -10.6,-3.084 9.117,56.484 z"
           style="fill:#ffffff;fill-opacity:1;fill-rule:nonzero;stroke:none"
           id="path3887" /></g><g
         id="g3889"
         transform="translate(362.3652,317.4875)"><path
           d="M 0,0 C -0.234,5.471 -2.526,5.799 -3.805,5.745 -5.367,5.678 -7.305,4.384 -8.558,2.053 l -3.339,-20.074 c 0.317,-0.769 1.135,-1.589 2.77,-1.519 C -1.667,-19.22 0.286,-6.68 0,0 M -6.68,13.023 -7.587,7.646 c 1.984,1.865 4.629,3.26 8.182,3.412 4.831,0.207 8.787,-2.399 9.148,-10.855 0.412,-9.591 -2.619,-25.239 -16.403,-25.829 -3.553,-0.153 -5.309,0.982 -6.149,2.298 l -2.951,-17.494 -10.619,-3.017 9.469,56.425 z"
           style="fill:#ffffff;fill-opacity:1;fill-rule:nonzero;stroke:none"
           id="path3891" /></g><g
         id="g3893"
         transform="translate(392.6138,326.0959)"><path
           d="M 0,0 C -3.624,-0.111 -6.873,-7.823 -8.08,-14.902 -2.617,-14.379 2.047,-8.758 1.867,-2.86 1.812,-1.083 1.351,0.041 0,0 m -3.298,-26.991 c 5.614,0.173 8.929,3.404 12.359,7.564 l 2.417,0.074 C 7.627,-26.016 1.789,-32.81 -7.664,-33.1 c -6.681,-0.204 -11.187,2.93 -11.433,10.961 -0.25,8.173 3.845,25.442 18.414,25.889 6.326,0.193 7.918,-3.031 8.026,-6.584 0.251,-8.173 -7.373,-14.738 -15.886,-15.497 -0.041,-0.996 -0.082,-1.994 -0.056,-2.846 0.148,-4.834 1.89,-5.919 5.301,-5.814"
           style="fill:#ffffff;fill-opacity:1;fill-rule:nonzero;stroke:none"
           id="path3895" /></g><g
         id="g3897"
         transform="translate(419.9771,343.7029)"><path
           d="m 0,0 -8.322,-38.369 c -0.217,-0.922 -0.291,-1.634 -0.294,-2.274 -0.007,-1.99 0.916,-2.634 2.906,-2.642 2.774,-0.011 5.343,2.683 6.423,6.234 L 3.7,-37.063 c -4.097,-11.576 -11.143,-13.112 -14.982,-13.099 -4.267,0.017 -7.6,2.589 -7.576,8.563 0.004,1.351 0.224,2.914 0.586,4.619 l 7.744,35.597 z"
           style="fill:#ffffff;fill-opacity:1;fill-rule:nonzero;stroke:none"
           id="path3899" /></g><g
         id="g3901"
         transform="translate(439.3242,340.0656)"><path
           d="m 0,0 -2.795,-11.148 4.265,-0.143 -0.665,-2.824 -4.264,0.143 -5.266,-21.168 c -0.244,-0.917 -0.338,-1.625 -0.36,-2.265 -0.066,-1.99 0.835,-2.66 2.825,-2.727 2.772,-0.094 5.421,2.521 6.608,6.039 l 2.984,-0.101 c -4.439,-11.447 -11.529,-12.774 -15.367,-12.646 -4.264,0.144 -7.518,2.814 -7.318,8.785 0.046,1.35 0.311,2.907 0.725,4.6 l 4.936,19.827 -2.346,0.079 0.664,2.824 2.345,-0.079 2.462,9.736 z"
           style="fill:#ffffff;fill-opacity:1;fill-rule:nonzero;stroke:none"
           id="path3903" /></g><g
         id="g3905"
         transform="translate(449.2266,304.8274)"><path
           d="m 0,0 c -0.272,-5.47 1.996,-5.654 3.274,-5.718 2.061,-0.102 5.151,1.88 6.208,5.957 l 4.211,15.883 c 0.042,0.852 -0.505,2.731 -2.777,2.844 C 4.878,19.268 0.333,6.677 0,0 m 25.679,22.289 -6.32,-23.896 c -0.258,-0.913 -0.365,-1.62 -0.397,-2.26 -0.1,-1.987 0.77,-3.099 2.76,-3.199 2.77,-0.138 4.843,2.891 6.087,6.39 l 2.983,-0.149 c -4.627,-11.377 -11.098,-12.62 -14.933,-12.428 -3.979,0.198 -6.421,2.599 -6.635,6.883 -2.366,-3.158 -5.868,-6.259 -10.911,-6.007 -4.829,0.241 -9.297,3.455 -8.876,11.907 0.479,9.59 7.136,24.568 19.497,23.95 4.048,-0.202 5.675,-1.85 5.572,-3.91 l -0.025,-0.497 0.97,3.726 z"
           style="fill:#ffffff;fill-opacity:1;fill-rule:nonzero;stroke:none"
           id="path3907" /></g><g
         id="g3909"
         transform="translate(486.5752,302.8454)"><path
           d="m 0,0 c -0.328,-5.466 1.938,-5.673 3.216,-5.751 2.059,-0.124 5.169,1.828 6.268,5.894 l 4.37,15.841 c 0.051,0.851 -0.478,2.735 -2.75,2.872 C 5.071,19.217 0.399,6.673 0,0 M 25.901,22.029 19.342,-1.802 c -0.269,-0.91 -0.382,-1.615 -0.421,-2.255 -0.118,-1.987 0.74,-3.107 2.728,-3.227 2.769,-0.165 4.873,2.843 6.151,6.328 l 2.982,-0.179 c -4.741,-11.329 -11.224,-12.507 -15.057,-12.277 -3.977,0.239 -6.397,2.664 -6.567,6.948 -2.396,-3.133 -5.929,-6.198 -10.969,-5.896 -4.827,0.29 -9.263,3.547 -8.756,11.996 0.574,9.584 7.382,24.494 19.735,23.753 4.047,-0.242 5.657,-1.907 5.534,-3.966 l -0.031,-0.497 1.008,3.717 z"
           style="fill:#ffffff;fill-opacity:1;fill-rule:nonzero;stroke:none"
           id="path3911" /></g><g
         id="g3913"
         transform="translate(530.9082,323.6613)"><path
           d="m 0,0 -1.21,-4.339 c 2.623,1.966 5.467,4.06 8.873,3.838 3.193,-0.209 4.724,-2.946 4.548,-5.642 -0.163,-2.484 -1.971,-5.073 -5.448,-4.846 -3.974,0.26 -1.68,4.814 -3.808,4.953 -2.129,0.14 -3.476,-0.841 -5.356,-2.358 l -7.443,-26.59 -10.217,0.668 9.844,34.986 z"
           style="fill:#ffffff;fill-opacity:1;fill-rule:nonzero;stroke:none"
           id="path3915" /></g><g
         id="g3917"
         transform="translate(551.165,298.07)"><path
           d="m 0,0 c -0.271,-0.836 -0.473,-1.677 -0.525,-2.458 -0.103,-1.49 0.392,-2.593 2.307,-2.725 0.496,-0.034 1.277,-0.088 1.859,0.087 -2.407,-5.965 -5.586,-6.601 -7.997,-6.435 -4.965,0.341 -6.855,3.964 -6.542,8.503 0.082,1.207 0.311,2.473 0.682,3.731 l 6.003,20.967 -2.341,0.162 0.764,2.798 2.341,-0.161 2.801,9.643 10.594,0.697 c 0,0 -1.394,-4.75 -3.181,-11.042 l 4.256,-0.292 -0.762,-2.798 -4.256,0.292 z"
           style="fill:#ffffff;fill-opacity:1;fill-rule:nonzero;stroke:none"
           id="path3919" /></g><g
         id="g3921"
         transform="translate(332.5068,255.7859)"><path
           d="M 0,0 C 0.327,0.054 0.666,0.095 1.02,0.123 1.374,0.149 1.727,0.164 2.081,0.164 2.435,0.164 2.789,0.149 3.143,0.123 3.495,0.095 3.835,0.054 4.163,0 v -29.342 c -0.328,-0.054 -0.661,-0.095 -1.001,-0.122 -0.34,-0.027 -0.701,-0.041 -1.081,-0.041 -0.354,0 -0.715,0.014 -1.081,0.041 -0.367,0.027 -0.702,0.068 -1,0.122 z"
           style="fill:#91268f;fill-opacity:1;fill-rule:nonzero;stroke:none"
           id="path3923" /></g><g
         id="g3925"
         transform="translate(343.5254,247.3796)"><path
           d="m 0,0 c 0.299,0.054 0.592,0.095 0.878,0.122 0.285,0.026 0.577,0.04 0.877,0.04 0.298,0 0.577,-0.014 0.836,-0.04 C 2.85,0.095 3.129,0.054 3.428,0 3.51,-0.408 3.591,-0.946 3.673,-1.612 c 0.081,-0.667 0.122,-1.231 0.122,-1.694 0.245,0.49 0.551,0.958 0.918,1.408 0.368,0.449 0.802,0.849 1.307,1.204 0.503,0.353 1.081,0.638 1.734,0.856 0.653,0.219 1.373,0.327 2.163,0.327 1.632,0 2.891,-0.333 3.775,-1 0.883,-0.667 1.557,-1.598 2.02,-2.795 0.272,0.463 0.604,0.924 0.999,1.388 0.395,0.462 0.838,0.869 1.328,1.224 0.489,0.353 1.046,0.638 1.672,0.856 0.626,0.219 1.333,0.327 2.122,0.327 2.421,0 4.184,-0.68 5.285,-2.04 1.103,-1.361 1.653,-3.374 1.653,-6.041 v -13.344 c -0.3,-0.054 -0.639,-0.095 -1.02,-0.122 -0.381,-0.027 -0.722,-0.041 -1.02,-0.041 -0.3,0 -0.633,0.014 -1.001,0.041 -0.367,0.027 -0.7,0.068 -1,0.122 v 12.162 c 0,1.877 -0.285,3.284 -0.855,4.223 -0.573,0.939 -1.511,1.408 -2.817,1.408 -1.388,0 -2.51,-0.503 -3.368,-1.509 -0.856,-1.008 -1.285,-2.491 -1.285,-4.449 v -11.835 c -0.299,-0.054 -0.632,-0.095 -1,-0.122 -0.366,-0.027 -0.7,-0.041 -0.999,-0.041 -0.3,0 -0.633,0.014 -1,0.041 -0.367,0.027 -0.7,0.068 -1,0.122 v 12.447 c 0,1.823 -0.272,3.189 -0.816,4.101 -0.545,0.912 -1.415,1.367 -2.611,1.367 -0.682,0 -1.32,-0.149 -1.918,-0.449 C 6.461,-3.77 5.938,-4.219 5.489,-4.816 5.041,-5.415 4.687,-6.169 4.427,-7.081 4.168,-7.992 4.04,-9.047 4.04,-10.244 v -10.692 c -0.299,-0.054 -0.632,-0.095 -1,-0.122 -0.366,-0.027 -0.701,-0.041 -0.999,-0.041 -0.3,0 -0.64,0.014 -1.021,0.041 -0.381,0.027 -0.721,0.068 -1.02,0.122 z"
           style="fill:#91268f;fill-opacity:1;fill-rule:nonzero;stroke:none"
           id="path3927" /></g><g
         id="g3929"
         transform="translate(382.376,229.8728)"><path
           d="m 0,0 c 0.517,-0.191 1.047,-0.327 1.591,-0.408 0.544,-0.083 1.252,-0.124 2.122,-0.124 0.98,0 1.878,0.157 2.694,0.47 0.817,0.312 1.516,0.795 2.102,1.449 0.584,0.652 1.047,1.475 1.387,2.467 0.341,0.994 0.511,2.17 0.511,3.532 0,2.176 -0.402,3.903 -1.204,5.182 -0.803,1.28 -2.116,1.918 -3.939,1.918 -0.68,0 -1.333,-0.122 -1.959,-0.368 C 2.679,13.874 2.123,13.507 1.633,13.018 1.142,12.527 0.748,11.908 0.449,11.16 0.149,10.412 0,9.521 0,8.487 Z m -4.041,17.507 c 0.272,0.054 0.552,0.095 0.837,0.122 0.286,0.026 0.579,0.04 0.878,0.04 0.271,0 0.557,-0.014 0.857,-0.04 0.299,-0.027 0.585,-0.068 0.857,-0.122 0.026,-0.056 0.061,-0.225 0.101,-0.511 0.041,-0.285 0.082,-0.592 0.124,-0.918 0.04,-0.326 0.081,-0.64 0.122,-0.938 0.04,-0.3 0.06,-0.49 0.06,-0.573 0.273,0.436 0.599,0.858 0.981,1.266 0.38,0.408 0.836,0.775 1.366,1.103 0.531,0.325 1.129,0.585 1.796,0.774 0.666,0.19 1.409,0.286 2.224,0.286 1.224,0 2.36,-0.203 3.407,-0.611 1.047,-0.408 1.945,-1.041 2.694,-1.899 0.749,-0.857 1.333,-1.945 1.755,-3.264 0.422,-1.32 0.633,-2.877 0.633,-4.673 0,-3.592 -0.973,-6.402 -2.919,-8.428 -1.944,-2.027 -4.7,-3.04 -8.263,-3.04 -0.599,0 -1.211,0.041 -1.836,0.122 C 1.006,-3.715 0.462,-3.605 0,-3.47 v -9.591 c -0.327,-0.053 -0.673,-0.094 -1.041,-0.122 -0.367,-0.026 -0.7,-0.04 -1,-0.04 -0.3,0 -0.631,0.014 -0.999,0.04 -0.368,0.028 -0.701,0.069 -1.001,0.122 z"
           style="fill:#91268f;fill-opacity:1;fill-rule:nonzero;stroke:none"
           id="path3931" /></g><g
         id="g3933"
         transform="translate(415.8408,238.9314)"><path
           d="M 0,0 C 0,0.762 -0.102,1.489 -0.307,2.184 -0.511,2.877 -0.81,3.482 -1.205,3.999 -1.6,4.516 -2.103,4.932 -2.714,5.244 -3.326,5.557 -4.055,5.714 -4.897,5.714 -6.558,5.714 -7.83,5.209 -8.713,4.204 -9.598,3.196 -10.135,1.795 -10.325,0 Z m -10.366,-3.02 c 0.054,-2.285 0.646,-3.959 1.775,-5.019 1.128,-1.062 2.796,-1.592 5,-1.592 1.931,0 3.767,0.34 5.508,1.021 0.217,-0.409 0.394,-0.906 0.531,-1.49 0.135,-0.586 0.217,-1.163 0.244,-1.735 -0.898,-0.382 -1.883,-0.666 -2.958,-0.856 -1.074,-0.192 -2.265,-0.287 -3.571,-0.287 -1.904,0 -3.537,0.266 -4.897,0.796 -1.361,0.531 -2.483,1.279 -3.367,2.244 -0.884,0.966 -1.529,2.109 -1.938,3.429 -0.408,1.319 -0.613,2.768 -0.613,4.347 0,1.55 0.197,2.999 0.592,4.346 0.395,1.346 1,2.516 1.817,3.508 0.815,0.994 1.843,1.783 3.081,2.369 1.237,0.585 2.7,0.877 4.387,0.877 1.442,0 2.707,-0.246 3.795,-0.736 C 0.107,7.713 1.02,7.039 1.754,6.183 2.488,5.326 3.046,4.306 3.427,3.122 3.808,1.938 3.998,0.653 3.998,-0.734 3.998,-1.115 3.984,-1.518 3.957,-1.937 3.93,-2.361 3.903,-2.721 3.876,-3.02 Z"
           style="fill:#91268f;fill-opacity:1;fill-rule:nonzero;stroke:none"
           id="path3935" /></g><g
         id="g3937"
         transform="translate(425.1445,247.3796)"><path
           d="m 0,0 c 0.3,0.054 0.585,0.095 0.857,0.122 0.271,0.026 0.557,0.04 0.857,0.04 0.299,0 0.599,-0.014 0.898,-0.04 C 2.91,0.095 3.184,0.054 3.429,0 3.51,-0.408 3.592,-0.946 3.673,-1.612 c 0.081,-0.667 0.122,-1.231 0.122,-1.694 0.572,0.924 1.327,1.727 2.266,2.408 0.938,0.679 2.142,1.02 3.611,1.02 0.218,0 0.442,-0.008 0.673,-0.02 0.232,-0.015 0.429,-0.035 0.592,-0.062 0.054,-0.245 0.095,-0.503 0.123,-0.775 0.026,-0.272 0.041,-0.558 0.041,-0.858 0,-0.325 -0.021,-0.666 -0.062,-1.019 -0.04,-0.355 -0.089,-0.694 -0.143,-1.021 -0.218,0.055 -0.443,0.082 -0.673,0.082 H 9.672 C 8.938,-3.551 8.237,-3.653 7.57,-3.856 6.902,-4.061 6.305,-4.422 5.774,-4.938 5.244,-5.455 4.822,-6.163 4.51,-7.062 4.197,-7.959 4.04,-9.114 4.04,-10.529 v -10.407 c -0.3,-0.054 -0.633,-0.095 -1,-0.122 -0.366,-0.027 -0.7,-0.041 -0.999,-0.041 -0.3,0 -0.633,0.014 -1,0.041 -0.368,0.027 -0.714,0.068 -1.041,0.122 z"
           style="fill:#91268f;fill-opacity:1;fill-rule:nonzero;stroke:none"
           id="path3939" /></g><g
         id="g3941"
         transform="translate(440.6523,251.9909)"><path
           d="m 0,0 c -0.056,0.326 -0.089,0.68 -0.103,1.061 -0.013,0.38 -0.019,0.721 -0.019,1.021 0,0.298 0.006,0.639 0.019,1.02 C -0.089,3.481 -0.056,3.822 0,4.121 0.353,4.176 0.733,4.217 1.142,4.243 1.55,4.271 1.904,4.284 2.204,4.284 2.502,4.284 2.856,4.271 3.265,4.243 3.673,4.217 4.04,4.176 4.366,4.121 4.42,3.822 4.455,3.481 4.468,3.102 4.481,2.721 4.489,2.38 4.489,2.082 4.489,1.782 4.481,1.441 4.468,1.061 4.455,0.68 4.42,0.326 4.366,0 4.04,-0.055 3.679,-0.097 3.285,-0.122 2.891,-0.149 2.543,-0.163 2.244,-0.163 1.918,-0.163 1.55,-0.149 1.142,-0.122 0.733,-0.097 0.353,-0.055 0,0 m 0.897,-7.795 h -2.652 c -0.055,0.217 -0.097,0.469 -0.122,0.755 -0.027,0.286 -0.041,0.564 -0.041,0.836 0,0.272 0.014,0.552 0.041,0.838 0.025,0.285 0.067,0.536 0.122,0.755 h 6.611 v -20.936 c -0.299,-0.055 -0.632,-0.096 -1,-0.122 -0.367,-0.027 -0.7,-0.041 -1,-0.041 -0.272,0 -0.591,0.014 -0.959,0.041 -0.367,0.026 -0.701,0.067 -1,0.122 z"
           style="fill:#91268f;fill-opacity:1;fill-rule:nonzero;stroke:none"
           id="path3943" /></g><g
         id="g3945"
         transform="translate(451.835,247.3796)"><path
           d="m 0,0 c 0.298,0.054 0.639,0.095 1.02,0.122 0.38,0.026 0.707,0.04 0.979,0.04 0.299,0 0.639,-0.014 1.02,-0.04 C 3.4,0.095 3.739,0.054 4.039,0 v -11.468 c 0,-1.305 0.123,-2.387 0.367,-3.245 0.245,-0.856 0.614,-1.53 1.103,-2.019 0.49,-0.491 1.088,-0.83 1.796,-1.021 0.707,-0.191 1.523,-0.286 2.448,-0.286 1.388,0 2.571,0.149 3.551,0.449 V 0 c 0.298,0.054 0.633,0.095 0.999,0.122 0.367,0.026 0.7,0.04 1,0.04 0.3,0 0.633,-0.014 1,-0.04 C 16.671,0.095 17.004,0.054 17.304,0 v -20.283 c -0.954,-0.272 -2.09,-0.53 -3.408,-0.775 -1.322,-0.246 -2.688,-0.368 -4.102,-0.368 -1.334,0 -2.592,0.116 -3.775,0.347 -1.183,0.23 -2.224,0.7 -3.123,1.408 -0.897,0.707 -1.605,1.7 -2.122,2.979 C 0.258,-15.413 0,-13.728 0,-11.632 Z"
           style="fill:#91268f;fill-opacity:1;fill-rule:nonzero;stroke:none"
           id="path3947" /></g><g
         id="g3949"
         transform="translate(475.5029,247.3796)"><path
           d="m 0,0 c 0.3,0.054 0.593,0.095 0.879,0.122 0.284,0.026 0.577,0.04 0.877,0.04 0.298,0 0.577,-0.014 0.836,-0.04 C 2.851,0.095 3.129,0.054 3.429,0 c 0.082,-0.408 0.163,-0.946 0.244,-1.612 0.082,-0.667 0.122,-1.231 0.122,-1.694 0.246,0.49 0.552,0.958 0.919,1.408 0.368,0.449 0.802,0.849 1.307,1.204 0.502,0.353 1.081,0.638 1.733,0.856 0.654,0.219 1.374,0.327 2.164,0.327 1.631,0 2.891,-0.333 3.774,-1 0.884,-0.667 1.557,-1.598 2.021,-2.795 0.271,0.463 0.604,0.924 0.999,1.388 0.394,0.462 0.838,0.869 1.327,1.224 0.489,0.353 1.047,0.638 1.672,0.856 0.627,0.219 1.334,0.327 2.123,0.327 2.421,0 4.184,-0.68 5.285,-2.04 1.103,-1.361 1.652,-3.374 1.652,-6.041 v -13.344 c -0.299,-0.054 -0.638,-0.095 -1.02,-0.122 -0.381,-0.027 -0.721,-0.041 -1.02,-0.041 -0.299,0 -0.632,0.014 -1,0.041 -0.368,0.027 -0.701,0.068 -1.001,0.122 v 12.162 c 0,1.877 -0.284,3.284 -0.855,4.223 -0.572,0.939 -1.511,1.408 -2.816,1.408 -1.388,0 -2.511,-0.503 -3.368,-1.509 -0.856,-1.008 -1.285,-2.491 -1.285,-4.449 v -11.835 c -0.3,-0.054 -0.633,-0.095 -1,-0.122 -0.367,-0.027 -0.701,-0.041 -0.999,-0.041 -0.3,0 -0.633,0.014 -1.001,0.041 -0.367,0.027 -0.7,0.068 -1,0.122 v 12.447 c 0,1.823 -0.271,3.189 -0.815,4.101 -0.545,0.912 -1.415,1.367 -2.612,1.367 -0.681,0 -1.32,-0.149 -1.917,-0.449 C 6.462,-3.77 5.938,-4.219 5.49,-4.816 5.041,-5.415 4.687,-6.169 4.428,-7.081 4.169,-7.992 4.041,-9.047 4.041,-10.244 v -10.692 c -0.3,-0.054 -0.633,-0.095 -1,-0.122 -0.367,-0.027 -0.701,-0.041 -0.999,-0.041 -0.3,0 -0.641,0.014 -1.021,0.041 C 0.64,-21.031 0.3,-20.99 0,-20.936 Z"
           style="fill:#91268f;fill-opacity:1;fill-rule:nonzero;stroke:none"
           id="path3951" /></g></g></g></svg>
