<?xml version="1.0" encoding="UTF-8" standalone="no"?>
<!-- Created with Inkscape (http://www.inkscape.org/) -->

<svg
   width="276.05856mm"
   height="183.90494mm"
   viewBox="0 0 276.05856 183.90494"
   version="1.1"
   id="svg1742"
   xml:space="preserve"
   inkscape:version="1.2 (dc2aedaf03, 2022-05-15)"
   sodipodi:docname="houtstek2.svg"
   xmlns:inkscape="http://www.inkscape.org/namespaces/inkscape"
   xmlns:sodipodi="http://sodipodi.sourceforge.net/DTD/sodipodi-0.dtd"
   xmlns="http://www.w3.org/2000/svg"
   xmlns:svg="http://www.w3.org/2000/svg"><sodipodi:namedview
     id="namedview1744"
     pagecolor="#ffffff"
     bordercolor="#666666"
     borderopacity="1.0"
     inkscape:showpageshadow="2"
     inkscape:pageopacity="0.0"
     inkscape:pagecheckerboard="0"
     inkscape:deskcolor="#d1d1d1"
     inkscape:document-units="mm"
     showgrid="false"
     inkscape:zoom="0.72515432"
     inkscape:cx="473.00277"
     inkscape:cy="554.36476"
     inkscape:window-width="1920"
     inkscape:window-height="1017"
     inkscape:window-x="-8"
     inkscape:window-y="-8"
     inkscape:window-maximized="1"
     inkscape:current-layer="layer1" /><defs
     id="defs1739" /><g
     inkscape:label="Laag 1"
     inkscape:groupmode="layer"
     id="layer1"
     transform="translate(20.177936,-1.8177996)"><g
       id="g1906"
       transform="matrix(0.26458333,0,0,0.26458333,-25.031717,-49.199475)"><g
         transform="matrix(1.33,0,0,-1.33,782.2,549.2)"
         clip-path="url(#a)"
         id="g1751"><clipPath
           id="a"><path
             transform="translate(-580.2,-263.5)"
             d="M 0,542.2 H 798.1 V 0 H 0 Z"
             stroke-linecap="round"
             id="path1746" /></clipPath><path
           vector-effect="non-scaling-stroke"
           d="m -69.5,0 a 69.5,69.5 0 1 0 139,0 69.5,69.5 0 0 0 -139,0"
           fill="#745a33"
           id="path1749" /></g><g
         transform="matrix(1.33,0,0,-1.33,680,375.5)"
         clip-path="url(#b)"
         id="g1758"><clipPath
           id="b"><path
             transform="translate(-503.5,-393.7)"
             d="M 0,542.2 H 798.1 V 0 H 0 Z"
             stroke-linecap="round"
             id="path1753" /></clipPath><path
           vector-effect="non-scaling-stroke"
           d="m 60.2,109.8 c -0.9,8.6 -92.1,-15 -111.9,-66.2 -17.5,-45.4 -7.5,-90.8 24.5,-155.2 0,0 -12.7,52.5 16.4,111.3 29.2,59 72.4,96.5 71,110.1"
           fill="#745a33"
           id="path1756" /></g><g
         transform="matrix(1.33,0,0,-1.33,494.2,456)"
         clip-path="url(#c)"
         id="g1765"><clipPath
           id="c"><path
             transform="translate(-364.2,-333.4)"
             d="M 0,542.2 H 798.1 V 0 H 0 Z"
             stroke-linecap="round"
             id="path1760" /></clipPath><path
           vector-effect="non-scaling-stroke"
           d="M -2.6,-66.7 C -58.1,8 -77,119.6 -63.3,171.9 c 0,0 23,14 60.7,20.9 37.6,6.8 69,7.5 72.4,-2.4 3.2,-9.9 1.8,-18.3 -5.7,-30 C 56.6,148.5 3,61.5 27,-21.7 c 24,-83.2 106.2,-148 157,-176.3 0,0 -168.3,58.8 -247.8,109 -79.4,50.4 -180,134 -75.2,223 0,0 -42.5,-92.5 67.3,-163.7 52.5,-34.1 69,-37.1 69,-37.1"
           fill="#745a33"
           id="path1763" /></g><g
         transform="matrix(1.33,0,0,-1.33,436.7,564)"
         clip-path="url(#d)"
         id="g1772"><clipPath
           id="d"><path
             transform="translate(-321.1,-252.3)"
             d="M 0,542.2 H 798.1 V 0 H 0 Z"
             stroke-linecap="round"
             id="path1767" /></clipPath><path
           vector-effect="non-scaling-stroke"
           d="m -163.1,112.6 c 7,-98.7 127.4,-165.5 332.4,-225.2 0,0 -167.4,9.9 -257.2,62 -89.8,52.2 -87.4,128 -75.2,163.2"
           fill="#745a33"
           id="path1770" /></g><g
         transform="matrix(1.33,0,0,-1.33,62.9,832.7)"
         clip-path="url(#e)"
         id="g1779"><clipPath
           id="e"><path
             transform="translate(-40.7,-50.8)"
             d="M 0,542.2 H 798.1 V 0 H 0 Z"
             stroke-linecap="round"
             id="path1774" /></clipPath><path
           vector-effect="non-scaling-stroke"
           d="m -12,41.4 h 3.2 A 52,52 0 0 0 13,37.8 c 8,-3.7 13.8,-9.7 17.4,-18.1 2,-5.8 3.1,-11.6 3.1,-17.5 v -3 a 42,42 0 0 0 -14,-33.3 35,35 0 0 0 -21.1,-7.3 h -10.5 v 16.7 h 7.5 c 10.7,0 17,6.6 18.9,20 0.2,1.1 0.3,2.6 0.3,4.4 V 1 c 0,11.4 -3.9,18.7 -11.6,22 -2.6,1.1 -5.5,1.7 -8.7,1.7 H -12 Z m -19.4,0 h 16.7 v -82.8 h -17 c -1.2,0.3 -1.8,0.9 -1.8,1.8 v 79 c 0,1 0.7,1.7 2,2"
           fill="#745a33"
           id="path1777" /></g><g
         transform="matrix(1.33,0,0,-1.33,160,832.7)"
         clip-path="url(#f)"
         id="g1786"><clipPath
           id="f"><path
             transform="translate(-113.5,-50.8)"
             d="M 0,542.2 H 798.1 V 0 H 0 Z"
             stroke-linecap="round"
             id="path1781" /></clipPath><path
           vector-effect="non-scaling-stroke"
           d="M -9.5,-24.7 H 29 c 1.2,-0.3 1.9,-1 1.9,-2 v -13 c -0.3,-1.1 -0.9,-1.7 -1.8,-1.7 H -9.5 Z m 0,33.5 H 27 c 1.3,-0.3 2,-1 2,-2 V -6 C 28.6,-7.2 28,-7.9 27,-7.9 H -9.5 Z m 0,32.6 H 27 c 1.3,-0.3 2,-1 2,-2 V 26.6 c 0,-1 -0.8,-1.6 -2.2,-2 H -9.5 Z m -19.3,0 h 16.7 V -41.4 H -29 c -1,0 -1.6,0.7 -1.9,2 V 39 c 0.3,1.6 1,2.4 2,2.4"
           fill="#745a33"
           id="path1784" /></g><g
         transform="matrix(1.33,0,0,-1.33,313.6,832.7)"
         clip-path="url(#g)"
         id="g1793"><clipPath
           id="g"><path
             transform="translate(-228.8,-50.8)"
             d="M 0,542.2 H 798.1 V 0 H 0 Z"
             stroke-linecap="round"
             id="path1788" /></clipPath><path
           vector-effect="non-scaling-stroke"
           d="m 15.6,41.4 h 14.6 c 1.3,-0.3 2,-1 2,-2 v -79 c -0.2,-1.2 -0.8,-1.8 -1.7,-1.8 H 15.3 c -1.2,0.3 -1.8,0.9 -1.8,1.8 v 32 H 1.3 V 10 h 12.2 v 29.5 c 0,1 0.7,1.6 2,1.9 m -45.7,0 h 14.6 c 1.4,0 2.1,-1 2.3,-2.8 V 10 H -1.4 V -7.6 h -12 v -31 c 0,-1.8 -0.6,-2.8 -1.9,-2.8 h -15 c -1.3,0.3 -2,1 -2,2 v 78.9 c 0,1 0.8,1.6 2.1,1.9"
           fill="#745a33"
           id="path1791" /></g><g
         transform="matrix(1.33,0,0,-1.33,418,832.7)"
         clip-path="url(#h)"
         id="g1800"><clipPath
           id="h"><path
             transform="translate(-307,-50.8)"
             d="M 0,542.2 H 798.1 V 0 H 0 Z"
             stroke-linecap="round"
             id="path1795" /></clipPath><path
           vector-effect="non-scaling-stroke"
           d="M 1.9,41.4 C 9.5,41.4 16.6,39 23.3,34.1 32.4,26.4 37,15.1 37,0.1 37,-13.9 32.6,-25 23.9,-33.1 A 34,34 0 0 0 2.2,-41.2 H 1.9 v 16.6 H 2 c 4,0 7.8,2 11.3,6.1 a 31,31 0 0 1 4.8,17.6 V 1.6 C 17.7,13 14,20.1 7.4,23.2 5.7,24.1 3.8,24.6 1.9,24.7 Z m -2.7,0 V 25 c 0,-0.2 -0.1,-0.3 -0.3,-0.3 h -0.3 c -6.2,0 -11,-3.2 -14.3,-9.7 A 34.6,34.6 0 0 1 -18.4,1.3 v -1.6 c 0,-11.5 3.7,-19.2 11.2,-23 a 18,18 0 0 1 6.4,-1.4 v -16.7 c -14,0 -24.4,6 -31.1,18.2 -3.4,6.5 -5.1,13.8 -5.1,22.2 v 2.2 c 0,18 6.7,30.3 20.2,37 5.2,2.2 10.5,3.2 16,3.2"
           fill="#745a33"
           id="path1798" /></g><g
         transform="matrix(1.33,0,0,-1.33,523.7,832.7)"
         clip-path="url(#i)"
         id="g1807"><clipPath
           id="i"><path
             transform="translate(-386.3,-50.8)"
             d="M 0,542.2 H 798.1 V 0 H 0 Z"
             stroke-linecap="round"
             id="path1802" /></clipPath><path
           vector-effect="non-scaling-stroke"
           d="m 15.8,41.4 h 14.7 c 1,0 1.6,-0.7 2,-2 V -6.2 c 0,-10.2 -2,-17.8 -5.7,-22.8 -3,-4.8 -8.1,-8.4 -15.3,-10.9 -3.8,-1 -7,-1.4 -9.6,-1.4 v 16.8 c 2.7,0 5.3,1.3 8,3.9 2.7,3 4,7.7 4,14.1 v 45.9 c 0.3,1.3 1,1.9 1.9,1.9 m -46.3,0 h 14.7 c 1,0 1.6,-0.7 2,-2 V -8.4 c 0,-8.6 2.8,-13.8 8.6,-15.7 1.4,-0.4 2.8,-0.6 4.2,-0.6 h 0.3 v -16.8 c -15.2,0 -25,6.2 -29.7,18.5 -1.4,3.9 -2,8.3 -2,13.4 v 49 c 0.3,1.3 0.9,1.9 1.9,1.9"
           fill="#745a33"
           id="path1805" /></g><g
         transform="matrix(1.33,0,0,-1.33,622.4,832.7)"
         clip-path="url(#j)"
         id="g1814"><clipPath
           id="j"><path
             transform="translate(-460.4,-50.8)"
             d="M 0,542.2 H 798.1 V 0 H 0 Z"
             stroke-linecap="round"
             id="path1809" /></clipPath><path
           vector-effect="non-scaling-stroke"
           d="M -9.5,22.6 H 9.4 v -62 c -0.3,-1.3 -1,-2 -2.1,-2 H -7.1 c -1.6,0.2 -2.4,1 -2.4,2.4 z m -21,18.8 h 60.9 c 1,0 1.6,-0.7 2,-2 V 26.7 c 0,-0.5 -0.3,-1 -0.8,-1.5 h -63.2 c -0.3,0 -0.5,0.5 -0.7,1.4 v 13 c 0.2,1.1 0.8,1.7 1.8,1.7"
           fill="#745a33"
           id="path1812" /></g><g
         transform="matrix(1.33,0,0,-1.33,721.4,832.8)"
         clip-path="url(#k)"
         id="g1821"><clipPath
           id="k"><path
             transform="translate(-534.6,-50.7)"
             d="M 0,542.2 H 798.1 V 0 H 0 Z"
             stroke-linecap="round"
             id="path1816" /></clipPath><path
           vector-effect="non-scaling-stroke"
           d="m 2,9.9 h 0.2 c 8,-1.7 14,-3.5 18.2,-5.4 A 20.7,20.7 0 0 0 32.8,-15 v -2.5 c 0,-6.3 -2.4,-11.7 -7,-16.3 A 35,35 0 0 0 2,-41.3 v 16 c 5.3,0 9,1.3 11.3,4 a 10,10 0 0 1 1,4.1 c 0,4.5 -4,7.5 -12.3,9 z m 0,31.4 h 0.7 c 13.6,0 22.3,-4.6 26.2,-13.8 1.3,-3.2 2,-5.5 2,-7 -0.6,-1.1 -1.2,-1.7 -2,-1.7 -1.9,-0.3 -5.6,-0.4 -11.2,-0.4 -3.6,0 -5.3,0.3 -5.3,1 L 10,23 c -2.4,2 -5,3 -8,3 z m -3,0 h 0.4 V 26 h -0.1 c -6,0 -9.4,-1.9 -10.3,-5.5 a 21,21 0 0 1 -0.2,-1.7 c 0,-3.3 2.2,-5.6 6.6,-7 2.6,-0.7 4,-1.2 4,-1.3 V -7.4 c -7.3,1.6 -13,3.3 -17,5 l -3.8,2.6 c -5.4,4.2 -8,9.8 -8,16.7 v 2.5 c 0,8.7 4.4,15.2 13.3,19.3 4.7,1.8 9.7,2.7 15,2.7 m -18.3,-57.5 c 3.6,0 5.4,-0.5 5.4,-1.4 1.6,-3.3 3.6,-5.4 6.1,-6.3 2.7,-1 5.2,-1.5 7.3,-1.5 v -16 h -0.6 c -14.2,0 -23.9,5 -29,15 a 22.4,22.4 0 0 0 -2.6,7.7 v 0.3 c 0,1.3 1.3,2 4,2 l 9.4,0.2"
           fill="#745a33"
           id="path1819" /></g><g
         transform="matrix(1.33,0,0,-1.33,820.3,832.7)"
         clip-path="url(#l)"
         id="g1828"><clipPath
           id="l"><path
             transform="translate(-608.8,-50.8)"
             d="M 0,542.2 H 798.1 V 0 H 0 Z"
             stroke-linecap="round"
             id="path1823" /></clipPath><path
           vector-effect="non-scaling-stroke"
           d="M -9.5,22.6 H 9.4 v -62 c -0.3,-1.3 -1,-2 -2.1,-2 H -7.1 c -1.6,0.2 -2.4,1 -2.4,2.4 z m -21,18.8 h 60.9 c 1,0 1.6,-0.7 2,-2 V 26.7 c 0,-0.5 -0.3,-1 -0.8,-1.5 h -63.2 c -0.3,0 -0.5,0.5 -0.7,1.4 v 13 c 0.2,1.1 0.8,1.7 1.8,1.7"
           fill="#745a33"
           id="path1826" /></g><g
         transform="matrix(1.33,0,0,-1.33,915.4,832.7)"
         clip-path="url(#m)"
         id="g1835"><clipPath
           id="m"><path
             transform="translate(-680.1,-50.8)"
             d="M 0,542.2 H 798.1 V 0 H 0 Z"
             stroke-linecap="round"
             id="path1830" /></clipPath><path
           vector-effect="non-scaling-stroke"
           d="M -9.5,-24.7 H 29 c 1.2,-0.3 1.9,-1 1.9,-2 v -13 c -0.3,-1.1 -0.9,-1.7 -1.8,-1.7 H -9.5 Z m 0,33.5 H 27 c 1.3,-0.3 2,-1 2,-2 V -6 C 28.6,-7.2 28,-7.9 27,-7.9 H -9.5 Z m 0,32.6 H 27 c 1.3,-0.3 2,-1 2,-2 V 26.6 c 0,-1 -0.8,-1.6 -2.2,-2 H -9.5 Z m -19.3,0 h 16.7 V -41.4 H -29 c -1,0 -1.6,0.7 -1.9,2 V 39 c 0.3,1.6 1,2.4 2,2.4"
           fill="#745a33"
           id="path1833" /></g><g
         transform="matrix(1.33,0,0,-1.33,1014.9,832.7)"
         clip-path="url(#n)"
         id="g1842"><clipPath
           id="n"><path
             transform="translate(-754.7,-50.8)"
             d="M 0,542.2 H 798.1 V 0 H 0 Z"
             stroke-linecap="round"
             id="path1837" /></clipPath><path
           vector-effect="non-scaling-stroke"
           d="m 4.4,4.3 c 20.5,-28.5 30.8,-42.8 30.8,-43 v -1 c 0,-0.8 -0.6,-1.4 -2,-1.7 H 16 c -1,0 -2.2,1.1 -3.5,3.4 L -8.4,-8.3 v 0.1 c 3,3 7.2,7.2 12.8,12.5 m 9,37.1 h 17.5 c 1.3,-0.3 2,-1 2,-2 A 475.7,475.7 0 0 0 1.4,5.2 405,405 0 0 0 -13.7,-9.3 V 11.8 C -8,18.6 0.8,28.3 12.4,41.1 l 1,0.3 m -29.7,-57.2 v -23.5 c 0,-1.2 -0.8,-1.9 -2.4,-2 h -14.1 c -1.6,0.1 -2.4,0.9 -2.4,2.3 v 4.3 a 705,705 0 0 0 19,19 m -17,57.1 h 15 c 1.2,-0.3 1.9,-1 1.9,-2 V -12 c -12,-11.8 -18.4,-17.9 -19,-18.3 v 69.7 c 0.4,1.4 1,2.1 2,2.1"
           fill="#745a33"
           id="path1840" /></g></g></g></svg>
