<?xml version="1.0" encoding="UTF-8" standalone="no"?>
<!-- Created with Inkscape (http://www.inkscape.org/) -->

<svg
   width="847.80438mm"
   height="473.92166mm"
   viewBox="0 0 847.80438 473.92166"
   version="1.1"
   id="svg302"
   xml:space="preserve"
   inkscape:version="1.2 (dc2aedaf03, 2022-05-15)"
   sodipodi:docname="print_en_pixels2.svg"
   xmlns:inkscape="http://www.inkscape.org/namespaces/inkscape"
   xmlns:sodipodi="http://sodipodi.sourceforge.net/DTD/sodipodi-0.dtd"
   xmlns="http://www.w3.org/2000/svg"
   xmlns:svg="http://www.w3.org/2000/svg"><sodipodi:namedview
     id="namedview304"
     pagecolor="#ffffff"
     bordercolor="#666666"
     borderopacity="1.0"
     inkscape:showpageshadow="2"
     inkscape:pageopacity="0.0"
     inkscape:pagecheckerboard="0"
     inkscape:deskcolor="#d1d1d1"
     inkscape:document-units="mm"
     showgrid="false"
     inkscape:zoom="0.12819038"
     inkscape:cx="-756.68702"
     inkscape:cy="1895.618"
     inkscape:window-width="1920"
     inkscape:window-height="1017"
     inkscape:window-x="-8"
     inkscape:window-y="-8"
     inkscape:window-maximized="1"
     inkscape:current-layer="layer1" /><defs
     id="defs299" /><g
     inkscape:label="Laag 1"
     inkscape:groupmode="layer"
     id="layer1"
     transform="translate(277.59138,120.20407)"><g
       id="Layer 1"
       transform="matrix(0.26458333,0,0,0.26458333,-368.79325,-199.26157)"><g
         id="g405"><g
           id="&lt;Group&gt;"><path
             id="&lt;Compound Path&gt;"
             class="s0"
             d="m 1425.1,1972.9 c 0,-10.5 -0.2,-21.2 -0.9,-31.5 h 9.7 l 0.4,21.3 h 0.7 c 4.6,-13.4 15.5,-23.7 29.8,-23.7 1.5,0 3,0.2 4.4,0.4 v 9.9 c -1.6,-0.2 -3.1,-0.2 -5.1,-0.2 -14.5,0 -24.8,12.5 -27.6,29.4 -0.7,3 -0.9,6.5 -0.9,10 v 58.1 h -10.5 z" /><path
             id="path311"
             fill-rule="evenodd"
             class="s0"
             d="m 1535.8,2049 c -27.2,0 -48.3,-21.2 -48.3,-54.1 0,-36 23.7,-55.9 49.8,-55.9 29.1,0 48.9,21.9 48.9,54.1 0,39 -27,55.9 -50.2,55.9 z m 0.6,-8.8 c 22,0 39.3,-19.7 39.3,-46.6 0,-19.3 -10.8,-45.8 -38.6,-45.8 -27,0 -39,23.9 -39,46.4 0,26.3 16.6,46 38.1,46 z" /><path
             id="path313"
             fill-rule="evenodd"
             class="s0"
             d="m 1687.2,2021.6 c 0,8.4 0.2,16.9 1.5,25 h -9.6 l -1.6,-15.1 h -0.4 c -5.3,8.1 -16.9,17.5 -33.8,17.5 -21.2,0 -30.9,-14.9 -30.9,-28.9 0,-24.4 21.3,-39 64.3,-38.6 v -2.8 c 0,-10.3 -2,-31.1 -27,-30.9 -9.2,0 -18.9,2.4 -26.5,7.9 l -3.3,-7.7 c 9.6,-6.4 21.5,-9 30.9,-9 30.5,0 36.4,22.8 36.4,41.4 z m -10.5,-31.3 c -23.1,-0.6 -53.3,2.9 -53.3,28.1 0,15.1 10.1,21.9 21,21.9 17.6,0 27.6,-10.8 31.2,-21.1 0.8,-2.1 1.1,-4.6 1.1,-6.3 z" /><path
             id="path315"
             fill-rule="evenodd"
             class="s0"
             d="m 1813.8,1890.8 v 131.5 c 0,7.7 0.2,16.9 0.9,24.3 h -9.4 l -0.9,-19.9 h -0.4 c -5.5,11.6 -18,22.3 -37.5,22.3 -26.1,0 -45.4,-21.7 -45.4,-53 -0.2,-35.1 21.5,-57 47.4,-57 18.2,0 29.8,9.4 34.4,18.6 h 0.4 v -66.8 z m -10.5,92.2 c 0,-2.8 -0.2,-6.5 -1.1,-9.6 -3.5,-14 -16,-25.6 -33.1,-25.6 -23,0 -37.5,19.9 -37.5,47.1 0,23.6 11.9,45.3 36.8,45.3 15.2,0 29.4,-10 33.8,-27.4 0.9,-2.6 1.1,-5.4 1.1,-8.7 z" /><path
             id="path317"
             class="s0"
             d="m 1853.5,2032.8 c 5.7,3.5 14.2,7.2 23.6,7.2 16.7,0 24.6,-8.9 24.6,-19.9 0,-11.6 -7,-17.8 -22.2,-23.9 -17.3,-6.6 -26.7,-16 -26.7,-28.7 0,-15.3 12.1,-28.5 32.4,-28.5 9.7,0 18,2.9 23.3,6.6 l -4,8.5 c -3.7,-2.6 -10.5,-6.3 -21,-6.3 -13.4,0 -20.4,8.5 -20.4,18.1 0,11 7.5,15.6 21.7,21.5 17.1,6.8 27.2,15.4 27.2,31.4 0,17.9 -14,30 -35.5,30 -10.1,0 -19.7,-2.9 -26.8,-7.2 z" /><path
             id="path319"
             fill-rule="evenodd"
             class="s0"
             d="m 1945,1975.4 c 0,-14.1 -0.4,-25.4 -0.8,-35.5 h 23.6 l 1.4,16.4 h 0.4 c 7.9,-12 20.4,-18.9 36.6,-18.9 24.5,0 44.9,21.1 44.9,54.4 0,38.6 -24.3,57.2 -48.6,57.2 -13.4,0 -24.6,-5.7 -30.1,-14.2 h -0.4 v 55.2 h -27 z m 27,26.6 c 0,2.6 0.2,5 0.7,7.4 2.8,10.9 12.2,18.9 23.8,18.9 17.1,0 27.2,-14.3 27.2,-35.3 0,-18.9 -9.2,-34.2 -26.5,-34.2 -11.1,0 -21.4,8.1 -24.3,19.9 -0.5,2.2 -0.9,4.6 -0.9,6.8 z" /><path
             id="path321"
             class="s0"
             d="m 2082,1974.3 c 0,-14.5 -0.2,-25 -0.9,-34.4 h 23.3 l 1.1,20.1 h 0.6 c 5.3,-14.9 17.8,-22.6 29.4,-22.6 2.6,0 4.1,0.3 6.3,0.7 v 25.2 c -2.4,-0.4 -4.8,-0.6 -8.1,-0.6 -12.7,0 -21.7,8.1 -24.1,20.3 -0.4,2.5 -0.6,5.3 -0.6,8.2 v 55.4 h -27 z" /><path
             id="path323"
             class="s0"
             d="m 2182.1,1924.5 c -9,0 -14.9,-6.6 -14.9,-14.4 0,-8.4 6.2,-14.7 15.2,-14.7 9.2,0 14.9,6.3 15.1,14.7 0,7.8 -5.9,14.4 -15.1,14.4 z m -13.4,122.1 v -106.7 h 26.9 v 106.7 z" /><path
             id="path325"
             class="s0"
             d="m 2233.6,1971.7 c 0,-12.3 -0.4,-22.6 -0.8,-31.8 h 23.4 l 1.3,16 h 0.7 c 4.8,-8.3 16.4,-18.5 34.2,-18.5 18.6,0 37.9,12.1 37.9,45.9 v 63.3 h -27 v -60.3 c 0,-15.3 -5.7,-26.9 -20.4,-26.9 -10.7,0 -18.2,7.6 -21,15.8 -0.9,2.2 -1.3,5.4 -1.3,8.5 v 62.9 h -27 z" /><path
             id="path327"
             class="s0"
             d="m 2397.5,1912.5 v 27.4 h 25.7 v 20.1 h -25.7 v 46.9 c 0,13.2 3.6,19.8 13.8,19.8 4.9,0 7.5,-0.2 10.6,-1.1 l 0.4,20.3 c -3.9,1.6 -11.2,2.9 -19.5,2.9 -10.1,0 -18.2,-3.3 -23.2,-8.8 -5.9,-6.1 -8.6,-15.9 -8.6,-30 v -50 h -15.1 v -20.1 h 15.1 v -20 z" /><path
             id="path329"
             fill-rule="evenodd"
             class="s0"
             d="m 2470.1,2000.8 c 0.6,19.3 15.8,27.6 32.9,27.6 12.4,0 21.2,-1.9 29.6,-4.8 l 3.9,18.4 c -9.2,3.9 -21.9,6.8 -37.3,6.8 -34.6,0 -55,-21.2 -55,-53.9 0,-29.6 18,-57.5 52.2,-57.5 34.6,0 46,28.5 46,52 0,5.1 -0.4,9 -0.9,11.4 z M 2517,1982 c 0.2,-9.9 -4.1,-26.1 -22.1,-26.1 -16.7,0 -23.7,15.1 -24.8,26.1 z" /><path
             id="path331"
             class="s0"
             d="m 2572.8,1971.7 c 0,-12.3 -0.4,-22.6 -0.8,-31.8 h 23.4 l 1.3,16 h 0.7 c 4.8,-8.3 16.4,-18.5 34.2,-18.5 18.6,0 37.9,12.1 37.9,45.9 v 63.3 h -27 v -60.3 c 0,-15.3 -5.7,-26.9 -20.4,-26.9 -10.7,0 -18.1,7.6 -21,15.8 -0.9,2.2 -1.3,5.4 -1.3,8.5 v 62.9 h -27 z" /><path
             id="path333"
             fill-rule="evenodd"
             class="s0"
             d="m 2706.9,1975.4 c 0,-14.1 -0.4,-25.4 -0.8,-35.5 h 23.6 l 1.3,16.4 h 0.5 c 7.9,-12 20.3,-18.9 36.6,-18.9 24.5,0 44.9,21.1 44.9,54.4 0,38.6 -24.3,57.2 -48.7,57.2 -13.3,0 -24.5,-5.7 -30,-14.2 h -0.4 v 55.2 h -27 z m 27,26.6 c 0,2.6 0.2,5 0.6,7.4 2.9,10.9 12.3,18.9 23.9,18.9 17.1,0 27.2,-14.3 27.2,-35.3 0,-18.9 -9.2,-34.2 -26.5,-34.2 -11.2,0 -21.5,8.1 -24.3,19.9 -0.5,2.2 -0.9,4.6 -0.9,6.8 z" /><path
             id="path335"
             class="s0"
             d="m 2857.2,1924.5 c -8.9,0 -14.9,-6.6 -14.9,-14.4 0,-8.4 6.2,-14.7 15.2,-14.7 9.2,0 14.9,6.3 15.1,14.7 0,7.8 -5.9,14.4 -15.1,14.4 z m -13.4,122.1 v -106.7 h 27 v 106.7 z" /><path
             id="path337"
             class="s0"
             d="m 2926.7,1939.9 12.7,20.1 c 3.5,5.5 6.6,11 9.7,16.5 h 0.4 c 3.3,-5.9 6.1,-11.4 9.4,-16.9 l 11.9,-19.7 h 29.3 l -35.7,51 36.4,55.7 h -30.7 l -12.9,-21.5 c -3.5,-5.7 -6.6,-11.4 -9.7,-17.3 h -0.4 c -3.1,6.1 -6.4,11.6 -9.6,17.6 l -12.6,21.2 h -29.5 l 37,-54.5 -35.7,-52.2 z" /><path
             id="path339"
             fill-rule="evenodd"
             class="s0"
             d="m 3040.7,2000.8 c 0.6,19.3 15.7,27.6 32.8,27.6 12.5,0 21.3,-1.9 29.6,-4.8 l 4,18.4 c -9.2,3.9 -22,6.8 -37.3,6.8 -34.6,0 -55,-21.2 -55,-53.9 0,-29.6 18,-57.5 52.2,-57.5 34.6,0 46,28.5 46,52 0,5.1 -0.5,9 -0.9,11.4 z m 46.9,-18.8 c 0.2,-9.9 -4.2,-26.1 -22.1,-26.1 -16.7,0 -23.7,15.1 -24.8,26.1 z" /><path
             id="path341"
             class="s0"
             d="m 3143.4,1890.8 h 27 v 155.8 h -27 z" /><path
             id="path343"
             class="s0"
             d="m 3207.4,2021.6 c 5.9,3.8 17.5,7.9 27.2,7.9 11.8,0 17.1,-5 17.1,-12 0,-7.3 -4.4,-10.8 -17.6,-15.6 -20.8,-7 -29.4,-18.4 -29.4,-31.1 0,-18.9 15.6,-33.4 40.4,-33.4 11.8,0 22.1,2.9 28.5,6.4 l -5.5,18.9 c -4.4,-2.7 -13.1,-6.2 -22.6,-6.2 -9.6,0 -14.9,4.8 -14.9,11.4 0,6.8 5.1,9.9 18.6,14.9 19.6,6.8 28.3,16.7 28.5,32.5 0,19.5 -15.1,33.5 -43.4,33.5 -12.9,0 -24.5,-3.1 -32.4,-7.5 z" /><path
             id="path345"
             class="s0"
             d="m 3319.3,2049 c -9.6,0 -16.4,-7.4 -16.4,-17.3 0,-10.1 7,-17.3 16.7,-17.3 9.8,0 16.6,7 16.6,17.3 0,9.9 -6.5,17.3 -16.6,17.3 z" /><path
             id="path347"
             class="s0"
             d="m 3366.7,1971.7 c 0,-12.3 -0.4,-22.6 -0.9,-31.8 h 23.5 l 1.3,16 h 0.7 c 4.8,-8.3 16.4,-18.5 34.1,-18.5 18.6,0 37.9,12.1 37.9,45.9 v 63.3 h -26.9 v -60.3 c 0,-15.3 -5.7,-26.9 -20.4,-26.9 -10.7,0 -18.2,7.6 -21,15.8 -0.9,2.2 -1.3,5.4 -1.3,8.5 v 62.9 h -27 z" /><path
             id="path349"
             class="s0"
             d="m 3500.8,1890.8 h 26.9 v 155.8 h -26.9 z" /></g><g
           id="g403"><path
             id="&lt;Path&gt;"
             class="s1"
             d="M 2879,1310.7 H 2420.6 V 852.2 H 2879 Z" /><path
             id="path353"
             class="s1"
             d="m 2649.8,498.8 c 85.2,0 154.3,69 154.3,154.1 0,85.3 -69.1,154.4 -154.3,154.4 -85.2,0 -154.3,-69.1 -154.3,-154.4 0,-85.1 69.1,-154.1 154.3,-154.1 z" /><path
             id="path355"
             class="s2"
             d="m 2649.8,554.2 c 54.6,0 98.9,44.2 98.9,98.7 0,54.7 -44.3,99 -98.9,99 -54.6,0 -98.9,-44.3 -98.9,-99 0,-54.5 44.3,-98.7 98.9,-98.7 z" /><path
             id="path357"
             class="s3"
             d="m 2584.4,1524.6 h -355 v -355 h 355 z" /><path
             id="path359"
             class="s3"
             d="m 2405.4,911.2 c 66,0 119.5,53.5 119.5,119.5 0,66 -53.5,119.5 -119.5,119.5 -66,0 -119.5,-53.5 -119.5,-119.5 0,-66 53.5,-119.5 119.5,-119.5 z" /><path
             id="path361"
             class="s4"
             d="m 2405.4,955.3 c 41.7,0 75.5,33.7 75.5,75.4 0,41.7 -33.8,75.5 -75.5,75.5 -41.7,0 -75.5,-33.8 -75.5,-75.5 0,-41.7 33.8,-75.4 75.5,-75.4 z" /><g
             id="g375"><path
               id="path363"
               fill-rule="evenodd"
               class="s5"
               d="m 980.9,1084.2 c 0,43.9 -29.7,59.5 -64.3,59.5 h -65.3 v 72.8 H 754.6 V 893.8 h 163.3 c 40.4,0 63,27.5 63,62.1 z M 887.8,991 c 0,-18.6 -2.7,-18.6 -16.5,-18.6 h -20 v 96.7 h 20.9 c 12.9,0 15.6,-3.1 15.6,-16 z" /><path
               id="path365"
               class="s5"
               d="m 1155.9,970.1 v 67.1 h -46.6 c -5.8,0 -7.1,3.5 -7.1,9.3 v 170 H 1017 V 970.1 h 79.4 v 17.3 c 3.6,-14.6 12.9,-17.3 28.5,-17.3 z" /><path
               id="path367"
               class="s5"
               d="m 1282,1216.5 h -87.4 V 970.1 h 87.4 z m -2.2,-291.2 c 0,9.3 -13.4,22.7 -22.7,22.7 h -37.7 c -9.3,0 -22.6,-9.8 -22.6,-22.7 v -35.9 c 0,-12.4 9.8,-22.7 22.6,-22.7 h 37.7 c 12.9,0 22.7,13.4 22.7,22.7 z" /><path
               id="path369"
               class="s5"
               d="m 1492,970.1 c 19.1,0 33.3,14.7 33.3,33.3 v 213.1 h -83 v -170 c 0,-6.6 -0.9,-9.3 -6.7,-9.3 h -15.5 c -5.8,0 -7.1,3.5 -7.1,9.3 v 170 h -83.9 V 970.1 h 79.4 v 17.3 c 3.6,-14.6 12.9,-17.3 28.4,-17.3 z" /><path
               id="path371"
               class="s5"
               d="m 1669.6,1037.2 v 179.3 h -87 v -179.3 h -22.2 v -67.1 h 22.2 v -21.2 l 87,-60.4 v 81.6 h 30.6 v 67.1 z" /><path
               id="path373"
               fill-rule="evenodd"
               class="s5"
               d="m 1912.6,1141.8 h -10.7 c -4.4,9.9 -8,15.4 -14.8,23.3 l 24.3,53.1 h -61.3 l -7.6,-16.1 c -30.7,19.2 -48.2,18.9 -67.3,18.9 -14.5,0 -38.1,-1.4 -38.1,-27.4 v -76.9 c 0,-40.5 19.2,-40 47.6,-40.8 l -11.7,-26 v -29.6 h 115.2 v 49.8 h -44.3 l 25.7,57 c 7.4,-10.7 4.9,-18.7 5.2,-31.5 h 37.8 z m -111.7,-30.9 c -3.9,0 -7.9,-0.3 -7.9,4.9 v 40 c 0,6.5 4.3,8.7 10.3,8.7 6.1,0 14.3,-1.4 19.8,-4.6 z" /></g><g
             id="g387"><path
               id="path377"
               fill-rule="evenodd"
               class="s6"
               d="M 868.7,832.7 H 754.6 V 722.9 c 0,-27.1 -28.7,-24.4 -46.7,-24.4 v 907.4 H 594.4 V 447.2 h 194.7 c 47.7,0 74.8,32.9 74.8,74.3 v 89.4 c 0,20.7 -19.1,34 -35.5,35 21.2,2.7 40.3,12.8 40.3,47.8 z M 753,563.2 C 753,541 749.8,541 733.4,541 H 709 v 81 h 23.9 c 15.3,0 20.1,-4.2 20.1,-19.1 z" /><path
               id="path379"
               fill-rule="evenodd"
               class="s6"
               d="m 1151.6,789.7 c 0,25.5 -17.6,43 -40.4,43 H 956.3 c -22.3,0 -39.8,-17.5 -39.8,-41.9 V 578.1 c 0,-22.2 17.5,-39.7 39.8,-39.7 h 154.9 c 22.8,0 40.4,17.5 40.4,39.7 z m -98.8,-163.4 c 0,-7.5 -1,-11.2 -7.9,-11.2 h -20.7 c -8,0 -8.5,4.2 -8.5,11.2 v 119.4 c 0,6.9 0.5,10 8.5,10 h 20.7 c 6.9,0 7.9,-2.1 7.9,-10 z" /><path
               id="path381"
               fill-rule="evenodd"
               class="s6"
               d="m 1339.9,832.7 v -20.6 c -4.2,17.5 -15.4,20.6 -33.9,20.6 h -65.3 c -23.3,0 -40.8,-17.5 -40.8,-39.8 v -99.2 c 0,-35 6.4,-41.4 37.1,-41.4 h 97.6 v -18 c 0,-17 -0.5,-15.9 -16.4,-15.9 h -103.5 v -80 h 179.4 c 22.2,0 39.8,17.5 39.8,41.8 V 832.7 Z M 1334.6,716 c 0,-6.9 -0.5,-10.1 -8.5,-10.1 H 1307 c -7.4,0 -8,2.7 -8,10.1 v 26 c 0,8 0.6,11.2 8,11.2 h 19.1 c 8,0 8.5,-4.3 8.5,-11.2 z" /><path
               id="path383"
               fill-rule="evenodd"
               class="s6"
               d="m 1624.9,812.1 c -4.2,17.5 -15.3,20.6 -33.9,20.6 h -69 c -25,0 -39.8,-17.5 -39.8,-41.9 V 578.1 c 0,-22.2 17.5,-39.7 39.8,-39.7 h 69 c 18.6,0 29.7,3.2 33.9,20.6 V 447.2 h 95 v 385.5 h -95 z m -14.3,-58.9 c 6.9,0 9,-2.6 9,-9.5 V 629 c 0,-6.9 -2.1,-10.5 -9,-10.5 H 1592 c -7.4,0 -9.5,4.2 -9.5,11.1 v 114.6 c 0,6.9 0.5,9 8.5,9 z" /><path
               id="path385"
               class="s6"
               d="m 1985.8,774.4 c 0,49.8 -10.2,58.3 -56.3,58.3 h -161.3 v -79.5 h 104 c 3.7,0 5.8,-1.1 5.8,-5.9 v -18 c 0,-5.3 -2.1,-7.4 -6.8,-7.4 h -77 c -16.4,0 -26,-4.8 -26,-22.9 V 595.6 c 0,-50.9 12.7,-57.2 60,-57.2 h 157.6 v 80 h -108.3 c -4.2,0 -5.8,1 -5.8,5.8 v 18 c 0,4.8 1.6,7.5 5.8,7.5 h 71.6 c 29.8,0 36.7,4.2 36.7,33.4 z" /></g><g
             id="g401"><path
               id="path389"
               fill-rule="evenodd"
               class="s5"
               d="m 987,1469.8 c 0,45.2 -30.6,61.1 -66.1,61.1 h -67 v 74.7 h -99.3 v -331.2 h 167.7 c 41.4,0 64.7,28.3 64.7,63.8 z m -95.7,-95.7 c 0,-19.2 -2.8,-19.2 -16.9,-19.2 h -20.5 v 99.4 h 21.4 c 13.2,0 16,-3.2 16,-16.4 z" /><path
               id="path391"
               class="s5"
               d="M 1113.7,1605.6 H 1024 v -252.8 h 89.7 z m -2.3,-298.9 c 0,9.5 -13.6,23.2 -23.2,23.2 h -38.8 c -9.5,0 -23.2,-10 -23.2,-23.2 v -36.9 c 0,-12.8 10,-23.3 23.2,-23.3 h 38.8 c 13.2,0 23.2,13.6 23.2,23.3 z" /><path
               id="path393"
               class="s5"
               d="M 1390.3,1605.6 H 1296 l -30.5,-70.1 -29.2,70.1 h -95.2 l 73.3,-136.2 -68.3,-116.6 h 92.5 l 27.3,63.3 28.7,-63.3 h 91.1 l -68.8,117.9 z" /><path
               id="path395"
               fill-rule="evenodd"
               class="s5"
               d="m 1611.8,1472.1 c 0,29.7 -5.5,35.1 -31.4,35.1 H 1496 v 17.3 c 0,12.8 2.8,12.8 12.8,12.8 h 94.4 v 68.3 h -157.7 c -19.1,0 -34.6,-15 -34.6,-36.4 v -182.3 c 0,-19.1 15.5,-34.1 34.6,-34.1 h 131.7 c 19.6,0 34.6,15 34.6,34.1 z m -84.8,-42.4 c 0,-6.8 -0.9,-9.5 -6.8,-9.5 h -16.8 c -6.8,0 -7.4,3.6 -7.4,9.5 v 21.9 c 0,6.4 0.6,9.1 7.4,9.1 h 16.8 c 5.9,0 6.8,-2.3 6.8,-9.1 z" /><path
               id="path397"
               class="s5"
               d="m 1750.4,1605.6 h -90.2 v -331.2 h 90.2 z" /><path
               id="path399"
               class="s5"
               d="m 1985.5,1555.5 c 0,42.9 -8.7,50.1 -48.3,50.1 h -138.5 v -68.3 h 89.3 c 3.2,0 5,-0.9 5,-5 v -15.5 c 0,-4.6 -1.8,-6.4 -5.9,-6.4 H 1821 c -14.1,0 -22.3,-4.1 -22.3,-19.6 v -88.9 c 0,-43.7 10.9,-49.1 51.5,-49.1 h 135.3 v 68.7 h -93 c -3.6,0 -5,1 -5,5.1 v 15.5 c 0,4.1 1.4,6.3 5,6.3 h 61.5 c 25.5,0 31.5,3.7 31.5,28.7 z" /></g></g></g><path
         id="path407"
         class="s0"
         d="m 2787.4,1007.2 h 520.8 v 520.9 h -520.8 z" /><path
         id="path409"
         fill-rule="evenodd"
         class="s0"
         d="m 3549,431.9 v 1223 c 0,73.5 -59.7,133.2 -133.2,133.2 h -2938 c -73.3,0 -133.1,-59.7 -133.1,-133.2 v -1223 c 0,-73.4 59.8,-133.1 133.1,-133.1 h 2938 c 73.5,0 133.2,59.7 133.2,133.1 z m -29.6,0 c 0,-57.1 -46.5,-103.5 -103.6,-103.5 h -2938 c -57,0 -103.5,46.4 -103.5,103.5 v 1223 c 0,57.2 46.5,103.6 103.5,103.6 h 2938 c 57.1,0 103.6,-46.4 103.6,-103.6 z" /><path
         id="path411"
         class="s0"
         d="m 3047.8,619.1 c 96.8,0 175.3,78.4 175.3,175.1 0,96.9 -78.5,175.4 -175.3,175.4 -96.8,0 -175.3,-78.5 -175.3,-175.4 0,-96.7 78.5,-175.1 175.3,-175.1 z" /><path
         id="path413"
         class="s7"
         d="m 3047.8,682 c 62,0 112.3,50.2 112.3,112.2 0,62.1 -50.3,112.4 -112.3,112.4 -62.1,0 -112.4,-50.3 -112.4,-112.4 0,-62 50.3,-112.2 112.4,-112.2 z" /></g></g><style
     id="style308">
		.s0 { fill: #c80065 } 
		.s1 { fill: #f0b500 } 
		.s2 { fill: #f8da80 } 
		.s3 { fill: #00928c } 
		.s4 { fill: #80c9c5 } 
		.s5 { fill: #cb0065 } 
		.s6 { fill: #e093b6 } 
		.s7 { fill: #e480b2 } 
	</style></svg>
