<?xml version="1.0" encoding="UTF-8" standalone="no"?>
<!-- Created with Inkscape (http://www.inkscape.org/) -->

<svg
   width="438.67917mm"
   height="137.55687mm"
   viewBox="0 0 438.67917 137.55687"
   version="1.1"
   id="svg1513"
   xml:space="preserve"
   inkscape:version="1.2 (dc2aedaf03, 2022-05-15)"
   sodipodi:docname="roads_technology2.svg"
   xmlns:inkscape="http://www.inkscape.org/namespaces/inkscape"
   xmlns:sodipodi="http://sodipodi.sourceforge.net/DTD/sodipodi-0.dtd"
   xmlns="http://www.w3.org/2000/svg"
   xmlns:svg="http://www.w3.org/2000/svg"><sodipodi:namedview
     id="namedview1515"
     pagecolor="#ffffff"
     bordercolor="#666666"
     borderopacity="1.0"
     inkscape:showpageshadow="2"
     inkscape:pageopacity="0.0"
     inkscape:pagecheckerboard="0"
     inkscape:deskcolor="#d1d1d1"
     inkscape:document-units="mm"
     showgrid="false"
     inkscape:zoom="0.72515432"
     inkscape:cx="926.6993"
     inkscape:cy="423.35816"
     inkscape:window-width="1920"
     inkscape:window-height="1017"
     inkscape:window-x="-8"
     inkscape:window-y="-8"
     inkscape:window-maximized="1"
     inkscape:current-layer="layer1" /><defs
     id="defs1510" /><g
     inkscape:label="Laag 1"
     inkscape:groupmode="layer"
     id="layer1"
     transform="translate(140.1639,-36.667509)"><g
       id="g1574"
       transform="matrix(0.26458333,0,0,0.26458333,-211.17807,4.7323014)"><g
         id="&lt;Group&gt;"><path
           id="&lt;Compound Path&gt;"
           fill-rule="evenodd"
           class="s0"
           d="m 763.1,240.7 h 49.2 c 14.4,0 25.9,4.5 32.9,11.5 5.6,5.5 8.9,13.4 8.9,21.8 v 0.3 c 0,19.6 -14.5,30.8 -34.3,33.4 l 38.7,50 h -11.1 l -37.3,-48.5 h -38.3 v 48.5 h -8.7 z m 48.2,60.7 c 19.6,0 34.1,-9.8 34.1,-26.7 v -0.3 c 0,-15.8 -12.4,-25.6 -33.6,-25.6 h -40 v 52.6 z" /><path
           id="path1522"
           fill-rule="evenodd"
           class="s0"
           d="m 872.4,299.5 v -0.3 c 0,-31.9 23.6,-60.5 59,-60.5 35.5,0 58.7,28.2 58.7,60.2 v 0.3 c 0,32 -23.6,60.6 -59,60.6 -35.5,0 -58.7,-28.3 -58.7,-60.3 z m 108.7,0 v -0.3 c 0,-28.9 -21.1,-52.7 -50,-52.7 -29,0 -49.7,23.4 -49.7,52.4 v 0.3 c 0,28.9 21.1,52.7 50,52.7 28.9,0 49.7,-23.4 49.7,-52.4 z" /><path
           id="path1524"
           fill-rule="evenodd"
           class="s0"
           d="m 1051.7,239.8 h 8.3 l 54.5,117.9 H 1105 L 1090.1,325 h -69 l -14.9,32.7 h -9 z m 34.7,77.3 -30.7,-67.7 -31,67.7 z" /><path
           id="path1526"
           fill-rule="evenodd"
           class="s0"
           d="m 1134,240.7 h 39 c 36.8,0 62.2,25.2 62.2,58.2 v 0.3 c 0,33 -25.4,58.5 -62.2,58.5 h -39 z m 8.7,8.1 v 101 h 30.3 c 32.6,0 53.2,-22.3 53.2,-50.2 v -0.3 c 0,-27.8 -20.6,-50.5 -53.2,-50.5 z" /><path
           id="path1528"
           class="s0"
           d="m 1250,340.7 5.7,-6.5 c 12.9,11.8 24.7,17.4 42,17.4 17.5,0 29.6,-9.9 29.6,-23.3 V 328 c 0,-12.4 -6.6,-19.6 -33.1,-24.9 -28.1,-5.7 -39.5,-15.3 -39.5,-33 v -0.3 c 0,-17.4 15.9,-30.8 37.6,-30.8 17.1,0 28.3,4.7 40.1,14.2 l -5.5,6.9 c -11,-9.5 -22,-13.2 -34.9,-13.2 -17.2,0 -28.6,9.8 -28.6,22 v 0.4 c 0,12.4 6.3,19.9 34.1,25.6 27.1,5.5 38.5,15.2 38.5,32.2 v 0.4 c 0,18.9 -16.3,31.9 -38.8,31.9 -18.8,0 -33.1,-6.2 -47.2,-18.7 z" /></g><g
         id="g1551"><path
           id="path1531"
           class="s1"
           d="m 787,422 h -35.6 v -23.8 h 97 V 422 h -35.6 v 93.3 H 787 Z" /><path
           id="path1533"
           class="s1"
           d="m 862.2,398.2 h 88.3 v 23 h -62.7 v 23.7 h 55.1 v 22.9 h -55.1 v 24.6 h 63.5 v 22.9 h -89.1 z" /><path
           id="path1535"
           class="s1"
           d="m 964.1,457.1 v -0.3 c 0,-33.3 25.1,-60.6 61.1,-60.6 22,0 35.2,7.4 46.1,18.1 l -16.4,18.9 c -9,-8.2 -18.2,-13.2 -29.9,-13.2 -19.7,0 -34,16.4 -34,36.4 v 0.4 c 0,20 13.9,36.8 34,36.8 13.4,0 21.6,-5.4 30.8,-13.7 l 16.4,16.5 c -12.1,12.9 -25.5,20.9 -48,20.9 -34.5,0 -60.1,-26.6 -60.1,-60.2 z" /><path
           id="path1537"
           class="s1"
           d="m 1087.3,398.2 h 25.7 v 46.4 h 47.5 v -46.4 h 25.8 v 117.1 h -25.8 v -47 H 1113 v 47 h -25.7 z" /><path
           id="path1539"
           class="s1"
           d="m 1211.4,398.2 h 23.7 l 54.9,72.1 v -72.1 h 25.4 v 117.1 h -21.9 l -56.7,-74.4 v 74.4 h -25.4 z" /><path
           id="path1541"
           fill-rule="evenodd"
           class="s1"
           d="m 1334.5,457.1 v -0.3 c 0,-33.3 26.3,-60.6 62.4,-60.6 36.1,0 62.1,27 62.1,60.2 v 0.4 c 0,33.3 -26.3,60.5 -62.4,60.5 -36.1,0 -62.1,-26.9 -62.1,-60.2 z m 97.5,0 v -0.3 c 0,-20.1 -14.7,-36.8 -35.4,-36.8 -20.8,0 -35.1,16.4 -35.1,36.4 v 0.4 c 0,20 14.7,36.8 35.4,36.8 20.7,0 35.1,-16.4 35.1,-36.5 z" /><path
           id="path1543"
           class="s1"
           d="m 1470.3,398.2 h 25.8 v 93.7 h 58.4 v 23.4 h -84.2 z" /><path
           id="path1545"
           fill-rule="evenodd"
           class="s1"
           d="m 1557.2,457.1 v -0.3 c 0,-33.3 26.3,-60.6 62.4,-60.6 36.1,0 62,27 62,60.2 v 0.4 c 0,33.3 -26.2,60.5 -62.3,60.5 -36.2,0 -62.1,-26.9 -62.1,-60.2 z m 97.5,0 v -0.3 c 0,-20.1 -14.7,-36.8 -35.4,-36.8 -20.8,0 -35.2,16.4 -35.2,36.4 v 0.4 c 0,20 14.7,36.8 35.5,36.8 20.7,0 35.1,-16.4 35.1,-36.5 z" /><path
           id="path1547"
           class="s1"
           d="m 1694.5,457.1 v -0.3 c 0,-33.3 25.9,-60.6 61.4,-60.6 21.1,0 33.8,5.7 46,16.1 l -16.2,19.6 c -9.1,-7.6 -17.1,-11.9 -30.6,-11.9 -18.8,0 -33.7,16.5 -33.7,36.4 v 0.4 c 0,21.4 14.8,37.1 35.5,37.1 9.4,0 17.7,-2.3 24.2,-7 v -16.7 h -25.9 v -22.3 h 50.9 v 50.8 c -12.1,10.2 -28.6,18.6 -50,18.6 -36.5,0 -61.6,-25.6 -61.6,-60.2 z" /><path
           id="path1549"
           class="s1"
           d="m 1855.7,469.1 -45,-70.9 h 30.1 l 27.9,47 28.5,-47 h 29.2 l -44.9,70.4 v 46.7 h -25.8 z" /></g><g
         id="g1554"><path
           id="&lt;Path&gt;"
           class="s0"
           d="m 667.5,539.4 c -14.6,0 -26.4,-11.8 -26.4,-26.4 V 260.5 c 0,-14.6 11.8,-26.4 26.4,-26.4 14.6,0 26.4,11.8 26.4,26.4 V 513 c 0,14.6 -11.8,26.4 -26.4,26.4 z" /></g><g
         id="g1558"><path
           id="path1556"
           class="s2"
           d="m 574.3,640.6 c -14.6,0 -26.4,-11.8 -26.4,-26.4 V 147.1 c 0,-14.6 11.8,-26.4 26.4,-26.4 14.6,0 26.4,11.8 26.4,26.4 v 467.1 c 0,14.6 -11.8,26.4 -26.4,26.4 z" /></g><g
         id="g1562"><path
           id="path1560"
           class="s3"
           d="m 481.1,546.7 c -14.6,0 -26.4,-11.8 -26.4,-26.4 v -183 c 0,-14.6 11.8,-26.4 26.4,-26.4 14.6,0 26.4,11.8 26.4,26.4 v 183 c 0,14.6 -11.8,26.4 -26.4,26.4 z" /></g><g
         id="g1566"><path
           id="path1564"
           class="s4"
           d="m 388,596.7 c -14.6,0 -26.5,-11.8 -26.5,-26.4 V 196.2 c 0,-14.5 11.9,-26.4 26.5,-26.4 14.5,0 26.4,11.9 26.4,26.4 v 374.1 c 0,14.6 -11.9,26.4 -26.4,26.4 z" /></g><g
         id="g1570"><path
           id="path1568"
           class="s5"
           d="m 294.8,536.3 c -14.6,0 -26.4,-11.8 -26.4,-26.4 V 329.4 c 0,-14.6 11.8,-26.4 26.4,-26.4 14.6,0 26.4,11.8 26.4,26.4 v 180.5 c 0,14.6 -11.8,26.4 -26.4,26.4 z" /></g><path
         id="path1572"
         class="s1"
         d="m 454.7,266.8 c 0,-14.6 11.8,-26.4 26.4,-26.4 14.6,0 26.4,11.8 26.4,26.4 0,14.6 -11.8,26.4 -26.4,26.4 -14.6,0 -26.4,-11.8 -26.4,-26.4 z" /></g></g><style
     id="style1519">
		.s0 { fill: #003874 } 
		.s1 { fill: #f37630 } 
		.s2 { fill: #005e9d } 
		.s3 { fill: #007dc5 } 
		.s4 { fill: #00a1e4 } 
		.s5 { fill: #20b1e7 } 
	</style></svg>
