<svg xmlns="http://www.w3.org/2000/svg" xml:space="preserve" viewBox="0 0 1080 1080"><g transform="translate(540 540) matrix(1.33 0 0 -1.33 242.2 9.2)" clip-path="url(#a)"><clipPath id="a"><path transform="translate(-580.2 -263.5)" d="M0 542.2h798.1V0H0Z" stroke-linecap="round"/></clipPath><path vector-effect="non-scaling-stroke" d="M-69.5 0a69.5 69.5 0 1 0 139 0 69.5 69.5 0 0 0-139 0" fill="#745a33"/></g><g transform="translate(540 540) matrix(1.33 0 0 -1.33 140 -164.5)" clip-path="url(#b)"><clipPath id="b"><path transform="translate(-503.5 -393.7)" d="M0 542.2h798.1V0H0Z" stroke-linecap="round"/></clipPath><path vector-effect="non-scaling-stroke" d="M60.2 109.8c-.9 8.6-92.1-15-111.9-66.2-17.5-45.4-7.5-90.8 24.5-155.2 0 0-12.7 52.5 16.4 111.3 29.2 59 72.4 96.5 71 110.1" fill="#745a33"/></g><g transform="translate(540 540) matrix(1.33 0 0 -1.33 -45.8 -84)" clip-path="url(#c)"><clipPath id="c"><path transform="translate(-364.2 -333.4)" d="M0 542.2h798.1V0H0Z" stroke-linecap="round"/></clipPath><path vector-effect="non-scaling-stroke" d="M-2.6-66.7C-58.1 8-77 119.6-63.3 171.9c0 0 23 14 60.7 20.9 37.6 6.8 69 7.5 72.4-2.4 3.2-9.9 1.8-18.3-5.7-30C56.6 148.5 3 61.5 27-21.7s106.2-148 157-176.3c0 0-168.3 58.8-247.8 109-79.4 50.4-180 134-75.2 223 0 0-42.5-92.5 67.3-163.7 52.5-34.1 69-37.1 69-37.1" fill="#745a33"/></g><g transform="translate(540 540) matrix(1.33 0 0 -1.33 -103.3 24)" clip-path="url(#d)"><clipPath id="d"><path transform="translate(-321.1 -252.3)" d="M0 542.2h798.1V0H0Z" stroke-linecap="round"/></clipPath><path vector-effect="non-scaling-stroke" d="M-163.1 112.6c7-98.7 127.4-165.5 332.4-225.2 0 0-167.4 9.9-257.2 62-89.8 52.2-87.4 128-75.2 163.2" fill="#745a33"/></g><g transform="translate(540 540) matrix(1.33 0 0 -1.33 -477.1 292.7)" clip-path="url(#e)"><clipPath id="e"><path transform="translate(-40.7 -50.8)" d="M0 542.2h798.1V0H0Z" stroke-linecap="round"/></clipPath><path vector-effect="non-scaling-stroke" d="M-12 41.4h3.2A52 52 0 0 0 13 37.8c8-3.7 13.8-9.7 17.4-18.1 2-5.8 3.1-11.6 3.1-17.5v-3a42 42 0 0 0-14-33.3 35 35 0 0 0-21.1-7.3h-10.5v16.7h7.5c10.7 0 17 6.6 18.9 20 .2 1.1.3 2.6.3 4.4V1c0 11.4-3.9 18.7-11.6 22-2.6 1.1-5.5 1.7-8.7 1.7H-12zm-19.4 0h16.7v-82.8h-17c-1.2.3-1.8.9-1.8 1.8v79c0 1 .7 1.7 2 2" fill="#745a33"/></g><g transform="translate(540 540) matrix(1.33 0 0 -1.33 -380 292.7)" clip-path="url(#f)"><clipPath id="f"><path transform="translate(-113.5 -50.8)" d="M0 542.2h798.1V0H0Z" stroke-linecap="round"/></clipPath><path vector-effect="non-scaling-stroke" d="M-9.5-24.7H29c1.2-.3 1.9-1 1.9-2v-13c-.3-1.1-.9-1.7-1.8-1.7H-9.5Zm0 33.5H27c1.3-.3 2-1 2-2V-6c-.4-1.2-1-1.9-2-1.9H-9.5Zm0 32.6H27c1.3-.3 2-1 2-2V26.6c0-1-.8-1.6-2.2-2H-9.5Zm-19.3 0h16.7v-82.8H-29c-1 0-1.6.7-1.9 2V39c.3 1.6 1 2.4 2 2.4" fill="#745a33"/></g><g transform="translate(540 540) matrix(1.33 0 0 -1.33 -226.4 292.7)" clip-path="url(#g)"><clipPath id="g"><path transform="translate(-228.8 -50.8)" d="M0 542.2h798.1V0H0Z" stroke-linecap="round"/></clipPath><path vector-effect="non-scaling-stroke" d="M15.6 41.4h14.6c1.3-.3 2-1 2-2v-79c-.2-1.2-.8-1.8-1.7-1.8H15.3c-1.2.3-1.8.9-1.8 1.8v32H1.3V10h12.2v29.5c0 1 .7 1.6 2 1.9m-45.7 0h14.6c1.4 0 2.1-1 2.3-2.8V10h11.9V-7.6h-12v-31c0-1.8-.6-2.8-1.9-2.8h-15c-1.3.3-2 1-2 2v78.9c0 1 .8 1.6 2.1 1.9" fill="#745a33"/></g><g transform="translate(540 540) matrix(1.33 0 0 -1.33 -122 292.7)" clip-path="url(#h)"><clipPath id="h"><path transform="translate(-307 -50.8)" d="M0 542.2h798.1V0H0Z" stroke-linecap="round"/></clipPath><path vector-effect="non-scaling-stroke" d="M1.9 41.4c7.6 0 14.7-2.4 21.4-7.3 9.1-7.7 13.7-19 13.7-34 0-14-4.4-25.1-13.1-33.2a34 34 0 0 0-21.7-8.1h-.3v16.6H2c4 0 7.8 2 11.3 6.1A31 31 0 0 1 18.1-.9v2.5C17.7 13 14 20.1 7.4 23.2c-1.7.9-3.6 1.4-5.5 1.5zm-2.7 0V25c0-.2-.1-.3-.3-.3h-.3c-6.2 0-11-3.2-14.3-9.7a34.6 34.6 0 0 1-2.7-13.7V-.3c0-11.5 3.7-19.2 11.2-23a18 18 0 0 1 6.4-1.4v-16.7c-14 0-24.4 6-31.1 18.2C-35.3-16.7-37-9.4-37-1v2.2c0 18 6.7 30.3 20.2 37 5.2 2.2 10.5 3.2 16 3.2" fill="#745a33"/></g><g transform="translate(540 540) matrix(1.33 0 0 -1.33 -16.3 292.7)" clip-path="url(#i)"><clipPath id="i"><path transform="translate(-386.3 -50.8)" d="M0 542.2h798.1V0H0Z" stroke-linecap="round"/></clipPath><path vector-effect="non-scaling-stroke" d="M15.8 41.4h14.7c1 0 1.6-.7 2-2V-6.2c0-10.2-2-17.8-5.7-22.8-3-4.8-8.1-8.4-15.3-10.9-3.8-1-7-1.4-9.6-1.4v16.8c2.7 0 5.3 1.3 8 3.9 2.7 3 4 7.7 4 14.1v45.9c.3 1.3 1 1.9 1.9 1.9m-46.3 0h14.7c1 0 1.6-.7 2-2V-8.4c0-8.6 2.8-13.8 8.6-15.7 1.4-.4 2.8-.6 4.2-.6h.3v-16.8c-15.2 0-25 6.2-29.7 18.5-1.4 3.9-2 8.3-2 13.4v49c.3 1.3.9 1.9 1.9 1.9" fill="#745a33"/></g><g transform="translate(540 540) matrix(1.33 0 0 -1.33 82.4 292.7)" clip-path="url(#j)"><clipPath id="j"><path transform="translate(-460.4 -50.8)" d="M0 542.2h798.1V0H0Z" stroke-linecap="round"/></clipPath><path vector-effect="non-scaling-stroke" d="M-9.5 22.6H9.4v-62c-.3-1.3-1-2-2.1-2H-7.1c-1.6.2-2.4 1-2.4 2.4Zm-21 18.8h60.9c1 0 1.6-.7 2-2V26.7c0-.5-.3-1-.8-1.5h-63.2c-.3 0-.5.5-.7 1.4v13c.2 1.1.8 1.7 1.8 1.7" fill="#745a33"/></g><g transform="translate(540 540) matrix(1.33 0 0 -1.33 181.4 292.8)" clip-path="url(#k)"><clipPath id="k"><path transform="translate(-534.6 -50.7)" d="M0 542.2h798.1V0H0Z" stroke-linecap="round"/></clipPath><path vector-effect="non-scaling-stroke" d="M2 9.9h.2c8-1.7 14-3.5 18.2-5.4A20.7 20.7 0 0 0 32.8-15v-2.5c0-6.3-2.4-11.7-7-16.3A35 35 0 0 0 2-41.3v16c5.3 0 9 1.3 11.3 4a10 10 0 0 1 1 4.1c0 4.5-4 7.5-12.3 9zm0 31.4h.7c13.6 0 22.3-4.6 26.2-13.8 1.3-3.2 2-5.5 2-7-.6-1.1-1.2-1.7-2-1.7-1.9-.3-5.6-.4-11.2-.4-3.6 0-5.3.3-5.3 1L10 23c-2.4 2-5 3-8 3Zm-3 0h.4V26h-.1c-6 0-9.4-1.9-10.3-5.5a21 21 0 0 1-.2-1.7c0-3.3 2.2-5.6 6.6-7 2.6-.7 4-1.2 4-1.3V-7.4c-7.3 1.6-13 3.3-17 5L-21.4.2c-5.4 4.2-8 9.8-8 16.7v2.5c0 8.7 4.4 15.2 13.3 19.3 4.7 1.8 9.7 2.7 15 2.7m-18.3-57.5c3.6 0 5.4-.5 5.4-1.4 1.6-3.3 3.6-5.4 6.1-6.3 2.7-1 5.2-1.5 7.3-1.5v-16h-.6c-14.2 0-23.9 5-29 15a22.4 22.4 0 0 0-2.6 7.7v.3c0 1.3 1.3 2 4 2l9.4.2" fill="#745a33"/></g><g transform="translate(540 540) matrix(1.33 0 0 -1.33 280.3 292.7)" clip-path="url(#l)"><clipPath id="l"><path transform="translate(-608.8 -50.8)" d="M0 542.2h798.1V0H0Z" stroke-linecap="round"/></clipPath><path vector-effect="non-scaling-stroke" d="M-9.5 22.6H9.4v-62c-.3-1.3-1-2-2.1-2H-7.1c-1.6.2-2.4 1-2.4 2.4Zm-21 18.8h60.9c1 0 1.6-.7 2-2V26.7c0-.5-.3-1-.8-1.5h-63.2c-.3 0-.5.5-.7 1.4v13c.2 1.1.8 1.7 1.8 1.7" fill="#745a33"/></g><g transform="translate(540 540) matrix(1.33 0 0 -1.33 375.4 292.7)" clip-path="url(#m)"><clipPath id="m"><path transform="translate(-680.1 -50.8)" d="M0 542.2h798.1V0H0Z" stroke-linecap="round"/></clipPath><path vector-effect="non-scaling-stroke" d="M-9.5-24.7H29c1.2-.3 1.9-1 1.9-2v-13c-.3-1.1-.9-1.7-1.8-1.7H-9.5Zm0 33.5H27c1.3-.3 2-1 2-2V-6c-.4-1.2-1-1.9-2-1.9H-9.5Zm0 32.6H27c1.3-.3 2-1 2-2V26.6c0-1-.8-1.6-2.2-2H-9.5Zm-19.3 0h16.7v-82.8H-29c-1 0-1.6.7-1.9 2V39c.3 1.6 1 2.4 2 2.4" fill="#745a33"/></g><g transform="translate(540 540) matrix(1.33 0 0 -1.33 474.9 292.7)" clip-path="url(#n)"><clipPath id="n"><path transform="translate(-754.7 -50.8)" d="M0 542.2h798.1V0H0Z" stroke-linecap="round"/></clipPath><path vector-effect="non-scaling-stroke" d="M4.4 4.3c20.5-28.5 30.8-42.8 30.8-43v-1c0-.8-.6-1.4-2-1.7H16c-1 0-2.2 1.1-3.5 3.4L-8.4-8.3v.1c3 3 7.2 7.2 12.8 12.5m9 37.1h17.5c1.3-.3 2-1 2-2A475.7 475.7 0 0 0 1.4 5.2 405 405 0 0 0-13.7-9.3v21.1C-8 18.6.8 28.3 12.4 41.1l1 .3m-29.7-57.2v-23.5c0-1.2-.8-1.9-2.4-2h-14.1c-1.6.1-2.4.9-2.4 2.3v4.3a705 705 0 0 0 19 19m-17 57.1h15c1.2-.3 1.9-1 1.9-2V-12c-12-11.8-18.4-17.9-19-18.3v69.7c.4 1.4 1 2.1 2 2.1" fill="#745a33"/></g></svg>