<?xml version="1.0" encoding="UTF-8" standalone="no"?>
<svg
   xmlns:dc="http://purl.org/dc/elements/1.1/"
   xmlns:cc="http://creativecommons.org/ns#"
   xmlns:rdf="http://www.w3.org/1999/02/22-rdf-syntax-ns#"
   xmlns:svg="http://www.w3.org/2000/svg"
   xmlns="http://www.w3.org/2000/svg"
   viewBox="0 0 1064.156 722.88531"
   height="722.88531"
   width="1064.156"
   xml:space="preserve"
   id="svg2"
   version="1.1"><metadata
     id="metadata8"><rdf:RDF><cc:Work
         rdf:about=""><dc:format>image/svg+xml</dc:format><dc:type
           rdf:resource="http://purl.org/dc/dcmitype/StillImage" /></cc:Work></rdf:RDF></metadata><defs
     id="defs6"><clipPath
       id="clipPath18"
       clipPathUnits="userSpaceOnUse"><path
         id="path16"
         d="M 0,542.164 H 798.117 V 0 H 0 Z" /></clipPath></defs><g
     transform="matrix(1.3333333,0,0,-1.3333333,0,722.88533)"
     id="g10"><g
       id="g12"><g
         clip-path="url(#clipPath18)"
         id="g14"><g
           transform="translate(510.7451,263.4651)"
           id="g20"><path
             id="path22"
             style="fill:#ffffff;fill-opacity:1;fill-rule:nonzero;stroke:none"
             d="m 0,0 c 0,38.374 31.108,69.483 69.483,69.483 38.374,0 69.483,-31.109 69.483,-69.483 0,-38.375 -31.109,-69.483 -69.483,-69.483 C 31.108,-69.483 0,-38.375 0,0" /></g><g
           transform="translate(563.7061,503.5701)"
           id="g24"><path
             id="path26"
             style="fill:#ffffff;fill-opacity:1;fill-rule:nonzero;stroke:none"
             d="m 0,0 c -0.889,8.584 -92.142,-15.043 -111.886,-66.285 -17.488,-45.387 -7.521,-90.731 24.446,-155.135 0,0 -12.693,52.451 16.454,111.315 C -41.84,-51.242 1.41,-13.633 0,0" /></g><g
           transform="translate(361.5596,266.636)"
           id="g28"><path
             id="path30"
             style="fill:#ffffff;fill-opacity:1;fill-rule:nonzero;stroke:none"
             d="m 0,0 c -55.473,74.747 -74.277,186.326 -60.644,238.661 0,0 23.036,13.984 60.644,20.839 37.609,6.854 69.105,7.521 72.396,-2.351 3.292,-9.872 1.881,-18.334 -5.641,-30.087 C 59.233,215.31 5.642,128.339 29.617,45.13 c 23.975,-83.209 106.244,-148.084 157.016,-176.29 0,0 -168.299,58.764 -247.747,109.065 -79.448,50.302 -180.051,133.981 -75.217,222.831 0,0 -42.486,-92.423 67.226,-163.597 C -16.515,3.021 0,0 0,0" /></g><g
           transform="translate(158.0029,364.8885)"
           id="g32"><path
             id="path34"
             style="fill:#ffffff;fill-opacity:1;fill-rule:nonzero;stroke:none"
             d="m 0,0 c 7.052,-98.723 127.399,-165.478 332.366,-225.182 0,0 -167.358,9.873 -257.149,62.055 C -14.573,-110.945 -12.223,-35.258 0,0" /></g><g
           transform="translate(28.6421,92.2254)"
           id="g36"><path
             id="path38"
             style="fill:#ffffff;fill-opacity:1;fill-rule:nonzero;stroke:none"
             d="m 0,0 h 3.275 c 9.505,0 16.752,-1.191 21.741,-3.574 8.065,-3.697 13.872,-9.752 17.422,-18.166 2.083,-5.758 3.126,-11.565 3.126,-17.421 v -3.128 c 0,-13.898 -4.666,-24.966 -13.997,-33.205 -6.602,-4.863 -13.649,-7.296 -21.144,-7.296 H 0 v 16.678 h 7.445 c 10.696,0 16.999,6.649 18.91,19.952 0.199,1.191 0.299,2.68 0.299,4.468 v 1.191 c 0,11.391 -3.872,18.735 -11.615,22.037 -2.606,1.093 -5.485,1.639 -8.637,1.639 l -6.402,0 z m -19.357,0 h 16.676 v -82.79 h -16.975 c -1.191,0.247 -1.786,0.844 -1.786,1.786 v 79.068 c 0,0.968 0.694,1.614 2.085,1.936" /></g><g
           transform="translate(104.062,26.1131)"
           id="g40"><path
             id="path42"
             style="fill:#ffffff;fill-opacity:1;fill-rule:nonzero;stroke:none"
             d="m 0,0 h 38.417 c 1.29,-0.322 1.936,-0.969 1.936,-1.937 v -12.955 c -0.249,-1.191 -0.845,-1.786 -1.787,-1.786 H 0 Z m 0,33.502 h 36.481 c 1.29,-0.322 1.936,-0.967 1.936,-1.935 V 18.761 c -0.323,-1.29 -0.968,-1.935 -1.936,-1.935 L 0,16.826 Z m 0,32.61 h 36.333 c 1.289,-0.322 1.935,-0.967 1.935,-1.935 V 51.223 c 0,-0.968 -0.695,-1.615 -2.084,-1.936 L 0,49.287 Z m -19.357,0 h 16.676 v -82.79 h -16.825 c -0.969,0 -1.614,0.696 -1.937,2.085 v 78.322 c 0.274,1.589 0.968,2.383 2.086,2.383" /></g><g
           transform="translate(244.3286,92.2254)"
           id="g44"><path
             id="path46"
             style="fill:#ffffff;fill-opacity:1;fill-rule:nonzero;stroke:none"
             d="m 0,0 h 14.592 c 1.39,-0.322 2.085,-0.968 2.085,-1.936 v -79.068 c -0.248,-1.191 -0.844,-1.786 -1.786,-1.786 H -0.298 c -1.191,0.247 -1.786,0.844 -1.786,1.786 v 32.015 h -12.21 v 17.57 h 12.21 V -1.936 C -2.084,-0.968 -1.39,-0.322 0,0 m -45.713,0 h 14.592 c 1.315,0 2.059,-0.942 2.233,-2.829 v -28.59 h 11.913 v -17.57 h -11.913 v -30.972 c 0,-1.887 -0.645,-2.829 -1.935,-2.829 h -15.04 c -1.29,0.322 -1.935,0.968 -1.935,1.936 v 78.918 c 0,0.968 0.694,1.614 2.085,1.936" /></g><g
           transform="translate(308.8784,92.2254)"
           id="g48"><path
             id="path50"
             style="fill:#ffffff;fill-opacity:1;fill-rule:nonzero;stroke:none"
             d="m 0,0 c 7.594,0 14.741,-2.433 21.442,-7.297 9.133,-7.692 13.699,-19.01 13.699,-33.949 0,-14.121 -4.368,-25.189 -13.104,-33.205 -6.75,-5.46 -13.996,-8.191 -21.74,-8.191 H 0 v 16.678 h 0.148 c 4.046,0 7.818,2.035 11.317,6.106 3.177,4.788 4.765,10.645 4.765,17.569 v 2.533 c -0.372,11.291 -3.946,18.487 -10.721,21.59 -1.688,0.868 -3.524,1.364 -5.509,1.489 z m -2.681,0 v -16.379 c 0,-0.198 -0.099,-0.298 -0.297,-0.298 h -0.298 c -6.156,0 -10.92,-3.225 -14.295,-9.678 -1.786,-4.195 -2.68,-8.761 -2.68,-13.7 v -1.637 c 0,-11.467 3.723,-19.16 11.168,-23.08 2.332,-0.894 4.467,-1.34 6.402,-1.34 V -82.79 c -14.022,0 -24.395,6.055 -31.12,18.166 -3.375,6.478 -5.063,13.873 -5.063,22.186 v 2.234 c 0,17.944 6.75,30.303 20.251,37.078 C -13.451,-1.041 -8.14,0 -2.681,0" /></g><g
           transform="translate(402.0928,92.2254)"
           id="g52"><path
             id="path54"
             style="fill:#ffffff;fill-opacity:1;fill-rule:nonzero;stroke:none"
             d="m 0,0 h 14.74 c 0.97,0 1.615,-0.695 1.937,-2.084 V -47.5 c 0,-10.225 -1.887,-17.818 -5.66,-22.782 -3.027,-4.816 -8.14,-8.438 -15.336,-10.87 -3.772,-0.993 -6.949,-1.49 -9.53,-1.49 v 16.827 c 2.631,0 5.31,1.29 8.041,3.872 2.581,3.051 3.871,7.766 3.871,14.145 V -1.936 C -1.614,-0.646 -0.968,0 0,0 m -46.31,0 h 14.742 c 0.968,0 1.613,-0.695 1.935,-2.084 v -47.649 c 0,-8.562 2.879,-13.775 8.637,-15.636 1.414,-0.396 2.804,-0.595 4.169,-0.595 h 0.298 V -82.79 c -15.138,0 -25.015,6.155 -29.632,18.464 -1.39,3.896 -2.084,8.363 -2.084,13.401 V -1.936 C -47.923,-0.646 -47.278,0 -46.31,0" /></g><g
           transform="translate(450.8584,73.4637)"
           id="g56"><path
             id="path58"
             style="fill:#ffffff;fill-opacity:1;fill-rule:nonzero;stroke:none"
             d="m 0,0 h 18.91 v -61.943 c -0.322,-1.39 -1.017,-2.085 -2.084,-2.085 H 2.383 C 0.794,-63.829 0,-63.036 0,-61.646 Z m -20.996,18.762 h 60.902 c 0.968,0 1.613,-0.696 1.936,-2.084 V 4.169 c 0,-0.522 -0.248,-1.018 -0.744,-1.488 h -63.135 c -0.299,0 -0.546,0.447 -0.745,1.34 v 12.955 c 0.247,1.191 0.844,1.786 1.786,1.786" /></g><g
           transform="translate(536.7012,60.658)"
           id="g60"><path
             id="path62"
             style="fill:#ffffff;fill-opacity:1;fill-rule:nonzero;stroke:none"
             d="m 0,0 h 0.148 c 7.942,-1.687 13.998,-3.474 18.166,-5.36 8.241,-4.196 12.361,-10.746 12.361,-19.655 v -2.531 c 0,-6.28 -2.334,-11.69 -6.999,-16.231 C 17.943,-48.741 10.051,-51.223 0,-51.223 v 15.933 c 5.286,0 9.059,1.39 11.317,4.17 0.694,1.537 1.041,2.879 1.041,4.019 0,4.492 -4.118,7.521 -12.358,9.083 z m 0,31.418 h 0.597 c 13.573,0 22.309,-4.616 26.206,-13.847 1.289,-3.128 1.935,-5.46 1.935,-6.999 C 28.268,9.479 27.622,8.935 26.803,8.935 24.941,8.636 21.219,8.487 15.635,8.487 c -3.573,0 -5.36,0.348 -5.36,1.042 L 7.893,13.104 C 5.559,15.089 2.929,16.082 0,16.082 Z m -3.126,0 H -2.68 V 16.082 h -0.149 c -5.956,0 -9.381,-1.837 -10.275,-5.51 -0.098,-0.869 -0.149,-1.415 -0.149,-1.637 0,-3.301 2.184,-5.634 6.553,-6.998 2.655,-0.746 3.995,-1.192 4.02,-1.341 v -17.868 c -7.321,1.586 -12.98,3.276 -16.975,5.062 l -3.871,2.382 c -5.362,4.219 -8.041,9.778 -8.041,16.678 v 2.531 c 0,8.76 4.467,15.213 13.401,19.357 4.641,1.788 9.653,2.68 15.04,2.68 m -18.316,-57.476 c 3.573,0 5.361,-0.498 5.361,-1.488 1.563,-3.302 3.597,-5.387 6.104,-6.256 2.731,-0.992 5.162,-1.488 7.297,-1.488 v -15.933 h -0.596 c -14.22,0 -23.899,4.964 -29.037,14.89 -1.687,3.649 -2.531,6.229 -2.531,7.744 v 0.298 c 0,1.29 1.29,1.936 3.872,1.936 4.59,0.198 7.768,0.297 9.53,0.297" /></g><g
           transform="translate(599.2783,73.4637)"
           id="g64"><path
             id="path66"
             style="fill:#ffffff;fill-opacity:1;fill-rule:nonzero;stroke:none"
             d="m 0,0 h 18.91 v -61.943 c -0.322,-1.39 -1.017,-2.085 -2.084,-2.085 H 2.383 C 0.794,-63.829 0,-63.036 0,-61.646 Z m -20.996,18.762 h 60.902 c 0.968,0 1.613,-0.696 1.935,-2.084 V 4.169 c 0,-0.522 -0.247,-1.018 -0.743,-1.488 h -63.135 c -0.299,0 -0.547,0.447 -0.745,1.34 v 12.955 c 0.247,1.191 0.844,1.786 1.786,1.786" /></g><g
           transform="translate(670.6396,26.1131)"
           id="g68"><path
             id="path70"
             style="fill:#ffffff;fill-opacity:1;fill-rule:nonzero;stroke:none"
             d="m 0,0 h 38.417 c 1.29,-0.322 1.937,-0.969 1.937,-1.937 v -12.955 c -0.25,-1.191 -0.844,-1.786 -1.788,-1.786 H 0 Z m 0,33.502 h 36.482 c 1.29,-0.322 1.935,-0.967 1.935,-1.935 V 18.761 C 38.095,17.471 37.45,16.826 36.482,16.826 H 0 Z m 0,32.61 h 36.332 c 1.292,-0.322 1.937,-0.967 1.937,-1.935 V 51.223 c 0,-0.968 -0.696,-1.615 -2.085,-1.936 L 0,49.287 Z m -19.357,0 H -2.68 v -82.79 h -16.826 c -0.968,0 -1.613,0.696 -1.935,2.085 v 78.322 c 0.272,1.589 0.967,2.383 2.084,2.383" /></g><g
           transform="translate(759.0879,55.1492)"
           id="g72"><path
             id="path74"
             style="fill:#ffffff;fill-opacity:1;fill-rule:nonzero;stroke:none"
             d="m 0,0 c 20.549,-28.491 30.822,-42.835 30.822,-43.034 v -0.894 c 0,-0.942 -0.644,-1.539 -1.934,-1.786 H 11.465 c -0.967,0 -2.109,1.142 -3.424,3.425 l -20.847,29.632 v 0.148 C -9.853,-9.456 -5.584,-5.286 0,0 m 8.934,37.076 h 17.571 c 1.29,-0.322 1.936,-0.968 1.936,-1.935 v -0.149 c 0,-0.745 -1.588,-2.681 -4.764,-5.807 C 23.179,28.49 19.108,23.974 11.465,15.635 10.101,13.797 5.286,8.884 -2.978,0.894 -11.54,-7.545 -16.554,-12.358 -18.018,-13.55 V 7.594 c 5.758,6.651 14.445,16.38 26.059,29.184 0.321,0.2 0.62,0.298 0.893,0.298 m -29.631,-57.179 v -23.526 c 0,-1.191 -0.795,-1.886 -2.383,-2.085 h -14.146 c -1.588,0.199 -2.382,0.992 -2.382,2.383 v 4.318 c 0,0.571 0.992,1.661 2.978,3.276 0.248,0.372 5.559,5.583 15.933,15.634 m -16.975,57.179 h 15.038 c 1.29,-0.322 1.937,-0.968 1.937,-1.935 V -16.38 c -12.062,-11.838 -18.366,-17.942 -18.911,-18.315 v 69.687 c 0.322,1.389 0.968,2.084 1.936,2.084" /></g></g></g></g></svg>