<svg version="1.2" xmlns="http://www.w3.org/2000/svg" viewBox="0 0 3883 2090" width="3883" height="2090">
	<title>printenpixels_logo-ai</title>
	<style>
		.s0 { fill: #c80065 } 
		.s1 { fill: #f0b500 } 
		.s2 { fill: #f8da80 } 
		.s3 { fill: #00928c } 
		.s4 { fill: #80c9c5 } 
		.s5 { fill: #cb0065 } 
		.s6 { fill: #e093b6 } 
		.s7 { fill: #e480b2 } 
	</style>
	<g id="Layer 1">
		<g id="&lt;Group&gt;">
			<g id="&lt;Group&gt;">
				<path id="&lt;Compound Path&gt;" class="s0" d="m1425.1 1972.9c0-10.5-0.2-21.2-0.9-31.5h9.7l0.4 21.3h0.7c4.6-13.4 15.5-23.7 29.8-23.7 1.5 0 3 0.2 4.4 0.4v9.9c-1.6-0.2-3.1-0.2-5.1-0.2-14.5 0-24.8 12.5-27.6 29.4-0.7 3-0.9 6.5-0.9 10v58.1h-10.5z"/>
				<path id="&lt;Compound Path&gt;" fill-rule="evenodd" class="s0" d="m1535.8 2049c-27.2 0-48.3-21.2-48.3-54.1 0-36 23.7-55.9 49.8-55.9 29.1 0 48.9 21.9 48.9 54.1 0 39-27 55.9-50.2 55.9zm0.6-8.8c22 0 39.3-19.7 39.3-46.6 0-19.3-10.8-45.8-38.6-45.8-27 0-39 23.9-39 46.4 0 26.3 16.6 46 38.1 46z"/>
				<path id="&lt;Compound Path&gt;" fill-rule="evenodd" class="s0" d="m1687.2 2021.6c0 8.4 0.2 16.9 1.5 25h-9.6l-1.6-15.1h-0.4c-5.3 8.1-16.9 17.5-33.8 17.5-21.2 0-30.9-14.9-30.9-28.9 0-24.4 21.3-39 64.3-38.6v-2.8c0-10.3-2-31.1-27-30.9-9.2 0-18.9 2.4-26.5 7.9l-3.3-7.7c9.6-6.4 21.5-9 30.9-9 30.5 0 36.4 22.8 36.4 41.4zm-10.5-31.3c-23.1-0.6-53.3 2.9-53.3 28.1 0 15.1 10.1 21.9 21 21.9 17.6 0 27.6-10.8 31.2-21.1 0.8-2.1 1.1-4.6 1.1-6.3z"/>
				<path id="&lt;Compound Path&gt;" fill-rule="evenodd" class="s0" d="m1813.8 1890.8v131.5c0 7.7 0.2 16.9 0.9 24.3h-9.4l-0.9-19.9h-0.4c-5.5 11.6-18 22.3-37.5 22.3-26.1 0-45.4-21.7-45.4-53-0.2-35.1 21.5-57 47.4-57 18.2 0 29.8 9.4 34.4 18.6h0.4v-66.8zm-10.5 92.2c0-2.8-0.2-6.5-1.1-9.6-3.5-14-16-25.6-33.1-25.6-23 0-37.5 19.9-37.5 47.1 0 23.6 11.9 45.3 36.8 45.3 15.2 0 29.4-10 33.8-27.4 0.9-2.6 1.1-5.4 1.1-8.7z"/>
				<path id="&lt;Compound Path&gt;" class="s0" d="m1853.5 2032.8c5.7 3.5 14.2 7.2 23.6 7.2 16.7 0 24.6-8.9 24.6-19.9 0-11.6-7-17.8-22.2-23.9-17.3-6.6-26.7-16-26.7-28.7 0-15.3 12.1-28.5 32.4-28.5 9.7 0 18 2.9 23.3 6.6l-4 8.5c-3.7-2.6-10.5-6.3-21-6.3-13.4 0-20.4 8.5-20.4 18.1 0 11 7.5 15.6 21.7 21.5 17.1 6.8 27.2 15.4 27.2 31.4 0 17.9-14 30-35.5 30-10.1 0-19.7-2.9-26.8-7.2z"/>
				<path id="&lt;Compound Path&gt;" fill-rule="evenodd" class="s0" d="m1945 1975.4c0-14.1-0.4-25.4-0.8-35.5h23.6l1.4 16.4h0.4c7.9-12 20.4-18.9 36.6-18.9 24.5 0 44.9 21.1 44.9 54.4 0 38.6-24.3 57.2-48.6 57.2-13.4 0-24.6-5.7-30.1-14.2h-0.4v55.2h-27zm27 26.6c0 2.6 0.2 5 0.7 7.4 2.8 10.9 12.2 18.9 23.8 18.9 17.1 0 27.2-14.3 27.2-35.3 0-18.9-9.2-34.2-26.5-34.2-11.1 0-21.4 8.1-24.3 19.9-0.5 2.2-0.9 4.6-0.9 6.8z"/>
				<path id="&lt;Compound Path&gt;" class="s0" d="m2082 1974.3c0-14.5-0.2-25-0.9-34.4h23.3l1.1 20.1h0.6c5.3-14.9 17.8-22.6 29.4-22.6 2.6 0 4.1 0.3 6.3 0.7v25.2c-2.4-0.4-4.8-0.6-8.1-0.6-12.7 0-21.7 8.1-24.1 20.3-0.4 2.5-0.6 5.3-0.6 8.2v55.4h-27z"/>
				<path id="&lt;Compound Path&gt;" class="s0" d="m2182.1 1924.5c-9 0-14.9-6.6-14.9-14.4 0-8.4 6.2-14.7 15.2-14.7 9.2 0 14.9 6.3 15.1 14.7 0 7.8-5.9 14.4-15.1 14.4zm-13.4 122.1v-106.7h26.9v106.7z"/>
				<path id="&lt;Compound Path&gt;" class="s0" d="m2233.6 1971.7c0-12.3-0.4-22.6-0.8-31.8h23.4l1.3 16h0.7c4.8-8.3 16.4-18.5 34.2-18.5 18.6 0 37.9 12.1 37.9 45.9v63.3h-27v-60.3c0-15.3-5.7-26.9-20.4-26.9-10.7 0-18.2 7.6-21 15.8-0.9 2.2-1.3 5.4-1.3 8.5v62.9h-27z"/>
				<path id="&lt;Compound Path&gt;" class="s0" d="m2397.5 1912.5v27.4h25.7v20.1h-25.7v46.9c0 13.2 3.6 19.8 13.8 19.8 4.9 0 7.5-0.2 10.6-1.1l0.4 20.3c-3.9 1.6-11.2 2.9-19.5 2.9-10.1 0-18.2-3.3-23.2-8.8-5.9-6.1-8.6-15.9-8.6-30v-50h-15.1v-20.1h15.1v-20z"/>
				<path id="&lt;Compound Path&gt;" fill-rule="evenodd" class="s0" d="m2470.1 2000.8c0.6 19.3 15.8 27.6 32.9 27.6 12.4 0 21.2-1.9 29.6-4.8l3.9 18.4c-9.2 3.9-21.9 6.8-37.3 6.8-34.6 0-55-21.2-55-53.9 0-29.6 18-57.5 52.2-57.5 34.6 0 46 28.5 46 52 0 5.1-0.4 9-0.9 11.4zm46.9-18.8c0.2-9.9-4.1-26.1-22.1-26.1-16.7 0-23.7 15.1-24.8 26.1z"/>
				<path id="&lt;Compound Path&gt;" class="s0" d="m2572.8 1971.7c0-12.3-0.4-22.6-0.8-31.8h23.4l1.3 16h0.7c4.8-8.3 16.4-18.5 34.2-18.5 18.6 0 37.9 12.1 37.9 45.9v63.3h-27v-60.3c0-15.3-5.7-26.9-20.4-26.9-10.7 0-18.1 7.6-21 15.8-0.9 2.2-1.3 5.4-1.3 8.5v62.9h-27z"/>
				<path id="&lt;Compound Path&gt;" fill-rule="evenodd" class="s0" d="m2706.9 1975.4c0-14.1-0.4-25.4-0.8-35.5h23.6l1.3 16.4h0.5c7.9-12 20.3-18.9 36.6-18.9 24.5 0 44.9 21.1 44.9 54.4 0 38.6-24.3 57.2-48.7 57.2-13.3 0-24.5-5.7-30-14.2h-0.4v55.2h-27zm27 26.6c0 2.6 0.2 5 0.6 7.4 2.9 10.9 12.3 18.9 23.9 18.9 17.1 0 27.2-14.3 27.2-35.3 0-18.9-9.2-34.2-26.5-34.2-11.2 0-21.5 8.1-24.3 19.9-0.5 2.2-0.9 4.6-0.9 6.8z"/>
				<path id="&lt;Compound Path&gt;" class="s0" d="m2857.2 1924.5c-8.9 0-14.9-6.6-14.9-14.4 0-8.4 6.2-14.7 15.2-14.7 9.2 0 14.9 6.3 15.1 14.7 0 7.8-5.9 14.4-15.1 14.4zm-13.4 122.1v-106.7h27v106.7z"/>
				<path id="&lt;Compound Path&gt;" class="s0" d="m2926.7 1939.9l12.7 20.1c3.5 5.5 6.6 11 9.7 16.5h0.4c3.3-5.9 6.1-11.4 9.4-16.9l11.9-19.7h29.3l-35.7 51 36.4 55.7h-30.7l-12.9-21.5c-3.5-5.7-6.6-11.4-9.7-17.3h-0.4c-3.1 6.1-6.4 11.6-9.6 17.6l-12.6 21.2h-29.5l37-54.5-35.7-52.2z"/>
				<path id="&lt;Compound Path&gt;" fill-rule="evenodd" class="s0" d="m3040.7 2000.8c0.6 19.3 15.7 27.6 32.8 27.6 12.5 0 21.3-1.9 29.6-4.8l4 18.4c-9.2 3.9-22 6.8-37.3 6.8-34.6 0-55-21.2-55-53.9 0-29.6 18-57.5 52.2-57.5 34.6 0 46 28.5 46 52 0 5.1-0.5 9-0.9 11.4zm46.9-18.8c0.2-9.9-4.2-26.1-22.1-26.1-16.7 0-23.7 15.1-24.8 26.1z"/>
				<path id="&lt;Compound Path&gt;" class="s0" d="m3143.4 1890.8h27v155.8h-27z"/>
				<path id="&lt;Compound Path&gt;" class="s0" d="m3207.4 2021.6c5.9 3.8 17.5 7.9 27.2 7.9 11.8 0 17.1-5 17.1-12 0-7.3-4.4-10.8-17.6-15.6-20.8-7-29.4-18.4-29.4-31.1 0-18.9 15.6-33.4 40.4-33.4 11.8 0 22.1 2.9 28.5 6.4l-5.5 18.9c-4.4-2.7-13.1-6.2-22.6-6.2-9.6 0-14.9 4.8-14.9 11.4 0 6.8 5.1 9.9 18.6 14.9 19.6 6.8 28.3 16.7 28.5 32.5 0 19.5-15.1 33.5-43.4 33.5-12.9 0-24.5-3.1-32.4-7.5z"/>
				<path id="&lt;Compound Path&gt;" class="s0" d="m3319.3 2049c-9.6 0-16.4-7.4-16.4-17.3 0-10.1 7-17.3 16.7-17.3 9.8 0 16.6 7 16.6 17.3 0 9.9-6.5 17.3-16.6 17.3z"/>
				<path id="&lt;Compound Path&gt;" class="s0" d="m3366.7 1971.7c0-12.3-0.4-22.6-0.9-31.8h23.5l1.3 16h0.7c4.8-8.3 16.4-18.5 34.1-18.5 18.6 0 37.9 12.1 37.9 45.9v63.3h-26.9v-60.3c0-15.3-5.7-26.9-20.4-26.9-10.7 0-18.2 7.6-21 15.8-0.9 2.2-1.3 5.4-1.3 8.5v62.9h-27z"/>
				<path id="&lt;Compound Path&gt;" class="s0" d="m3500.8 1890.8h26.9v155.8h-26.9z"/>
			</g>
			<g id="&lt;Group&gt;">
				<path id="&lt;Path&gt;" class="s1" d="m2879 1310.7h-458.4v-458.5h458.4z"/>
				<path id="&lt;Path&gt;" class="s1" d="m2649.8 498.8c85.2 0 154.3 69 154.3 154.1 0 85.3-69.1 154.4-154.3 154.4-85.2 0-154.3-69.1-154.3-154.4 0-85.1 69.1-154.1 154.3-154.1z"/>
				<path id="&lt;Path&gt;" class="s2" d="m2649.8 554.2c54.6 0 98.9 44.2 98.9 98.7 0 54.7-44.3 99-98.9 99-54.6 0-98.9-44.3-98.9-99 0-54.5 44.3-98.7 98.9-98.7z"/>
				<path id="&lt;Path&gt;" class="s3" d="m2584.4 1524.6h-355v-355h355z"/>
				<path id="&lt;Path&gt;" class="s3" d="m2405.4 911.2c66 0 119.5 53.5 119.5 119.5 0 66-53.5 119.5-119.5 119.5-66 0-119.5-53.5-119.5-119.5 0-66 53.5-119.5 119.5-119.5z"/>
				<path id="&lt;Path&gt;" class="s4" d="m2405.4 955.3c41.7 0 75.5 33.7 75.5 75.4 0 41.7-33.8 75.5-75.5 75.5-41.7 0-75.5-33.8-75.5-75.5 0-41.7 33.8-75.4 75.5-75.4z"/>
				<g id="&lt;Group&gt;">
					<path id="&lt;Compound Path&gt;" fill-rule="evenodd" class="s5" d="m980.9 1084.2c0 43.9-29.7 59.5-64.3 59.5h-65.3v72.8h-96.7v-322.7h163.3c40.4 0 63 27.5 63 62.1zm-93.1-93.2c0-18.6-2.7-18.6-16.5-18.6h-20v96.7h20.9c12.9 0 15.6-3.1 15.6-16z"/>
					<path id="&lt;Compound Path&gt;" class="s5" d="m1155.9 970.1v67.1h-46.6c-5.8 0-7.1 3.5-7.1 9.3v170h-85.2v-246.4h79.4v17.3c3.6-14.6 12.9-17.3 28.5-17.3z"/>
					<path id="&lt;Compound Path&gt;" class="s5" d="m1282 1216.5h-87.4v-246.4h87.4zm-2.2-291.2c0 9.3-13.4 22.7-22.7 22.7h-37.7c-9.3 0-22.6-9.8-22.6-22.7v-35.9c0-12.4 9.8-22.7 22.6-22.7h37.7c12.9 0 22.7 13.4 22.7 22.7z"/>
					<path id="&lt;Compound Path&gt;" class="s5" d="m1492 970.1c19.1 0 33.3 14.7 33.3 33.3v213.1h-83v-170c0-6.6-0.9-9.3-6.7-9.3h-15.5c-5.8 0-7.1 3.5-7.1 9.3v170h-83.9v-246.4h79.4v17.3c3.6-14.6 12.9-17.3 28.4-17.3z"/>
					<path id="&lt;Compound Path&gt;" class="s5" d="m1669.6 1037.2v179.3h-87v-179.3h-22.2v-67.1h22.2v-21.2l87-60.4v81.6h30.6v67.1z"/>
					<path id="&lt;Compound Path&gt;" fill-rule="evenodd" class="s5" d="m1912.6 1141.8h-10.7c-4.4 9.9-8 15.4-14.8 23.3l24.3 53.1h-61.3l-7.6-16.1c-30.7 19.2-48.2 18.9-67.3 18.9-14.5 0-38.1-1.4-38.1-27.4v-76.9c0-40.5 19.2-40 47.6-40.8l-11.7-26v-29.6h115.2v49.8h-44.3l25.7 57c7.4-10.7 4.9-18.7 5.2-31.5h37.8zm-111.7-30.9c-3.9 0-7.9-0.3-7.9 4.9v40c0 6.5 4.3 8.7 10.3 8.7 6.1 0 14.3-1.4 19.8-4.6z"/>
				</g>
				<g id="&lt;Group&gt;">
					<path id="&lt;Compound Path&gt;" fill-rule="evenodd" class="s6" d="m868.7 832.7h-114.1v-109.8c0-27.1-28.7-24.4-46.7-24.4v907.4h-113.5v-1158.7h194.7c47.7 0 74.8 32.9 74.8 74.3v89.4c0 20.7-19.1 34-35.5 35 21.2 2.7 40.3 12.8 40.3 47.8zm-115.7-269.5c0-22.2-3.2-22.2-19.6-22.2h-24.4v81h23.9c15.3 0 20.1-4.2 20.1-19.1z"/>
					<path id="&lt;Compound Path&gt;" fill-rule="evenodd" class="s6" d="m1151.6 789.7c0 25.5-17.6 43-40.4 43h-154.9c-22.3 0-39.8-17.5-39.8-41.9v-212.7c0-22.2 17.5-39.7 39.8-39.7h154.9c22.8 0 40.4 17.5 40.4 39.7zm-98.8-163.4c0-7.5-1-11.2-7.9-11.2h-20.7c-8 0-8.5 4.2-8.5 11.2v119.4c0 6.9 0.5 10 8.5 10h20.7c6.9 0 7.9-2.1 7.9-10z"/>
					<path id="&lt;Compound Path&gt;" fill-rule="evenodd" class="s6" d="m1339.9 832.7v-20.6c-4.2 17.5-15.4 20.6-33.9 20.6h-65.3c-23.3 0-40.8-17.5-40.8-39.8v-99.2c0-35 6.4-41.4 37.1-41.4h97.6v-18c0-17-0.5-15.9-16.4-15.9h-103.5v-80h179.4c22.2 0 39.8 17.5 39.8 41.8v252.5zm-5.3-116.7c0-6.9-0.5-10.1-8.5-10.1h-19.1c-7.4 0-8 2.7-8 10.1v26c0 8 0.6 11.2 8 11.2h19.1c8 0 8.5-4.3 8.5-11.2z"/>
					<path id="&lt;Compound Path&gt;" fill-rule="evenodd" class="s6" d="m1624.9 812.1c-4.2 17.5-15.3 20.6-33.9 20.6h-69c-25 0-39.8-17.5-39.8-41.9v-212.7c0-22.2 17.5-39.7 39.8-39.7h69c18.6 0 29.7 3.2 33.9 20.6v-111.8h95v385.5h-95zm-14.3-58.9c6.9 0 9-2.6 9-9.5v-114.7c0-6.9-2.1-10.5-9-10.5h-18.6c-7.4 0-9.5 4.2-9.5 11.1v114.6c0 6.9 0.5 9 8.5 9z"/>
					<path id="&lt;Compound Path&gt;" class="s6" d="m1985.8 774.4c0 49.8-10.2 58.3-56.3 58.3h-161.3v-79.5h104c3.7 0 5.8-1.1 5.8-5.9v-18c0-5.3-2.1-7.4-6.8-7.4h-77c-16.4 0-26-4.8-26-22.9v-103.4c0-50.9 12.7-57.2 60-57.2h157.6v80h-108.3c-4.2 0-5.8 1-5.8 5.8v18c0 4.8 1.6 7.5 5.8 7.5h71.6c29.8 0 36.7 4.2 36.7 33.4z"/>
				</g>
				<g id="&lt;Group&gt;">
					<path id="&lt;Compound Path&gt;" fill-rule="evenodd" class="s5" d="m987 1469.8c0 45.2-30.6 61.1-66.1 61.1h-67v74.7h-99.3v-331.2h167.7c41.4 0 64.7 28.3 64.7 63.8zm-95.7-95.7c0-19.2-2.8-19.2-16.9-19.2h-20.5v99.4h21.4c13.2 0 16-3.2 16-16.4z"/>
					<path id="&lt;Compound Path&gt;" class="s5" d="m1113.7 1605.6h-89.7v-252.8h89.7zm-2.3-298.9c0 9.5-13.6 23.2-23.2 23.2h-38.8c-9.5 0-23.2-10-23.2-23.2v-36.9c0-12.8 10-23.3 23.2-23.3h38.8c13.2 0 23.2 13.6 23.2 23.3z"/>
					<path id="&lt;Compound Path&gt;" class="s5" d="m1390.3 1605.6h-94.3l-30.5-70.1-29.2 70.1h-95.2l73.3-136.2-68.3-116.6h92.5l27.3 63.3 28.7-63.3h91.1l-68.8 117.9z"/>
					<path id="&lt;Compound Path&gt;" fill-rule="evenodd" class="s5" d="m1611.8 1472.1c0 29.7-5.5 35.1-31.4 35.1h-84.4v17.3c0 12.8 2.8 12.8 12.8 12.8h94.4v68.3h-157.7c-19.1 0-34.6-15-34.6-36.4v-182.3c0-19.1 15.5-34.1 34.6-34.1h131.7c19.6 0 34.6 15 34.6 34.1zm-84.8-42.4c0-6.8-0.9-9.5-6.8-9.5h-16.8c-6.8 0-7.4 3.6-7.4 9.5v21.9c0 6.4 0.6 9.1 7.4 9.1h16.8c5.9 0 6.8-2.3 6.8-9.1z"/>
					<path id="&lt;Compound Path&gt;" class="s5" d="m1750.4 1605.6h-90.2v-331.2h90.2z"/>
					<path id="&lt;Compound Path&gt;" class="s5" d="m1985.5 1555.5c0 42.9-8.7 50.1-48.3 50.1h-138.5v-68.3h89.3c3.2 0 5-0.9 5-5v-15.5c0-4.6-1.8-6.4-5.9-6.4h-66.1c-14.1 0-22.3-4.1-22.3-19.6v-88.9c0-43.7 10.9-49.1 51.5-49.1h135.3v68.7h-93c-3.6 0-5 1-5 5.1v15.5c0 4.1 1.4 6.3 5 6.3h61.5c25.5 0 31.5 3.7 31.5 28.7z"/>
				</g>
			</g>
		</g>
		<path id="&lt;Path&gt;" class="s0" d="m2787.4 1007.2h520.8v520.9h-520.8z"/>
		<path id="&lt;Compound Path&gt;" fill-rule="evenodd" class="s0" d="m3549 431.9v1223c0 73.5-59.7 133.2-133.2 133.2h-2938c-73.3 0-133.1-59.7-133.1-133.2v-1223c0-73.4 59.8-133.1 133.1-133.1h2938c73.5 0 133.2 59.7 133.2 133.1zm-29.6 0c0-57.1-46.5-103.5-103.6-103.5h-2938c-57 0-103.5 46.4-103.5 103.5v1223c0 57.2 46.5 103.6 103.5 103.6h2938c57.1 0 103.6-46.4 103.6-103.6z"/>
		<path id="&lt;Path&gt;" class="s0" d="m3047.8 619.1c96.8 0 175.3 78.4 175.3 175.1 0 96.9-78.5 175.4-175.3 175.4-96.8 0-175.3-78.5-175.3-175.4 0-96.7 78.5-175.1 175.3-175.1z"/>
		<path id="&lt;Path&gt;" class="s7" d="m3047.8 682c62 0 112.3 50.2 112.3 112.2 0 62.1-50.3 112.4-112.3 112.4-62.1 0-112.4-50.3-112.4-112.4 0-62 50.3-112.2 112.4-112.2z"/>
	</g>
</svg>