<svg id="Layer_1" data-name="Layer 1" xmlns="http://www.w3.org/2000/svg" viewBox="0 0 500 500"><defs><style>.cls-1{fill:#003770;}.cls-2{fill:#ee7124;}.cls-3{fill:#005a9a;}.cls-4{fill:#0075bf;}.cls-5{fill:#0095db;}.cls-6{fill:#2dafe6;}</style></defs><title>Artboard 1</title><path class="cls-1" d="M160,58.88h12.3c3.59,0,6.48,1.13,8.23,2.89a7.69,7.69,0,0,1,2.22,5.43v.08c0,4.9-3.64,7.7-8.57,8.37l9.66,12.5h-2.76L171.76,76h-9.57V88.15H160Zm12.05,15.18c4.89,0,8.52-2.47,8.52-6.69v-.09c0-3.93-3.09-6.39-8.4-6.39h-10V74.06Z"/><path class="cls-1" d="M187.33,73.6v-.09c0-8,5.89-15.13,14.76-15.13s14.67,7.06,14.67,15.05v.08c0,8-5.89,15.14-14.76,15.14S187.33,81.58,187.33,73.6Zm27.17,0v-.09c0-7.23-5.27-13.17-12.5-13.17s-12.41,5.86-12.41,13.09v.08c0,7.24,5.26,13.17,12.5,13.17S214.5,80.83,214.5,73.6Z"/><path class="cls-1" d="M232.15,58.67h2.09l13.63,29.48h-2.38L241.76,80H224.5l-3.72,8.2h-2.26ZM240.85,78l-7.7-16.94L225.42,78Z"/><path class="cls-1" d="M252.74,58.88h9.74c9.19,0,15.55,6.31,15.55,14.55v.08c0,8.24-6.36,14.64-15.55,14.64h-9.74Zm2.17,2V86.14h7.57c8.15,0,13.29-5.56,13.29-12.54v-.09c0-6.94-5.14-12.62-13.29-12.62Z"/><path class="cls-1" d="M281.73,83.88l1.43-1.63c3.21,3,6.18,4.35,10.49,4.35s7.4-2.47,7.4-5.81V80.7c0-3.09-1.63-4.89-8.28-6.23-7-1.42-9.87-3.8-9.87-8.23v-.08c0-4.35,4-7.7,9.41-7.7a14.53,14.53,0,0,1,10,3.56L301,63.73a12.61,12.61,0,0,0-8.74-3.3c-4.31,0-7.15,2.46-7.15,5.52V66c0,3.09,1.59,5,8.53,6.4,6.77,1.38,9.61,3.8,9.61,8.06v.09c0,4.72-4.05,8-9.7,8A16.65,16.65,0,0,1,281.73,83.88Z"/><path class="cls-2" d="M166,104.21h-8.9V98.27h24.25v5.94h-8.91v23.33H166Z"/><path class="cls-2" d="M184.78,98.27h22.07V104H191.17v5.93H205v5.73h-13.8v6.15h15.89v5.73H184.78Z"/><path class="cls-2" d="M210.26,113v-.09a14.87,14.87,0,0,1,15.26-15.13c5.52,0,8.82,1.84,11.54,4.51L233,107c-2.25-2.05-4.55-3.3-7.48-3.3-4.93,0-8.49,4.09-8.49,9.11v.08c0,5,3.47,9.2,8.49,9.2,3.35,0,5.39-1.34,7.69-3.43l4.1,4.14a15,15,0,0,1-12,5.23A14.78,14.78,0,0,1,210.26,113Z"/><path class="cls-2" d="M241.05,98.27h6.44v11.58h11.88V98.27h6.43v29.27h-6.43V115.79H247.49v11.75h-6.44Z"/><path class="cls-2" d="M272.08,98.27H278l13.71,18v-18h6.35v29.27h-5.47l-14.18-18.61v18.61h-6.35Z"/><path class="cls-2" d="M302.87,113v-.09c0-8.32,6.56-15.13,15.59-15.13s15.51,6.73,15.51,15v.08c0,8.32-6.56,15.14-15.59,15.14S302.87,121.31,302.87,113Zm24.37,0v-.09a8.89,8.89,0,0,0-8.86-9.19c-5.19,0-8.78,4.09-8.78,9.11v.08a8.89,8.89,0,0,0,8.86,9.2C323.64,122.1,327.24,118,327.24,113Z"/><path class="cls-2" d="M336.82,98.27h6.43v23.41h14.6v5.86h-21Z"/><path class="cls-2" d="M358.53,113v-.09c0-8.32,6.57-15.13,15.6-15.13s15.51,6.73,15.51,15v.08c0,8.32-6.56,15.14-15.59,15.14S358.53,121.31,358.53,113Zm24.38,0v-.09a8.89,8.89,0,0,0-8.86-9.19c-5.19,0-8.78,4.09-8.78,9.11v.08a8.89,8.89,0,0,0,8.86,9.2C379.31,122.1,382.91,118,382.91,113Z"/><path class="cls-2" d="M392.86,113v-.09a15,15,0,0,1,15.35-15.13c5.26,0,8.44,1.42,11.49,4l-4.05,4.89a10.79,10.79,0,0,0-7.65-3c-4.68,0-8.41,4.13-8.41,9.11v.08c0,5.35,3.68,9.28,8.87,9.28a10.27,10.27,0,0,0,6.06-1.75v-4.18H408v-5.56h12.71V123.4a19,19,0,0,1-12.5,4.64C399.13,128,392.86,121.64,392.86,113Z"/><path class="cls-2" d="M433.16,116,421.91,98.27h7.53l7,11.75,7.11-11.75h7.31l-11.24,17.6v11.67h-6.44Z"/><path class="cls-1" d="M136.1,133.57a6.61,6.61,0,0,1-6.6-6.6V63.83a6.6,6.6,0,1,1,13.2,0V127A6.6,6.6,0,0,1,136.1,133.57Z"/><path class="cls-3" d="M112.81,158.87a6.6,6.6,0,0,1-6.6-6.6V35.48a6.6,6.6,0,1,1,13.2,0V152.27A6.6,6.6,0,0,1,112.81,158.87Z"/><path class="cls-4" d="M89.51,135.39a6.61,6.61,0,0,1-6.6-6.61V83a6.61,6.61,0,0,1,13.21,0v45.75A6.61,6.61,0,0,1,89.51,135.39Z"/><path class="cls-5" d="M66.22,147.89a6.6,6.6,0,0,1-6.6-6.6V47.77a6.6,6.6,0,1,1,13.2,0v93.52A6.59,6.59,0,0,1,66.22,147.89Z"/><path class="cls-6" d="M42.93,132.8a6.61,6.61,0,0,1-6.61-6.61V81.07a6.61,6.61,0,0,1,13.21,0v45.12A6.61,6.61,0,0,1,42.93,132.8Z"/><circle class="cls-2" cx="89.51" cy="65.41" r="6.6"/></svg>