<svg version="1.2" xmlns="http://www.w3.org/2000/svg" viewBox="0 0 2092 816" width="2092" height="816">
	<title>Logo RT-ai</title>
	<style>
		.s0 { fill: #003874 } 
		.s1 { fill: #f37630 } 
		.s2 { fill: #005e9d } 
		.s3 { fill: #007dc5 } 
		.s4 { fill: #00a1e4 } 
		.s5 { fill: #20b1e7 } 
	</style>
	<g id="Laag 1">
		<g id="&lt;Group&gt;">
			<g id="&lt;Group&gt;">
				<path id="&lt;Compound Path&gt;" fill-rule="evenodd" class="s0" d="m763.1 240.7h49.2c14.4 0 25.9 4.5 32.9 11.5 5.6 5.5 8.9 13.4 8.9 21.8v0.3c0 19.6-14.5 30.8-34.3 33.4l38.7 50h-11.1l-37.3-48.5h-38.3v48.5h-8.7zm48.2 60.7c19.6 0 34.1-9.8 34.1-26.7v-0.3c0-15.8-12.4-25.6-33.6-25.6h-40v52.6z"/>
				<path id="&lt;Compound Path&gt;" fill-rule="evenodd" class="s0" d="m872.4 299.5v-0.3c0-31.9 23.6-60.5 59-60.5 35.5 0 58.7 28.2 58.7 60.2v0.3c0 32-23.6 60.6-59 60.6-35.5 0-58.7-28.3-58.7-60.3zm108.7 0v-0.3c0-28.9-21.1-52.7-50-52.7-29 0-49.7 23.4-49.7 52.4v0.3c0 28.9 21.1 52.7 50 52.7 28.9 0 49.7-23.4 49.7-52.4z"/>
				<path id="&lt;Compound Path&gt;" fill-rule="evenodd" class="s0" d="m1051.7 239.8h8.3l54.5 117.9h-9.5l-14.9-32.7h-69l-14.9 32.7h-9zm34.7 77.3l-30.7-67.7-31 67.7z"/>
				<path id="&lt;Compound Path&gt;" fill-rule="evenodd" class="s0" d="m1134 240.7h39c36.8 0 62.2 25.2 62.2 58.2v0.3c0 33-25.4 58.5-62.2 58.5h-39zm8.7 8.1v101h30.3c32.6 0 53.2-22.3 53.2-50.2v-0.3c0-27.8-20.6-50.5-53.2-50.5z"/>
				<path id="&lt;Compound Path&gt;" class="s0" d="m1250 340.7l5.7-6.5c12.9 11.8 24.7 17.4 42 17.4 17.5 0 29.6-9.9 29.6-23.3v-0.3c0-12.4-6.6-19.6-33.1-24.9-28.1-5.7-39.5-15.3-39.5-33v-0.3c0-17.4 15.9-30.8 37.6-30.8 17.1 0 28.3 4.7 40.1 14.2l-5.5 6.9c-11-9.5-22-13.2-34.9-13.2-17.2 0-28.6 9.8-28.6 22v0.4c0 12.4 6.3 19.9 34.1 25.6 27.1 5.5 38.5 15.2 38.5 32.2v0.4c0 18.9-16.3 31.9-38.8 31.9-18.8 0-33.1-6.2-47.2-18.7z"/>
			</g>
			<g id="&lt;Group&gt;">
				<path id="&lt;Compound Path&gt;" class="s1" d="m787 422h-35.6v-23.8h97v23.8h-35.6v93.3h-25.8z"/>
				<path id="&lt;Compound Path&gt;" class="s1" d="m862.2 398.2h88.3v23h-62.7v23.7h55.1v22.9h-55.1v24.6h63.5v22.9h-89.1z"/>
				<path id="&lt;Compound Path&gt;" class="s1" d="m964.1 457.1v-0.3c0-33.3 25.1-60.6 61.1-60.6 22 0 35.2 7.4 46.1 18.1l-16.4 18.9c-9-8.2-18.2-13.2-29.9-13.2-19.7 0-34 16.4-34 36.4v0.4c0 20 13.9 36.8 34 36.8 13.4 0 21.6-5.4 30.8-13.7l16.4 16.5c-12.1 12.9-25.5 20.9-48 20.9-34.5 0-60.1-26.6-60.1-60.2z"/>
				<path id="&lt;Compound Path&gt;" class="s1" d="m1087.3 398.2h25.7v46.4h47.5v-46.4h25.8v117.1h-25.8v-47h-47.5v47h-25.7z"/>
				<path id="&lt;Compound Path&gt;" class="s1" d="m1211.4 398.2h23.7l54.9 72.1v-72.1h25.4v117.1h-21.9l-56.7-74.4v74.4h-25.4z"/>
				<path id="&lt;Compound Path&gt;" fill-rule="evenodd" class="s1" d="m1334.5 457.1v-0.3c0-33.3 26.3-60.6 62.4-60.6 36.1 0 62.1 27 62.1 60.2v0.4c0 33.3-26.3 60.5-62.4 60.5-36.1 0-62.1-26.9-62.1-60.2zm97.5 0v-0.3c0-20.1-14.7-36.8-35.4-36.8-20.8 0-35.1 16.4-35.1 36.4v0.4c0 20 14.7 36.8 35.4 36.8 20.7 0 35.1-16.4 35.1-36.5z"/>
				<path id="&lt;Compound Path&gt;" class="s1" d="m1470.3 398.2h25.8v93.7h58.4v23.4h-84.2z"/>
				<path id="&lt;Compound Path&gt;" fill-rule="evenodd" class="s1" d="m1557.2 457.1v-0.3c0-33.3 26.3-60.6 62.4-60.6 36.1 0 62 27 62 60.2v0.4c0 33.3-26.2 60.5-62.3 60.5-36.2 0-62.1-26.9-62.1-60.2zm97.5 0v-0.3c0-20.1-14.7-36.8-35.4-36.8-20.8 0-35.2 16.4-35.2 36.4v0.4c0 20 14.7 36.8 35.5 36.8 20.7 0 35.1-16.4 35.1-36.5z"/>
				<path id="&lt;Compound Path&gt;" class="s1" d="m1694.5 457.1v-0.3c0-33.3 25.9-60.6 61.4-60.6 21.1 0 33.8 5.7 46 16.1l-16.2 19.6c-9.1-7.6-17.1-11.9-30.6-11.9-18.8 0-33.7 16.5-33.7 36.4v0.4c0 21.4 14.8 37.1 35.5 37.1 9.4 0 17.7-2.3 24.2-7v-16.7h-25.9v-22.3h50.9v50.8c-12.1 10.2-28.6 18.6-50 18.6-36.5 0-61.6-25.6-61.6-60.2z"/>
				<path id="&lt;Compound Path&gt;" class="s1" d="m1855.7 469.1l-45-70.9h30.1l27.9 47 28.5-47h29.2l-44.9 70.4v46.7h-25.8z"/>
			</g>
			<g id="&lt;Group&gt;">
				<path id="&lt;Path&gt;" class="s0" d="m667.5 539.4c-14.6 0-26.4-11.8-26.4-26.4v-252.5c0-14.6 11.8-26.4 26.4-26.4 14.6 0 26.4 11.8 26.4 26.4v252.5c0 14.6-11.8 26.4-26.4 26.4z"/>
			</g>
			<g id="&lt;Group&gt;">
				<path id="&lt;Path&gt;" class="s2" d="m574.3 640.6c-14.6 0-26.4-11.8-26.4-26.4v-467.1c0-14.6 11.8-26.4 26.4-26.4 14.6 0 26.4 11.8 26.4 26.4v467.1c0 14.6-11.8 26.4-26.4 26.4z"/>
			</g>
			<g id="&lt;Group&gt;">
				<path id="&lt;Path&gt;" class="s3" d="m481.1 546.7c-14.6 0-26.4-11.8-26.4-26.4v-183c0-14.6 11.8-26.4 26.4-26.4 14.6 0 26.4 11.8 26.4 26.4v183c0 14.6-11.8 26.4-26.4 26.4z"/>
			</g>
			<g id="&lt;Group&gt;">
				<path id="&lt;Path&gt;" class="s4" d="m388 596.7c-14.6 0-26.5-11.8-26.5-26.4v-374.1c0-14.5 11.9-26.4 26.5-26.4 14.5 0 26.4 11.9 26.4 26.4v374.1c0 14.6-11.9 26.4-26.4 26.4z"/>
			</g>
			<g id="&lt;Group&gt;">
				<path id="&lt;Path&gt;" class="s5" d="m294.8 536.3c-14.6 0-26.4-11.8-26.4-26.4v-180.5c0-14.6 11.8-26.4 26.4-26.4 14.6 0 26.4 11.8 26.4 26.4v180.5c0 14.6-11.8 26.4-26.4 26.4z"/>
			</g>
			<path id="&lt;Path&gt;" class="s1" d="m454.7 266.8c0-14.6 11.8-26.4 26.4-26.4 14.6 0 26.4 11.8 26.4 26.4 0 14.6-11.8 26.4-26.4 26.4-14.6 0-26.4-11.8-26.4-26.4z"/>
		</g>
	</g>
</svg>